{
.appVersion = "895";
DisplayStrings = (
"3E`"
);
copyright = "SIL OPEN FONT LICENSE Version 1.1";
date = "2017-02-18 05:44:20 +0000";
designer = "Trevor Bullock";
familyName = "KA Old Style Martyria";
fontMaster = (
{
ascender = 800;
capHeight = 700;
descender = -200;
id = "74DDE396-3882-446A-A041-640634B78C39";
visible = 1;
xHeight = 500;
},
{
ascender = 800;
capHeight = 700;
descender = -200;
id = "14C6E355-B074-4D1E-9097-146622FBF431";
xHeight = 500;
}
);
glyphs = (
{
glyphname = A;
lastChange = "2019-02-24 22:46:33 +0000";
layers = (
{
layerId = "74DDE396-3882-446A-A041-640634B78C39";
paths = (
{
closed = 1;
nodes = (
"-53 6 OFFCURVE",
"-61 10 OFFCURVE",
"-66 13 CURVE SMOOTH",
"-80 21 OFFCURVE",
"-80 26 OFFCURVE",
"-66 41 CURVE SMOOTH",
"-55 53 OFFCURVE",
"-47 65 OFFCURVE",
"-47 67 CURVE SMOOTH",
"-47 74 OFFCURVE",
"-103 61 OFFCURVE",
"-199 33 CURVE SMOOTH",
"-288 7 OFFCURVE",
"-285 8 OFFCURVE",
"-324 6 CURVE SMOOTH",
"-366 4 OFFCURVE",
"-382 8 OFFCURVE",
"-400 22 CURVE SMOOTH",
"-415 34 OFFCURVE",
"-420 41 OFFCURVE",
"-422 55 CURVE",
"-425 67 OFFCURVE",
"-425 70 OFFCURVE",
"-422 79 CURVE",
"-416 95 OFFCURVE",
"-411 104 OFFCURVE",
"-398 116 CURVE",
"-386 128 OFFCURVE",
"-369 135 OFFCURVE",
"-349 138 CURVE SMOOTH",
"-337 140 OFFCURVE",
"-335 140 OFFCURVE",
"-328 136 CURVE",
"-323 134 OFFCURVE",
"-317 130 OFFCURVE",
"-315 126 CURVE SMOOTH",
"-310 116 OFFCURVE",
"-312 112 OFFCURVE",
"-330 85 CURVE",
"-351 57 OFFCURVE",
"-350 55 OFFCURVE",
"-319 55 CURVE SMOOTH",
"-299 55 OFFCURVE",
"-293 55 OFFCURVE",
"-249 65 CURVE",
"-224 73 OFFCURVE",
"-184 83 OFFCURVE",
"-163 89 CURVE SMOOTH",
"-117 102 OFFCURVE",
"-87 109 OFFCURVE",
"-53 110 CURVE SMOOTH",
"-31 111 OFFCURVE",
"-27 111 OFFCURVE",
"-17 107 CURVE",
"0 102 OFFCURVE",
"19 86 OFFCURVE",
"23 76 CURVE",
"28 65 OFFCURVE",
"25 46 OFFCURVE",
"19 36 CURVE",
"3 12 OFFCURVE",
"-27 -2 OFFCURVE",
"-47 4 CURVE SMOOTH"
);
}
);
width = 0;
},
{
layerId = "14C6E355-B074-4D1E-9097-146622FBF431";
paths = (
{
closed = 1;
nodes = (
"-53 6 OFFCURVE",
"-61 10 OFFCURVE",
"-66 13 CURVE SMOOTH",
"-80 21 OFFCURVE",
"-80 26 OFFCURVE",
"-66 41 CURVE SMOOTH",
"-55 53 OFFCURVE",
"-47 65 OFFCURVE",
"-47 67 CURVE SMOOTH",
"-47 74 OFFCURVE",
"-103 61 OFFCURVE",
"-199 33 CURVE SMOOTH",
"-288 7 OFFCURVE",
"-285 8 OFFCURVE",
"-324 6 CURVE SMOOTH",
"-366 4 OFFCURVE",
"-382 8 OFFCURVE",
"-400 22 CURVE SMOOTH",
"-415 34 OFFCURVE",
"-420 41 OFFCURVE",
"-422 55 CURVE",
"-425 67 OFFCURVE",
"-425 70 OFFCURVE",
"-422 79 CURVE",
"-416 95 OFFCURVE",
"-411 104 OFFCURVE",
"-398 116 CURVE",
"-386 128 OFFCURVE",
"-369 135 OFFCURVE",
"-349 138 CURVE SMOOTH",
"-337 140 OFFCURVE",
"-335 140 OFFCURVE",
"-328 136 CURVE",
"-323 134 OFFCURVE",
"-317 130 OFFCURVE",
"-315 126 CURVE SMOOTH",
"-310 116 OFFCURVE",
"-312 112 OFFCURVE",
"-330 85 CURVE",
"-351 57 OFFCURVE",
"-350 55 OFFCURVE",
"-319 55 CURVE SMOOTH",
"-299 55 OFFCURVE",
"-293 55 OFFCURVE",
"-249 65 CURVE",
"-224 73 OFFCURVE",
"-184 83 OFFCURVE",
"-163 89 CURVE SMOOTH",
"-117 102 OFFCURVE",
"-87 109 OFFCURVE",
"-53 110 CURVE SMOOTH",
"-31 111 OFFCURVE",
"-27 111 OFFCURVE",
"-17 107 CURVE",
"0 102 OFFCURVE",
"19 86 OFFCURVE",
"23 76 CURVE",
"28 65 OFFCURVE",
"25 46 OFFCURVE",
"19 36 CURVE",
"3 12 OFFCURVE",
"-27 -2 OFFCURVE",
"-47 4 CURVE SMOOTH"
);
}
);
width = 0;
}
);
unicode = 0041;
},
{
glyphname = B;
lastChange = "2019-02-24 22:46:33 +0000";
layers = (
{
layerId = "74DDE396-3882-446A-A041-640634B78C39";
paths = (
{
closed = 1;
nodes = (
"-473 283 OFFCURVE",
"-474 285 OFFCURVE",
"-474 288 CURVE",
"-474 291 OFFCURVE",
"-452 352 OFFCURVE",
"-425 423 CURVE",
"-377 554 LINE",
"-384 567 LINE",
"-395 588 OFFCURVE",
"-421 626 OFFCURVE",
"-432 638 CURVE",
"-445 651 OFFCURVE",
"-456 658 OFFCURVE",
"-466 660 CURVE",
"-474 661 OFFCURVE",
"-476 665 OFFCURVE",
"-476 678 CURVE",
"-476 692 OFFCURVE",
"-473 700 OFFCURVE",
"-463 709 CURVE",
"-455 718 OFFCURVE",
"-440 724 OFFCURVE",
"-428 725 CURVE",
"-421 726 LINE",
"-388 685 LINE",
"-358 650 OFFCURVE",
"-353 645 OFFCURVE",
"-348 645 CURVE",
"-343 644 OFFCURVE",
"-342 645 OFFCURVE",
"-337 656 CURVE",
"-334 663 OFFCURVE",
"-325 682 OFFCURVE",
"-317 698 CURVE",
"-302 728 OFFCURVE",
"-289 748 OFFCURVE",
"-282 752 CURVE",
"-280 753 OFFCURVE",
"-273 753 OFFCURVE",
"-265 753 CURVE",
"-251 752 LINE",
"-249 745 LINE",
"-246 738 LINE",
"-268 709 LINE",
"-287 683 OFFCURVE",
"-291 677 OFFCURVE",
"-301 654 CURVE",
"-315 623 OFFCURVE",
"-317 616 OFFCURVE",
"-316 598 CURVE",
"-316 586 OFFCURVE",
"-314 582 OFFCURVE",
"-306 565 CURVE",
"-301 554 OFFCURVE",
"-293 538 OFFCURVE",
"-288 530 CURVE",
"-279 513 OFFCURVE",
"-252 449 OFFCURVE",
"-240 412 CURVE",
"-228 376 OFFCURVE",
"-223 358 OFFCURVE",
"-222 340 CURVE",
"-221 320 OFFCURVE",
"-223 315 OFFCURVE",
"-237 307 CURVE",
"-248 300 OFFCURVE",
"-258 299 OFFCURVE",
"-261 304 CURVE",
"-262 306 OFFCURVE",
"-274 336 OFFCURVE",
"-287 371 CURVE",
"-307 423 OFFCURVE",
"-315 441 OFFCURVE",
"-332 475 CURVE",
"-344 497 OFFCURVE",
"-354 516 OFFCURVE",
"-355 516 CURVE",
"-355 516 OFFCURVE",
"-374 465 OFFCURVE",
"-395 402 CURVE",
"-434 287 LINE",
"-446 286 LINE",
"-453 286 OFFCURVE",
"-461 284 OFFCURVE",
"-464 283 CURVE",
"-470 281 OFFCURVE",
"-471 280 OFFCURVE",
"-473 282 CURVE"
);
},
{
closed = 1;
nodes = (
"-469 771 OFFCURVE",
"-476 775 OFFCURVE",
"-479 778 CURVE",
"-484 783 LINE",
"-480 839 LINE",
"-477 870 OFFCURVE",
"-475 897 OFFCURVE",
"-475 899 CURVE",
"-475 902 OFFCURVE",
"-478 902 OFFCURVE",
"-519 902 CURVE",
"-544 902 OFFCURVE",
"-571 901 OFFCURVE",
"-580 900 CURVE",
"-629 895 OFFCURVE",
"-641 896 OFFCURVE",
"-650 905 CURVE",
"-654 909 OFFCURVE",
"-655 910 OFFCURVE",
"-654 921 CURVE",
"-652 934 OFFCURVE",
"-649 942 OFFCURVE",
"-641 947 CURVE",
"-637 951 OFFCURVE",
"-634 951 OFFCURVE",
"-621 950 CURVE",
"-592 949 OFFCURVE",
"-500 949 OFFCURVE",
"-444 951 CURVE",
"-388 953 LINE",
"-385 948 LINE",
"-380 942 OFFCURVE",
"-381 930 OFFCURVE",
"-388 917 CURVE",
"-395 900 OFFCURVE",
"-400 877 OFFCURVE",
"-402 841 CURVE",
"-404 797 OFFCURVE",
"-409 784 OFFCURVE",
"-429 770 CURVE",
"-440 763 OFFCURVE",
"-446 763 OFFCURVE",
"-462 769 CURVE"
);
},
{
closed = 1;
nodes = (
"-300 763 OFFCURVE",
"-306 763 OFFCURVE",
"-317 770 CURVE",
"-337 784 OFFCURVE",
"-342 797 OFFCURVE",
"-344 841 CURVE",
"-346 877 OFFCURVE",
"-351 900 OFFCURVE",
"-358 917 CURVE",
"-365 930 OFFCURVE",
"-366 942 OFFCURVE",
"-361 948 CURVE",
"-358 953 LINE",
"-302 951 LINE",
"-246 949 OFFCURVE",
"-154 949 OFFCURVE",
"-125 950 CURVE",
"-112 951 OFFCURVE",
"-109 951 OFFCURVE",
"-105 947 CURVE",
"-97 942 OFFCURVE",
"-94 934 OFFCURVE",
"-92 921 CURVE",
"-91 910 OFFCURVE",
"-92 909 OFFCURVE",
"-96 905 CURVE",
"-105 896 OFFCURVE",
"-117 895 OFFCURVE",
"-166 900 CURVE",
"-175 901 OFFCURVE",
"-202 902 OFFCURVE",
"-227 902 CURVE",
"-268 902 OFFCURVE",
"-271 902 OFFCURVE",
"-271 899 CURVE",
"-271 897 OFFCURVE",
"-269 870 OFFCURVE",
"-266 839 CURVE",
"-262 783 LINE",
"-267 778 LINE",
"-270 775 OFFCURVE",
"-277 771 OFFCURVE",
"-284 769 CURVE"
);
}
);
width = 0;
},
{
layerId = "14C6E355-B074-4D1E-9097-146622FBF431";
paths = (
{
closed = 1;
nodes = (
"-473 283 OFFCURVE",
"-474 285 OFFCURVE",
"-474 288 CURVE",
"-474 291 OFFCURVE",
"-452 352 OFFCURVE",
"-425 423 CURVE",
"-377 554 LINE",
"-384 567 LINE",
"-395 588 OFFCURVE",
"-421 626 OFFCURVE",
"-432 638 CURVE",
"-445 651 OFFCURVE",
"-456 658 OFFCURVE",
"-466 660 CURVE",
"-474 661 OFFCURVE",
"-476 665 OFFCURVE",
"-476 678 CURVE",
"-476 692 OFFCURVE",
"-473 700 OFFCURVE",
"-463 709 CURVE",
"-455 718 OFFCURVE",
"-440 724 OFFCURVE",
"-428 725 CURVE",
"-421 726 LINE",
"-388 685 LINE",
"-358 650 OFFCURVE",
"-353 645 OFFCURVE",
"-348 645 CURVE",
"-343 644 OFFCURVE",
"-342 645 OFFCURVE",
"-337 656 CURVE",
"-334 663 OFFCURVE",
"-325 682 OFFCURVE",
"-317 698 CURVE",
"-302 728 OFFCURVE",
"-289 748 OFFCURVE",
"-282 752 CURVE",
"-280 753 OFFCURVE",
"-273 753 OFFCURVE",
"-265 753 CURVE",
"-251 752 LINE",
"-249 745 LINE",
"-246 738 LINE",
"-268 709 LINE",
"-287 683 OFFCURVE",
"-291 677 OFFCURVE",
"-301 654 CURVE",
"-315 623 OFFCURVE",
"-317 616 OFFCURVE",
"-316 598 CURVE",
"-316 586 OFFCURVE",
"-314 582 OFFCURVE",
"-306 565 CURVE",
"-301 554 OFFCURVE",
"-293 538 OFFCURVE",
"-288 530 CURVE",
"-279 513 OFFCURVE",
"-252 449 OFFCURVE",
"-240 412 CURVE",
"-228 376 OFFCURVE",
"-223 358 OFFCURVE",
"-222 340 CURVE",
"-221 320 OFFCURVE",
"-223 315 OFFCURVE",
"-237 307 CURVE",
"-248 300 OFFCURVE",
"-258 299 OFFCURVE",
"-261 304 CURVE",
"-262 306 OFFCURVE",
"-274 336 OFFCURVE",
"-287 371 CURVE",
"-307 423 OFFCURVE",
"-315 441 OFFCURVE",
"-332 475 CURVE",
"-344 497 OFFCURVE",
"-354 516 OFFCURVE",
"-355 516 CURVE",
"-355 516 OFFCURVE",
"-374 465 OFFCURVE",
"-395 402 CURVE",
"-434 287 LINE",
"-446 286 LINE",
"-453 286 OFFCURVE",
"-461 284 OFFCURVE",
"-464 283 CURVE",
"-470 281 OFFCURVE",
"-471 280 OFFCURVE",
"-473 282 CURVE"
);
},
{
closed = 1;
nodes = (
"-469 771 OFFCURVE",
"-476 775 OFFCURVE",
"-479 778 CURVE",
"-484 783 LINE",
"-480 839 LINE",
"-477 870 OFFCURVE",
"-475 897 OFFCURVE",
"-475 899 CURVE",
"-475 902 OFFCURVE",
"-478 902 OFFCURVE",
"-519 902 CURVE",
"-544 902 OFFCURVE",
"-571 901 OFFCURVE",
"-580 900 CURVE",
"-629 895 OFFCURVE",
"-641 896 OFFCURVE",
"-650 905 CURVE",
"-654 909 OFFCURVE",
"-655 910 OFFCURVE",
"-654 921 CURVE",
"-652 934 OFFCURVE",
"-649 942 OFFCURVE",
"-641 947 CURVE",
"-637 951 OFFCURVE",
"-634 951 OFFCURVE",
"-621 950 CURVE",
"-592 949 OFFCURVE",
"-500 949 OFFCURVE",
"-444 951 CURVE",
"-388 953 LINE",
"-385 948 LINE",
"-380 942 OFFCURVE",
"-381 930 OFFCURVE",
"-388 917 CURVE",
"-395 900 OFFCURVE",
"-400 877 OFFCURVE",
"-402 841 CURVE",
"-404 797 OFFCURVE",
"-409 784 OFFCURVE",
"-429 770 CURVE",
"-440 763 OFFCURVE",
"-446 763 OFFCURVE",
"-462 769 CURVE"
);
},
{
closed = 1;
nodes = (
"-300 763 OFFCURVE",
"-306 763 OFFCURVE",
"-317 770 CURVE",
"-337 784 OFFCURVE",
"-342 797 OFFCURVE",
"-344 841 CURVE",
"-346 877 OFFCURVE",
"-351 900 OFFCURVE",
"-358 917 CURVE",
"-365 930 OFFCURVE",
"-366 942 OFFCURVE",
"-361 948 CURVE",
"-358 953 LINE",
"-302 951 LINE",
"-246 949 OFFCURVE",
"-154 949 OFFCURVE",
"-125 950 CURVE",
"-112 951 OFFCURVE",
"-109 951 OFFCURVE",
"-105 947 CURVE",
"-97 942 OFFCURVE",
"-94 934 OFFCURVE",
"-92 921 CURVE",
"-91 910 OFFCURVE",
"-92 909 OFFCURVE",
"-96 905 CURVE",
"-105 896 OFFCURVE",
"-117 895 OFFCURVE",
"-166 900 CURVE",
"-175 901 OFFCURVE",
"-202 902 OFFCURVE",
"-227 902 CURVE",
"-268 902 OFFCURVE",
"-271 902 OFFCURVE",
"-271 899 CURVE",
"-271 897 OFFCURVE",
"-269 870 OFFCURVE",
"-266 839 CURVE",
"-262 783 LINE",
"-267 778 LINE",
"-270 775 OFFCURVE",
"-277 771 OFFCURVE",
"-284 769 CURVE"
);
}
);
width = 0;
}
);
unicode = 0042;
},
{
glyphname = C;
lastChange = "2019-02-24 22:46:33 +0000";
layers = (
{
layerId = "74DDE396-3882-446A-A041-640634B78C39";
paths = (
{
closed = 1;
nodes = (
"-473 284 OFFCURVE",
"-474 286 OFFCURVE",
"-474 289 CURVE",
"-474 292 OFFCURVE",
"-452 353 OFFCURVE",
"-425 424 CURVE",
"-377 555 LINE",
"-384 568 LINE",
"-395 589 OFFCURVE",
"-421 627 OFFCURVE",
"-432 639 CURVE",
"-445 652 OFFCURVE",
"-456 659 OFFCURVE",
"-466 661 CURVE",
"-474 662 OFFCURVE",
"-476 666 OFFCURVE",
"-476 679 CURVE",
"-476 693 OFFCURVE",
"-473 701 OFFCURVE",
"-463 710 CURVE",
"-455 719 OFFCURVE",
"-440 725 OFFCURVE",
"-428 726 CURVE",
"-421 727 LINE",
"-388 686 LINE",
"-358 651 OFFCURVE",
"-353 646 OFFCURVE",
"-348 646 CURVE",
"-343 645 OFFCURVE",
"-342 646 OFFCURVE",
"-337 657 CURVE",
"-334 664 OFFCURVE",
"-325 683 OFFCURVE",
"-317 699 CURVE",
"-302 729 OFFCURVE",
"-289 749 OFFCURVE",
"-282 753 CURVE",
"-280 754 OFFCURVE",
"-273 754 OFFCURVE",
"-265 754 CURVE",
"-251 753 LINE",
"-249 746 LINE",
"-246 739 LINE",
"-268 710 LINE",
"-287 684 OFFCURVE",
"-291 678 OFFCURVE",
"-301 655 CURVE",
"-315 624 OFFCURVE",
"-317 617 OFFCURVE",
"-316 599 CURVE",
"-316 587 OFFCURVE",
"-314 583 OFFCURVE",
"-306 566 CURVE",
"-301 555 OFFCURVE",
"-293 539 OFFCURVE",
"-288 531 CURVE",
"-279 514 OFFCURVE",
"-252 450 OFFCURVE",
"-240 413 CURVE",
"-228 377 OFFCURVE",
"-223 359 OFFCURVE",
"-222 341 CURVE",
"-221 321 OFFCURVE",
"-223 316 OFFCURVE",
"-237 308 CURVE",
"-248 301 OFFCURVE",
"-258 300 OFFCURVE",
"-261 305 CURVE",
"-262 307 OFFCURVE",
"-274 337 OFFCURVE",
"-287 372 CURVE",
"-307 424 OFFCURVE",
"-315 442 OFFCURVE",
"-332 476 CURVE",
"-344 498 OFFCURVE",
"-354 517 OFFCURVE",
"-355 517 CURVE",
"-355 517 OFFCURVE",
"-374 466 OFFCURVE",
"-395 403 CURVE",
"-434 288 LINE",
"-446 287 LINE",
"-453 287 OFFCURVE",
"-461 285 OFFCURVE",
"-464 284 CURVE",
"-470 282 OFFCURVE",
"-471 281 OFFCURVE",
"-473 283 CURVE"
);
},
{
closed = 1;
nodes = (
"-303 950 OFFCURVE",
"-304 951 OFFCURVE",
"-307 954 CURVE SMOOTH",
"-316 963 OFFCURVE",
"-328 964 OFFCURVE",
"-377 959 CURVE SMOOTH",
"-386 958 OFFCURVE",
"-413 957 OFFCURVE",
"-438 957 CURVE SMOOTH",
"-479 957 OFFCURVE",
"-482 957 OFFCURVE",
"-482 960 CURVE SMOOTH",
"-482 962 OFFCURVE",
"-479 989 OFFCURVE",
"-477 1020 CURVE SMOOTH",
"-473 1076 LINE",
"-478 1081 LINE SMOOTH",
"-481 1084 OFFCURVE",
"-488 1088 OFFCURVE",
"-495 1090 CURVE",
"-511 1096 OFFCURVE",
"-517 1096 OFFCURVE",
"-528 1089 CURVE",
"-548 1075 OFFCURVE",
"-553 1062 OFFCURVE",
"-555 1018 CURVE SMOOTH",
"-557 982 OFFCURVE",
"-562 959 OFFCURVE",
"-569 942 CURVE",
"-575 932 OFFCURVE",
"-576 922 OFFCURVE",
"-574 916 CURVE",
"-574 910 OFFCURVE",
"-573 909 OFFCURVE",
"-570 906 CURVE SMOOTH",
"-561 897 OFFCURVE",
"-549 896 OFFCURVE",
"-500 901 CURVE SMOOTH",
"-491 902 OFFCURVE",
"-464 903 OFFCURVE",
"-439 903 CURVE SMOOTH",
"-398 903 OFFCURVE",
"-395 903 OFFCURVE",
"-395 900 CURVE SMOOTH",
"-395 898 OFFCURVE",
"-398 871 OFFCURVE",
"-400 840 CURVE SMOOTH",
"-404 784 LINE",
"-399 779 LINE SMOOTH",
"-396 776 OFFCURVE",
"-389 772 OFFCURVE",
"-382 770 CURVE",
"-366 764 OFFCURVE",
"-360 764 OFFCURVE",
"-349 771 CURVE",
"-329 785 OFFCURVE",
"-324 798 OFFCURVE",
"-322 842 CURVE SMOOTH",
"-320 878 OFFCURVE",
"-315 901 OFFCURVE",
"-308 918 CURVE",
"-302 928 OFFCURVE",
"-301 938 OFFCURVE",
"-303 944 CURVE"
);
}
);
width = 0;
},
{
layerId = "14C6E355-B074-4D1E-9097-146622FBF431";
paths = (
{
closed = 1;
nodes = (
"-473 284 OFFCURVE",
"-474 286 OFFCURVE",
"-474 289 CURVE",
"-474 292 OFFCURVE",
"-452 353 OFFCURVE",
"-425 424 CURVE",
"-377 555 LINE",
"-384 568 LINE",
"-395 589 OFFCURVE",
"-421 627 OFFCURVE",
"-432 639 CURVE",
"-445 652 OFFCURVE",
"-456 659 OFFCURVE",
"-466 661 CURVE",
"-474 662 OFFCURVE",
"-476 666 OFFCURVE",
"-476 679 CURVE",
"-476 693 OFFCURVE",
"-473 701 OFFCURVE",
"-463 710 CURVE",
"-455 719 OFFCURVE",
"-440 725 OFFCURVE",
"-428 726 CURVE",
"-421 727 LINE",
"-388 686 LINE",
"-358 651 OFFCURVE",
"-353 646 OFFCURVE",
"-348 646 CURVE",
"-343 645 OFFCURVE",
"-342 646 OFFCURVE",
"-337 657 CURVE",
"-334 664 OFFCURVE",
"-325 683 OFFCURVE",
"-317 699 CURVE",
"-302 729 OFFCURVE",
"-289 749 OFFCURVE",
"-282 753 CURVE",
"-280 754 OFFCURVE",
"-273 754 OFFCURVE",
"-265 754 CURVE",
"-251 753 LINE",
"-249 746 LINE",
"-246 739 LINE",
"-268 710 LINE",
"-287 684 OFFCURVE",
"-291 678 OFFCURVE",
"-301 655 CURVE",
"-315 624 OFFCURVE",
"-317 617 OFFCURVE",
"-316 599 CURVE",
"-316 587 OFFCURVE",
"-314 583 OFFCURVE",
"-306 566 CURVE",
"-301 555 OFFCURVE",
"-293 539 OFFCURVE",
"-288 531 CURVE",
"-279 514 OFFCURVE",
"-252 450 OFFCURVE",
"-240 413 CURVE",
"-228 377 OFFCURVE",
"-223 359 OFFCURVE",
"-222 341 CURVE",
"-221 321 OFFCURVE",
"-223 316 OFFCURVE",
"-237 308 CURVE",
"-248 301 OFFCURVE",
"-258 300 OFFCURVE",
"-261 305 CURVE",
"-262 307 OFFCURVE",
"-274 337 OFFCURVE",
"-287 372 CURVE",
"-307 424 OFFCURVE",
"-315 442 OFFCURVE",
"-332 476 CURVE",
"-344 498 OFFCURVE",
"-354 517 OFFCURVE",
"-355 517 CURVE",
"-355 517 OFFCURVE",
"-374 466 OFFCURVE",
"-395 403 CURVE",
"-434 288 LINE",
"-446 287 LINE",
"-453 287 OFFCURVE",
"-461 285 OFFCURVE",
"-464 284 CURVE",
"-470 282 OFFCURVE",
"-471 281 OFFCURVE",
"-473 283 CURVE"
);
},
{
closed = 1;
nodes = (
"-303 950 OFFCURVE",
"-304 951 OFFCURVE",
"-307 954 CURVE SMOOTH",
"-316 963 OFFCURVE",
"-328 964 OFFCURVE",
"-377 959 CURVE SMOOTH",
"-386 958 OFFCURVE",
"-413 957 OFFCURVE",
"-438 957 CURVE SMOOTH",
"-479 957 OFFCURVE",
"-482 957 OFFCURVE",
"-482 960 CURVE SMOOTH",
"-482 962 OFFCURVE",
"-479 989 OFFCURVE",
"-477 1020 CURVE SMOOTH",
"-473 1076 LINE",
"-478 1081 LINE SMOOTH",
"-481 1084 OFFCURVE",
"-488 1088 OFFCURVE",
"-495 1090 CURVE",
"-511 1096 OFFCURVE",
"-517 1096 OFFCURVE",
"-528 1089 CURVE",
"-548 1075 OFFCURVE",
"-553 1062 OFFCURVE",
"-555 1018 CURVE SMOOTH",
"-557 982 OFFCURVE",
"-562 959 OFFCURVE",
"-569 942 CURVE",
"-575 932 OFFCURVE",
"-576 922 OFFCURVE",
"-574 916 CURVE",
"-574 910 OFFCURVE",
"-573 909 OFFCURVE",
"-570 906 CURVE SMOOTH",
"-561 897 OFFCURVE",
"-549 896 OFFCURVE",
"-500 901 CURVE SMOOTH",
"-491 902 OFFCURVE",
"-464 903 OFFCURVE",
"-439 903 CURVE SMOOTH",
"-398 903 OFFCURVE",
"-395 903 OFFCURVE",
"-395 900 CURVE SMOOTH",
"-395 898 OFFCURVE",
"-398 871 OFFCURVE",
"-400 840 CURVE SMOOTH",
"-404 784 LINE",
"-399 779 LINE SMOOTH",
"-396 776 OFFCURVE",
"-389 772 OFFCURVE",
"-382 770 CURVE",
"-366 764 OFFCURVE",
"-360 764 OFFCURVE",
"-349 771 CURVE",
"-329 785 OFFCURVE",
"-324 798 OFFCURVE",
"-322 842 CURVE SMOOTH",
"-320 878 OFFCURVE",
"-315 901 OFFCURVE",
"-308 918 CURVE",
"-302 928 OFFCURVE",
"-301 938 OFFCURVE",
"-303 944 CURVE"
);
}
);
width = 0;
}
);
unicode = 0043;
},
{
glyphname = D;
lastChange = "2019-02-24 22:46:33 +0000";
layers = (
{
layerId = "74DDE396-3882-446A-A041-640634B78C39";
paths = (
{
closed = 1;
nodes = (
"-152 23 OFFCURVE",
"-160 24 OFFCURVE",
"-161 25 CURVE",
"-164 27 OFFCURVE",
"-163 34 OFFCURVE",
"-159 37 CURVE",
"-157 38 OFFCURVE",
"-155 42 OFFCURVE",
"-154 47 CURVE",
"-152 63 OFFCURVE",
"-168 84 OFFCURVE",
"-202 108 CURVE",
"-221 121 OFFCURVE",
"-222 125 OFFCURVE",
"-207 125 CURVE",
"-187 125 OFFCURVE",
"-159 112 OFFCURVE",
"-129 91 CURVE",
"-105 74 OFFCURVE",
"-93 42 OFFCURVE",
"-104 25 CURVE",
"-107 21 OFFCURVE",
"-108 20 OFFCURVE",
"-118 21 CURVE",
"-124 21 OFFCURVE",
"-136 21 OFFCURVE",
"-144 22 CURVE"
);
},
{
closed = 1;
nodes = (
"-246 37 OFFCURVE",
"-252 39 OFFCURVE",
"-255 42 CURVE",
"-257 45 OFFCURVE",
"-257 47 OFFCURVE",
"-252 54 CURVE",
"-245 65 OFFCURVE",
"-246 68 OFFCURVE",
"-257 80 CURVE",
"-267 91 OFFCURVE",
"-277 97 OFFCURVE",
"-297 108 CURVE",
"-305 113 OFFCURVE",
"-312 117 OFFCURVE",
"-312 118 CURVE",
"-312 120 OFFCURVE",
"-310 122 OFFCURVE",
"-307 124 CURVE",
"-303 126 OFFCURVE",
"-301 126 OFFCURVE",
"-279 120 CURVE",
"-251 112 OFFCURVE",
"-223 100 OFFCURVE",
"-211 89 CURVE",
"-199 78 OFFCURVE",
"-193 66 OFFCURVE",
"-193 52 CURVE",
"-193 36 OFFCURVE",
"-197 33 OFFCURVE",
"-214 33 CURVE",
"-221 33 OFFCURVE",
"-230 34 OFFCURVE",
"-235 35 CURVE"
);
},
{
closed = 1;
nodes = (
"-53 -144 OFFCURVE",
"-61 -140 OFFCURVE",
"-66 -137 CURVE",
"-80 -129 OFFCURVE",
"-80 -124 OFFCURVE",
"-66 -109 CURVE",
"-55 -97 OFFCURVE",
"-47 -85 OFFCURVE",
"-47 -83 CURVE",
"-47 -76 OFFCURVE",
"-103 -89 OFFCURVE",
"-199 -117 CURVE",
"-288 -143 OFFCURVE",
"-285 -142 OFFCURVE",
"-324 -144 CURVE",
"-366 -146 OFFCURVE",
"-382 -142 OFFCURVE",
"-400 -128 CURVE",
"-415 -116 OFFCURVE",
"-420 -109 OFFCURVE",
"-422 -95 CURVE",
"-425 -83 OFFCURVE",
"-425 -80 OFFCURVE",
"-422 -71 CURVE",
"-416 -55 OFFCURVE",
"-411 -46 OFFCURVE",
"-398 -34 CURVE",
"-386 -22 OFFCURVE",
"-369 -15 OFFCURVE",
"-349 -12 CURVE",
"-337 -10 OFFCURVE",
"-335 -10 OFFCURVE",
"-328 -14 CURVE",
"-323 -16 OFFCURVE",
"-317 -20 OFFCURVE",
"-315 -24 CURVE",
"-310 -34 OFFCURVE",
"-312 -38 OFFCURVE",
"-330 -65 CURVE",
"-351 -93 OFFCURVE",
"-350 -95 OFFCURVE",
"-319 -95 CURVE",
"-299 -95 OFFCURVE",
"-293 -95 OFFCURVE",
"-249 -85 CURVE",
"-224 -77 OFFCURVE",
"-184 -67 OFFCURVE",
"-163 -61 CURVE",
"-117 -48 OFFCURVE",
"-87 -41 OFFCURVE",
"-53 -40 CURVE",
"-31 -39 OFFCURVE",
"-27 -39 OFFCURVE",
"-17 -43 CURVE",
"0 -48 OFFCURVE",
"19 -64 OFFCURVE",
"23 -74 CURVE",
"28 -85 OFFCURVE",
"25 -104 OFFCURVE",
"19 -114 CURVE",
"3 -138 OFFCURVE",
"-27 -152 OFFCURVE",
"-47 -146 CURVE"
);
}
);
width = 0;
},
{
layerId = "14C6E355-B074-4D1E-9097-146622FBF431";
paths = (
{
closed = 1;
nodes = (
"-152 23 OFFCURVE",
"-160 24 OFFCURVE",
"-161 25 CURVE",
"-164 27 OFFCURVE",
"-163 34 OFFCURVE",
"-159 37 CURVE",
"-157 38 OFFCURVE",
"-155 42 OFFCURVE",
"-154 47 CURVE",
"-152 63 OFFCURVE",
"-168 84 OFFCURVE",
"-202 108 CURVE",
"-221 121 OFFCURVE",
"-222 125 OFFCURVE",
"-207 125 CURVE",
"-187 125 OFFCURVE",
"-159 112 OFFCURVE",
"-129 91 CURVE",
"-105 74 OFFCURVE",
"-93 42 OFFCURVE",
"-104 25 CURVE",
"-107 21 OFFCURVE",
"-108 20 OFFCURVE",
"-118 21 CURVE",
"-124 21 OFFCURVE",
"-136 21 OFFCURVE",
"-144 22 CURVE"
);
},
{
closed = 1;
nodes = (
"-246 37 OFFCURVE",
"-252 39 OFFCURVE",
"-255 42 CURVE",
"-257 45 OFFCURVE",
"-257 47 OFFCURVE",
"-252 54 CURVE",
"-245 65 OFFCURVE",
"-246 68 OFFCURVE",
"-257 80 CURVE",
"-267 91 OFFCURVE",
"-277 97 OFFCURVE",
"-297 108 CURVE",
"-305 113 OFFCURVE",
"-312 117 OFFCURVE",
"-312 118 CURVE",
"-312 120 OFFCURVE",
"-310 122 OFFCURVE",
"-307 124 CURVE",
"-303 126 OFFCURVE",
"-301 126 OFFCURVE",
"-279 120 CURVE",
"-251 112 OFFCURVE",
"-223 100 OFFCURVE",
"-211 89 CURVE",
"-199 78 OFFCURVE",
"-193 66 OFFCURVE",
"-193 52 CURVE",
"-193 36 OFFCURVE",
"-197 33 OFFCURVE",
"-214 33 CURVE",
"-221 33 OFFCURVE",
"-230 34 OFFCURVE",
"-235 35 CURVE"
);
},
{
closed = 1;
nodes = (
"-53 -144 OFFCURVE",
"-61 -140 OFFCURVE",
"-66 -137 CURVE",
"-80 -129 OFFCURVE",
"-80 -124 OFFCURVE",
"-66 -109 CURVE",
"-55 -97 OFFCURVE",
"-47 -85 OFFCURVE",
"-47 -83 CURVE",
"-47 -76 OFFCURVE",
"-103 -89 OFFCURVE",
"-199 -117 CURVE",
"-288 -143 OFFCURVE",
"-285 -142 OFFCURVE",
"-324 -144 CURVE",
"-366 -146 OFFCURVE",
"-382 -142 OFFCURVE",
"-400 -128 CURVE",
"-415 -116 OFFCURVE",
"-420 -109 OFFCURVE",
"-422 -95 CURVE",
"-425 -83 OFFCURVE",
"-425 -80 OFFCURVE",
"-422 -71 CURVE",
"-416 -55 OFFCURVE",
"-411 -46 OFFCURVE",
"-398 -34 CURVE",
"-386 -22 OFFCURVE",
"-369 -15 OFFCURVE",
"-349 -12 CURVE",
"-337 -10 OFFCURVE",
"-335 -10 OFFCURVE",
"-328 -14 CURVE",
"-323 -16 OFFCURVE",
"-317 -20 OFFCURVE",
"-315 -24 CURVE",
"-310 -34 OFFCURVE",
"-312 -38 OFFCURVE",
"-330 -65 CURVE",
"-351 -93 OFFCURVE",
"-350 -95 OFFCURVE",
"-319 -95 CURVE",
"-299 -95 OFFCURVE",
"-293 -95 OFFCURVE",
"-249 -85 CURVE",
"-224 -77 OFFCURVE",
"-184 -67 OFFCURVE",
"-163 -61 CURVE",
"-117 -48 OFFCURVE",
"-87 -41 OFFCURVE",
"-53 -40 CURVE",
"-31 -39 OFFCURVE",
"-27 -39 OFFCURVE",
"-17 -43 CURVE",
"0 -48 OFFCURVE",
"19 -64 OFFCURVE",
"23 -74 CURVE",
"28 -85 OFFCURVE",
"25 -104 OFFCURVE",
"19 -114 CURVE",
"3 -138 OFFCURVE",
"-27 -152 OFFCURVE",
"-47 -146 CURVE"
);
}
);
width = 0;
}
);
unicode = 0044;
},
{
glyphname = F;
lastChange = "2019-02-24 22:46:33 +0000";
layers = (
{
layerId = "74DDE396-3882-446A-A041-640634B78C39";
paths = (
{
closed = 1;
nodes = (
"-385 -62 OFFCURVE",
"-389 -55 OFFCURVE",
"-389 -49 CURVE",
"-389 -42 OFFCURVE",
"-366 -19 OFFCURVE",
"-336 5 CURVE",
"-309 26 LINE",
"-315 37 LINE",
"-321 50 OFFCURVE",
"-324 70 OFFCURVE",
"-320 82 CURVE",
"-312 103 OFFCURVE",
"-290 123 OFFCURVE",
"-262 132 CURVE",
"-245 138 OFFCURVE",
"-202 141 OFFCURVE",
"-180 138 CURVE",
"-167 137 OFFCURVE",
"-165 138 OFFCURVE",
"-157 143 CURVE",
"-152 147 OFFCURVE",
"-146 152 OFFCURVE",
"-144 156 CURVE",
"-140 162 LINE",
"-161 176 LINE",
"-174 183 OFFCURVE",
"-184 191 OFFCURVE",
"-184 192 CURVE",
"-186 196 OFFCURVE",
"-182 201 OFFCURVE",
"-175 207 CURVE",
"-170 211 OFFCURVE",
"-170 211 OFFCURVE",
"-159 207 CURVE",
"-152 205 OFFCURVE",
"-142 198 OFFCURVE",
"-135 195 CURVE",
"-129 190 OFFCURVE",
"-121 186 OFFCURVE",
"-120 186 CURVE",
"-119 186 OFFCURVE",
"-111 193 OFFCURVE",
"-102 201 CURVE",
"-81 221 OFFCURVE",
"-74 223 OFFCURVE",
"-61 217 CURVE",
"-34 203 OFFCURVE",
"-35 195 OFFCURVE",
"-69 171 CURVE",
"-82 161 OFFCURVE",
"-85 156 OFFCURVE",
"-76 148 CURVE",
"-46 123 OFFCURVE",
"-40 116 OFFCURVE",
"-46 110 CURVE",
"-51 102 OFFCURVE",
"-60 106 OFFCURVE",
"-81 121 CURVE",
"-92 130 OFFCURVE",
"-102 137 OFFCURVE",
"-104 138 CURVE",
"-106 140 OFFCURVE",
"-127 130 OFFCURVE",
"-131 125 CURVE",
"-134 122 OFFCURVE",
"-131 118 OFFCURVE",
"-125 111 CURVE",
"-120 105 OFFCURVE",
"-114 95 OFFCURVE",
"-110 88 CURVE",
"-105 77 OFFCURVE",
"-104 75 OFFCURVE",
"-106 65 CURVE",
"-114 33 OFFCURVE",
"-156 6 OFFCURVE",
"-209 -2 CURVE",
"-222 -4 OFFCURVE",
"-227 -4 OFFCURVE",
"-245 1 CURVE",
"-256 3 OFFCURVE",
"-267 7 OFFCURVE",
"-271 10 CURVE",
"-276 13 LINE",
"-302 -14 LINE",
"-341 -55 OFFCURVE",
"-364 -78 OFFCURVE",
"-366 -78 CURVE",
"-369 -78 OFFCURVE",
"-372 -74 OFFCURVE",
"-376 -70 CURVE"
);
},
{
closed = 1;
nodes = (
"-184 43 OFFCURVE",
"-174 57 OFFCURVE",
"-174 72 CURVE",
"-174 92 OFFCURVE",
"-187 107 OFFCURVE",
"-211 110 CURVE",
"-221 111 OFFCURVE",
"-224 110 OFFCURVE",
"-236 101 CURVE",
"-256 88 OFFCURVE",
"-260 77 OFFCURVE",
"-254 56 CURVE",
"-245 33 OFFCURVE",
"-224 23 OFFCURVE",
"-205 33 CURVE"
);
}
);
width = 0;
},
{
layerId = "14C6E355-B074-4D1E-9097-146622FBF431";
paths = (
{
closed = 1;
nodes = (
"-385 -62 OFFCURVE",
"-389 -55 OFFCURVE",
"-389 -49 CURVE",
"-389 -42 OFFCURVE",
"-366 -19 OFFCURVE",
"-336 5 CURVE",
"-309 26 LINE",
"-315 37 LINE",
"-321 50 OFFCURVE",
"-324 70 OFFCURVE",
"-320 82 CURVE",
"-312 103 OFFCURVE",
"-290 123 OFFCURVE",
"-262 132 CURVE",
"-245 138 OFFCURVE",
"-202 141 OFFCURVE",
"-180 138 CURVE",
"-167 137 OFFCURVE",
"-165 138 OFFCURVE",
"-157 143 CURVE",
"-152 147 OFFCURVE",
"-146 152 OFFCURVE",
"-144 156 CURVE",
"-140 162 LINE",
"-161 176 LINE",
"-174 183 OFFCURVE",
"-184 191 OFFCURVE",
"-184 192 CURVE",
"-186 196 OFFCURVE",
"-182 201 OFFCURVE",
"-175 207 CURVE",
"-170 211 OFFCURVE",
"-170 211 OFFCURVE",
"-159 207 CURVE",
"-152 205 OFFCURVE",
"-142 198 OFFCURVE",
"-135 195 CURVE",
"-129 190 OFFCURVE",
"-121 186 OFFCURVE",
"-120 186 CURVE",
"-119 186 OFFCURVE",
"-111 193 OFFCURVE",
"-102 201 CURVE",
"-81 221 OFFCURVE",
"-74 223 OFFCURVE",
"-61 217 CURVE",
"-34 203 OFFCURVE",
"-35 195 OFFCURVE",
"-69 171 CURVE",
"-82 161 OFFCURVE",
"-85 156 OFFCURVE",
"-76 148 CURVE",
"-46 123 OFFCURVE",
"-40 116 OFFCURVE",
"-46 110 CURVE",
"-51 102 OFFCURVE",
"-60 106 OFFCURVE",
"-81 121 CURVE",
"-92 130 OFFCURVE",
"-102 137 OFFCURVE",
"-104 138 CURVE",
"-106 140 OFFCURVE",
"-127 130 OFFCURVE",
"-131 125 CURVE",
"-134 122 OFFCURVE",
"-131 118 OFFCURVE",
"-125 111 CURVE",
"-120 105 OFFCURVE",
"-114 95 OFFCURVE",
"-110 88 CURVE",
"-105 77 OFFCURVE",
"-104 75 OFFCURVE",
"-106 65 CURVE",
"-114 33 OFFCURVE",
"-156 6 OFFCURVE",
"-209 -2 CURVE",
"-222 -4 OFFCURVE",
"-227 -4 OFFCURVE",
"-245 1 CURVE",
"-256 3 OFFCURVE",
"-267 7 OFFCURVE",
"-271 10 CURVE",
"-276 13 LINE",
"-302 -14 LINE",
"-341 -55 OFFCURVE",
"-364 -78 OFFCURVE",
"-366 -78 CURVE",
"-369 -78 OFFCURVE",
"-372 -74 OFFCURVE",
"-376 -70 CURVE"
);
},
{
closed = 1;
nodes = (
"-184 43 OFFCURVE",
"-174 57 OFFCURVE",
"-174 72 CURVE",
"-174 92 OFFCURVE",
"-187 107 OFFCURVE",
"-211 110 CURVE",
"-221 111 OFFCURVE",
"-224 110 OFFCURVE",
"-236 101 CURVE",
"-256 88 OFFCURVE",
"-260 77 OFFCURVE",
"-254 56 CURVE",
"-245 33 OFFCURVE",
"-224 23 OFFCURVE",
"-205 33 CURVE"
);
}
);
width = 0;
}
);
unicode = 0046;
},
{
glyphname = G;
lastChange = "2019-02-24 22:46:33 +0000";
layers = (
{
layerId = "74DDE396-3882-446A-A041-640634B78C39";
paths = (
{
closed = 1;
nodes = (
"-376 -78 OFFCURVE",
"-388 -69 OFFCURVE",
"-388 -66 CURVE",
"-388 -63 OFFCURVE",
"-378 -53 OFFCURVE",
"-366 -42 CURVE",
"-343 -23 LINE",
"-357 -14 LINE",
"-363 -9 OFFCURVE",
"-375 -4 OFFCURVE",
"-381 -2 CURVE",
"-393 3 OFFCURVE",
"-398 12 OFFCURVE",
"-391 18 CURVE",
"-388 21 OFFCURVE",
"-385 23 OFFCURVE",
"-382 23 CURVE",
"-380 23 OFFCURVE",
"-365 17 OFFCURVE",
"-350 9 CURVE",
"-335 2 OFFCURVE",
"-322 -3 OFFCURVE",
"-321 -3 CURVE",
"-320 -3 OFFCURVE",
"-313 1 OFFCURVE",
"-306 4 CURVE",
"-295 13 LINE",
"-308 28 LINE",
"-332 51 OFFCURVE",
"-336 63 OFFCURVE",
"-327 82 CURVE",
"-322 94 OFFCURVE",
"-302 112 OFFCURVE",
"-283 122 CURVE",
"-263 133 OFFCURVE",
"-231 143 OFFCURVE",
"-212 146 CURVE",
"-197 148 OFFCURVE",
"-165 147 OFFCURVE",
"-160 143 CURVE",
"-158 142 OFFCURVE",
"-146 152 OFFCURVE",
"-127 171 CURVE",
"-92 204 OFFCURVE",
"-63 229 OFFCURVE",
"-57 229 CURVE",
"-52 229 OFFCURVE",
"-31 209 OFFCURVE",
"-28 203 CURVE",
"-27 196 OFFCURVE",
"-36 187 OFFCURVE",
"-76 157 CURVE",
"-95 142 OFFCURVE",
"-112 129 OFFCURVE",
"-113 128 CURVE",
"-115 127 OFFCURVE",
"-110 121 OFFCURVE",
"-103 112 CURVE",
"-95 99 OFFCURVE",
"-92 96 OFFCURVE",
"-92 87 CURVE",
"-92 61 OFFCURVE",
"-107 42 OFFCURVE",
"-136 28 CURVE",
"-171 11 OFFCURVE",
"-197 6 OFFCURVE",
"-243 6 CURVE",
"-258 6 OFFCURVE",
"-258 6 OFFCURVE",
"-271 -6 CURVE",
"-277 -13 OFFCURVE",
"-282 -18 OFFCURVE",
"-282 -19 CURVE",
"-282 -21 OFFCURVE",
"-275 -23 OFFCURVE",
"-265 -27 CURVE",
"-238 -36 OFFCURVE",
"-226 -42 OFFCURVE",
"-225 -47 CURVE",
"-223 -53 OFFCURVE",
"-237 -64 OFFCURVE",
"-246 -64 CURVE",
"-251 -64 OFFCURVE",
"-262 -61 OFFCURVE",
"-272 -56 CURVE",
"-303 -42 OFFCURVE",
"-300 -42 OFFCURVE",
"-315 -58 CURVE",
"-330 -74 OFFCURVE",
"-343 -84 OFFCURVE",
"-351 -84 CURVE",
"-353 -84 OFFCURVE",
"-360 -83 OFFCURVE",
"-365 -81 CURVE"
);
},
{
closed = 1;
nodes = (
"-186 46 OFFCURVE",
"-176 54 OFFCURVE",
"-171 64 CURVE",
"-163 82 OFFCURVE",
"-168 94 OFFCURVE",
"-186 106 CURVE",
"-201 116 OFFCURVE",
"-211 116 OFFCURVE",
"-228 104 CURVE",
"-263 81 OFFCURVE",
"-267 59 OFFCURVE",
"-236 41 CURVE",
"-228 36 OFFCURVE",
"-221 32 OFFCURVE",
"-220 32 CURVE",
"-218 32 OFFCURVE",
"-212 34 OFFCURVE",
"-206 37 CURVE"
);
}
);
width = 0;
},
{
layerId = "14C6E355-B074-4D1E-9097-146622FBF431";
paths = (
{
closed = 1;
nodes = (
"-376 -78 OFFCURVE",
"-388 -69 OFFCURVE",
"-388 -66 CURVE",
"-388 -63 OFFCURVE",
"-378 -53 OFFCURVE",
"-366 -42 CURVE",
"-343 -23 LINE",
"-357 -14 LINE",
"-363 -9 OFFCURVE",
"-375 -4 OFFCURVE",
"-381 -2 CURVE",
"-393 3 OFFCURVE",
"-398 12 OFFCURVE",
"-391 18 CURVE",
"-388 21 OFFCURVE",
"-385 23 OFFCURVE",
"-382 23 CURVE",
"-380 23 OFFCURVE",
"-365 17 OFFCURVE",
"-350 9 CURVE",
"-335 2 OFFCURVE",
"-322 -3 OFFCURVE",
"-321 -3 CURVE",
"-320 -3 OFFCURVE",
"-313 1 OFFCURVE",
"-306 4 CURVE",
"-295 13 LINE",
"-308 28 LINE",
"-332 51 OFFCURVE",
"-336 63 OFFCURVE",
"-327 82 CURVE",
"-322 94 OFFCURVE",
"-302 112 OFFCURVE",
"-283 122 CURVE",
"-263 133 OFFCURVE",
"-231 143 OFFCURVE",
"-212 146 CURVE",
"-197 148 OFFCURVE",
"-165 147 OFFCURVE",
"-160 143 CURVE",
"-158 142 OFFCURVE",
"-146 152 OFFCURVE",
"-127 171 CURVE",
"-92 204 OFFCURVE",
"-63 229 OFFCURVE",
"-57 229 CURVE",
"-52 229 OFFCURVE",
"-31 209 OFFCURVE",
"-28 203 CURVE",
"-27 196 OFFCURVE",
"-36 187 OFFCURVE",
"-76 157 CURVE",
"-95 142 OFFCURVE",
"-112 129 OFFCURVE",
"-113 128 CURVE",
"-115 127 OFFCURVE",
"-110 121 OFFCURVE",
"-103 112 CURVE",
"-95 99 OFFCURVE",
"-92 96 OFFCURVE",
"-92 87 CURVE",
"-92 61 OFFCURVE",
"-107 42 OFFCURVE",
"-136 28 CURVE",
"-171 11 OFFCURVE",
"-197 6 OFFCURVE",
"-243 6 CURVE",
"-258 6 OFFCURVE",
"-258 6 OFFCURVE",
"-271 -6 CURVE",
"-277 -13 OFFCURVE",
"-282 -18 OFFCURVE",
"-282 -19 CURVE",
"-282 -21 OFFCURVE",
"-275 -23 OFFCURVE",
"-265 -27 CURVE",
"-238 -36 OFFCURVE",
"-226 -42 OFFCURVE",
"-225 -47 CURVE",
"-223 -53 OFFCURVE",
"-237 -64 OFFCURVE",
"-246 -64 CURVE",
"-251 -64 OFFCURVE",
"-262 -61 OFFCURVE",
"-272 -56 CURVE",
"-303 -42 OFFCURVE",
"-300 -42 OFFCURVE",
"-315 -58 CURVE",
"-330 -74 OFFCURVE",
"-343 -84 OFFCURVE",
"-351 -84 CURVE",
"-353 -84 OFFCURVE",
"-360 -83 OFFCURVE",
"-365 -81 CURVE"
);
},
{
closed = 1;
nodes = (
"-186 46 OFFCURVE",
"-176 54 OFFCURVE",
"-171 64 CURVE",
"-163 82 OFFCURVE",
"-168 94 OFFCURVE",
"-186 106 CURVE",
"-201 116 OFFCURVE",
"-211 116 OFFCURVE",
"-228 104 CURVE",
"-263 81 OFFCURVE",
"-267 59 OFFCURVE",
"-236 41 CURVE",
"-228 36 OFFCURVE",
"-221 32 OFFCURVE",
"-220 32 CURVE",
"-218 32 OFFCURVE",
"-212 34 OFFCURVE",
"-206 37 CURVE"
);
}
);
width = 0;
}
);
unicode = 0047;
},
{
glyphname = H;
lastChange = "2019-02-24 22:46:33 +0000";
layers = (
{
layerId = "74DDE396-3882-446A-A041-640634B78C39";
paths = (
{
closed = 1;
nodes = (
"-382 -67 OFFCURVE",
"-413 -31 OFFCURVE",
"-413 -13 CURVE",
"-413 7 OFFCURVE",
"-400 27 OFFCURVE",
"-387 27 CURVE",
"-379 27 OFFCURVE",
"-367 14 OFFCURVE",
"-358 -4 CURVE",
"-344 -32 OFFCURVE",
"-330 -31 OFFCURVE",
"-299 3 CURVE",
"-285 18 OFFCURVE",
"-273 33 OFFCURVE",
"-273 36 CURVE",
"-273 37 OFFCURVE",
"-275 43 OFFCURVE",
"-279 49 CURVE",
"-292 72 OFFCURVE",
"-297 103 OFFCURVE",
"-290 124 CURVE",
"-287 134 OFFCURVE",
"-273 151 OFFCURVE",
"-259 158 CURVE",
"-249 162 OFFCURVE",
"-245 163 OFFCURVE",
"-225 163 CURVE",
"-199 163 OFFCURVE",
"-189 159 OFFCURVE",
"-174 146 CURVE",
"-164 137 LINE",
"-122 181 LINE",
"-99 204 OFFCURVE",
"-79 223 OFFCURVE",
"-78 223 CURVE",
"-74 223 OFFCURVE",
"-59 209 OFFCURVE",
"-57 202 CURVE",
"-50 187 OFFCURVE",
"-52 181 OFFCURVE",
"-67 167 CURVE",
"-73 161 OFFCURVE",
"-92 146 OFFCURVE",
"-107 134 CURVE",
"-123 122 OFFCURVE",
"-137 112 OFFCURVE",
"-138 109 CURVE",
"-139 107 OFFCURVE",
"-137 102 OFFCURVE",
"-129 87 CURVE",
"-120 68 OFFCURVE",
"-119 66 OFFCURVE",
"-119 47 CURVE",
"-118 29 OFFCURVE",
"-118 26 OFFCURVE",
"-123 17 CURVE",
"-132 -1 OFFCURVE",
"-157 -16 OFFCURVE",
"-179 -16 CURVE",
"-193 -16 OFFCURVE",
"-222 -9 OFFCURVE",
"-235 -4 CURVE",
"-247 1 LINE",
"-250 -4 LINE",
"-267 -31 OFFCURVE",
"-294 -56 OFFCURVE",
"-320 -69 CURVE",
"-339 -78 OFFCURVE",
"-348 -79 OFFCURVE",
"-360 -74 CURVE"
);
},
{
closed = 1;
nodes = (
"-183 52 OFFCURVE",
"-177 67 OFFCURVE",
"-177 86 CURVE",
"-177 103 OFFCURVE",
"-179 106 OFFCURVE",
"-199 106 CURVE",
"-215 106 OFFCURVE",
"-222 102 OFFCURVE",
"-229 87 CURVE",
"-237 69 OFFCURVE",
"-237 56 OFFCURVE",
"-228 47 CURVE",
"-222 41 OFFCURVE",
"-220 39 OFFCURVE",
"-210 41 CURVE",
"-204 42 OFFCURVE",
"-197 44 OFFCURVE",
"-193 47 CURVE"
);
}
);
width = 0;
},
{
layerId = "14C6E355-B074-4D1E-9097-146622FBF431";
paths = (
{
closed = 1;
nodes = (
"-382 -67 OFFCURVE",
"-413 -31 OFFCURVE",
"-413 -13 CURVE",
"-413 7 OFFCURVE",
"-400 27 OFFCURVE",
"-387 27 CURVE",
"-379 27 OFFCURVE",
"-367 14 OFFCURVE",
"-358 -4 CURVE",
"-344 -32 OFFCURVE",
"-330 -31 OFFCURVE",
"-299 3 CURVE",
"-285 18 OFFCURVE",
"-273 33 OFFCURVE",
"-273 36 CURVE",
"-273 37 OFFCURVE",
"-275 43 OFFCURVE",
"-279 49 CURVE",
"-292 72 OFFCURVE",
"-297 103 OFFCURVE",
"-290 124 CURVE",
"-287 134 OFFCURVE",
"-273 151 OFFCURVE",
"-259 158 CURVE",
"-249 162 OFFCURVE",
"-245 163 OFFCURVE",
"-225 163 CURVE",
"-199 163 OFFCURVE",
"-189 159 OFFCURVE",
"-174 146 CURVE",
"-164 137 LINE",
"-122 181 LINE",
"-99 204 OFFCURVE",
"-79 223 OFFCURVE",
"-78 223 CURVE",
"-74 223 OFFCURVE",
"-59 209 OFFCURVE",
"-57 202 CURVE",
"-50 187 OFFCURVE",
"-52 181 OFFCURVE",
"-67 167 CURVE",
"-73 161 OFFCURVE",
"-92 146 OFFCURVE",
"-107 134 CURVE",
"-123 122 OFFCURVE",
"-137 112 OFFCURVE",
"-138 109 CURVE",
"-139 107 OFFCURVE",
"-137 102 OFFCURVE",
"-129 87 CURVE",
"-120 68 OFFCURVE",
"-119 66 OFFCURVE",
"-119 47 CURVE",
"-118 29 OFFCURVE",
"-118 26 OFFCURVE",
"-123 17 CURVE",
"-132 -1 OFFCURVE",
"-157 -16 OFFCURVE",
"-179 -16 CURVE",
"-193 -16 OFFCURVE",
"-222 -9 OFFCURVE",
"-235 -4 CURVE",
"-247 1 LINE",
"-250 -4 LINE",
"-267 -31 OFFCURVE",
"-294 -56 OFFCURVE",
"-320 -69 CURVE",
"-339 -78 OFFCURVE",
"-348 -79 OFFCURVE",
"-360 -74 CURVE"
);
},
{
closed = 1;
nodes = (
"-183 52 OFFCURVE",
"-177 67 OFFCURVE",
"-177 86 CURVE",
"-177 103 OFFCURVE",
"-179 106 OFFCURVE",
"-199 106 CURVE",
"-215 106 OFFCURVE",
"-222 102 OFFCURVE",
"-229 87 CURVE",
"-237 69 OFFCURVE",
"-237 56 OFFCURVE",
"-228 47 CURVE",
"-222 41 OFFCURVE",
"-220 39 OFFCURVE",
"-210 41 CURVE",
"-204 42 OFFCURVE",
"-197 44 OFFCURVE",
"-193 47 CURVE"
);
}
);
width = 0;
}
);
unicode = 0048;
},
{
glyphname = I;
lastChange = "2019-02-24 22:46:33 +0000";
layers = (
{
layerId = "74DDE396-3882-446A-A041-640634B78C39";
paths = (
{
closed = 1;
nodes = (
"443 -299 OFFCURVE",
"435 -295 OFFCURVE",
"435 -288 CURVE",
"435 -286 OFFCURVE",
"440 -268 OFFCURVE",
"446 -251 CURVE",
"456 -221 OFFCURVE",
"457 -220 OFFCURVE",
"455 -211 CURVE",
"452 -195 OFFCURVE",
"436 -174 OFFCURVE",
"409 -147 CURVE",
"356 -93 OFFCURVE",
"331 -53 OFFCURVE",
"322 -9 CURVE",
"318 15 OFFCURVE",
"319 61 OFFCURVE",
"326 104 CURVE",
"328 110 OFFCURVE",
"326 110 OFFCURVE",
"304 88 CURVE",
"270 55 OFFCURVE",
"251 44 OFFCURVE",
"219 42 CURVE",
"205 41 OFFCURVE",
"199 41 OFFCURVE",
"191 43 CURVE",
"143 58 OFFCURVE",
"133 105 OFFCURVE",
"166 161 CURVE",
"185 193 OFFCURVE",
"224 231 OFFCURVE",
"252 244 CURVE",
"270 253 OFFCURVE",
"291 260 OFFCURVE",
"301 260 CURVE",
"312 260 OFFCURVE",
"325 251 OFFCURVE",
"337 237 CURVE",
"344 228 LINE",
"348 245 LINE",
"351 255 OFFCURVE",
"355 264 OFFCURVE",
"357 267 CURVE",
"362 272 OFFCURVE",
"363 272 OFFCURVE",
"369 270 CURVE",
"384 264 OFFCURVE",
"406 253 OFFCURVE",
"410 248 CURVE",
"416 242 LINE",
"405 208 LINE",
"376 116 OFFCURVE",
"361 49 OFFCURVE",
"361 18 CURVE",
"361 8 OFFCURVE",
"363 -3 OFFCURVE",
"367 -19 CURVE",
"378 -59 OFFCURVE",
"385 -73 OFFCURVE",
"396 -85 CURVE",
"408 -99 OFFCURVE",
"434 -117 OFFCURVE",
"463 -133 CURVE",
"497 -150 OFFCURVE",
"513 -176 OFFCURVE",
"518 -220 CURVE",
"520 -237 OFFCURVE",
"520 -238 OFFCURVE",
"513 -266 CURVE",
"509 -282 OFFCURVE",
"505 -295 OFFCURVE",
"502 -298 CURVE",
"498 -302 OFFCURVE",
"482 -303 OFFCURVE",
"462 -301 CURVE"
);
},
{
closed = 1;
nodes = (
"270 93 OFFCURVE",
"291 130 OFFCURVE",
"302 176 CURVE",
"307 192 OFFCURVE",
"310 207 OFFCURVE",
"310 213 CURVE",
"312 220 OFFCURVE",
"311 222 OFFCURVE",
"308 224 CURVE",
"297 227 OFFCURVE",
"267 198 OFFCURVE",
"249 169 CURVE",
"226 129 OFFCURVE",
"220 101 OFFCURVE",
"230 85 CURVE",
"233 80 OFFCURVE",
"241 80 OFFCURVE",
"252 84 CURVE"
);
},
{
closed = 1;
nodes = (
"381 312 OFFCURVE",
"373 313 OFFCURVE",
"372 314 CURVE",
"368 316 OFFCURVE",
"369 324 OFFCURVE",
"374 327 CURVE",
"376 328 OFFCURVE",
"378 333 OFFCURVE",
"379 338 CURVE",
"381 356 OFFCURVE",
"364 379 OFFCURVE",
"326 405 CURVE",
"306 420 OFFCURVE",
"304 424 OFFCURVE",
"321 424 CURVE",
"343 424 OFFCURVE",
"374 410 OFFCURVE",
"407 387 CURVE",
"433 368 OFFCURVE",
"446 333 OFFCURVE",
"434 314 CURVE",
"431 310 OFFCURVE",
"430 308 OFFCURVE",
"419 310 CURVE",
"412 310 OFFCURVE",
"399 310 OFFCURVE",
"390 311 CURVE"
);
},
{
closed = 1;
nodes = (
"278 327 OFFCURVE",
"271 329 OFFCURVE",
"268 333 CURVE",
"266 336 OFFCURVE",
"266 338 OFFCURVE",
"271 346 CURVE",
"279 358 OFFCURVE",
"278 361 OFFCURVE",
"266 374 CURVE",
"255 387 OFFCURVE",
"244 393 OFFCURVE",
"222 405 CURVE",
"213 411 OFFCURVE",
"205 415 OFFCURVE",
"205 416 CURVE",
"205 418 OFFCURVE",
"208 421 OFFCURVE",
"211 423 CURVE",
"215 425 OFFCURVE",
"218 425 OFFCURVE",
"242 418 CURVE",
"273 410 OFFCURVE",
"303 396 OFFCURVE",
"317 384 CURVE",
"330 372 OFFCURVE",
"336 359 OFFCURVE",
"336 344 CURVE",
"336 326 OFFCURVE",
"332 323 OFFCURVE",
"313 323 CURVE",
"306 323 OFFCURVE",
"296 324 OFFCURVE",
"290 325 CURVE"
);
}
);
width = 655;
},
{
layerId = "14C6E355-B074-4D1E-9097-146622FBF431";
paths = (
{
closed = 1;
nodes = (
"443 -299 OFFCURVE",
"435 -295 OFFCURVE",
"435 -288 CURVE",
"435 -286 OFFCURVE",
"440 -268 OFFCURVE",
"446 -251 CURVE",
"456 -221 OFFCURVE",
"457 -220 OFFCURVE",
"455 -211 CURVE",
"452 -195 OFFCURVE",
"436 -174 OFFCURVE",
"409 -147 CURVE",
"356 -93 OFFCURVE",
"331 -53 OFFCURVE",
"322 -9 CURVE",
"318 15 OFFCURVE",
"319 61 OFFCURVE",
"326 104 CURVE",
"328 110 OFFCURVE",
"326 110 OFFCURVE",
"304 88 CURVE",
"270 55 OFFCURVE",
"251 44 OFFCURVE",
"219 42 CURVE",
"205 41 OFFCURVE",
"199 41 OFFCURVE",
"191 43 CURVE",
"143 58 OFFCURVE",
"133 105 OFFCURVE",
"166 161 CURVE",
"185 193 OFFCURVE",
"224 231 OFFCURVE",
"252 244 CURVE",
"270 253 OFFCURVE",
"291 260 OFFCURVE",
"301 260 CURVE",
"312 260 OFFCURVE",
"325 251 OFFCURVE",
"337 237 CURVE",
"344 228 LINE",
"348 245 LINE",
"351 255 OFFCURVE",
"355 264 OFFCURVE",
"357 267 CURVE",
"362 272 OFFCURVE",
"363 272 OFFCURVE",
"369 270 CURVE",
"384 264 OFFCURVE",
"406 253 OFFCURVE",
"410 248 CURVE",
"416 242 LINE",
"405 208 LINE",
"376 116 OFFCURVE",
"361 49 OFFCURVE",
"361 18 CURVE",
"361 8 OFFCURVE",
"363 -3 OFFCURVE",
"367 -19 CURVE",
"378 -59 OFFCURVE",
"385 -73 OFFCURVE",
"396 -85 CURVE",
"408 -99 OFFCURVE",
"434 -117 OFFCURVE",
"463 -133 CURVE",
"497 -150 OFFCURVE",
"513 -176 OFFCURVE",
"518 -220 CURVE",
"520 -237 OFFCURVE",
"520 -238 OFFCURVE",
"513 -266 CURVE",
"509 -282 OFFCURVE",
"505 -295 OFFCURVE",
"502 -298 CURVE",
"498 -302 OFFCURVE",
"482 -303 OFFCURVE",
"462 -301 CURVE"
);
},
{
closed = 1;
nodes = (
"270 93 OFFCURVE",
"291 130 OFFCURVE",
"302 176 CURVE",
"307 192 OFFCURVE",
"310 207 OFFCURVE",
"310 213 CURVE",
"312 220 OFFCURVE",
"311 222 OFFCURVE",
"308 224 CURVE",
"297 227 OFFCURVE",
"267 198 OFFCURVE",
"249 169 CURVE",
"226 129 OFFCURVE",
"220 101 OFFCURVE",
"230 85 CURVE",
"233 80 OFFCURVE",
"241 80 OFFCURVE",
"252 84 CURVE"
);
},
{
closed = 1;
nodes = (
"381 312 OFFCURVE",
"373 313 OFFCURVE",
"372 314 CURVE",
"368 316 OFFCURVE",
"369 324 OFFCURVE",
"374 327 CURVE",
"376 328 OFFCURVE",
"378 333 OFFCURVE",
"379 338 CURVE",
"381 356 OFFCURVE",
"364 379 OFFCURVE",
"326 405 CURVE",
"306 420 OFFCURVE",
"304 424 OFFCURVE",
"321 424 CURVE",
"343 424 OFFCURVE",
"374 410 OFFCURVE",
"407 387 CURVE",
"433 368 OFFCURVE",
"446 333 OFFCURVE",
"434 314 CURVE",
"431 310 OFFCURVE",
"430 308 OFFCURVE",
"419 310 CURVE",
"412 310 OFFCURVE",
"399 310 OFFCURVE",
"390 311 CURVE"
);
},
{
closed = 1;
nodes = (
"278 327 OFFCURVE",
"271 329 OFFCURVE",
"268 333 CURVE",
"266 336 OFFCURVE",
"266 338 OFFCURVE",
"271 346 CURVE",
"279 358 OFFCURVE",
"278 361 OFFCURVE",
"266 374 CURVE",
"255 387 OFFCURVE",
"244 393 OFFCURVE",
"222 405 CURVE",
"213 411 OFFCURVE",
"205 415 OFFCURVE",
"205 416 CURVE",
"205 418 OFFCURVE",
"208 421 OFFCURVE",
"211 423 CURVE",
"215 425 OFFCURVE",
"218 425 OFFCURVE",
"242 418 CURVE",
"273 410 OFFCURVE",
"303 396 OFFCURVE",
"317 384 CURVE",
"330 372 OFFCURVE",
"336 359 OFFCURVE",
"336 344 CURVE",
"336 326 OFFCURVE",
"332 323 OFFCURVE",
"313 323 CURVE",
"306 323 OFFCURVE",
"296 324 OFFCURVE",
"290 325 CURVE"
);
}
);
width = 655;
}
);
unicode = 0049;
},
{
glyphname = J;
lastChange = "2019-02-24 22:46:33 +0000";
layers = (
{
layerId = "74DDE396-3882-446A-A041-640634B78C39";
paths = (
{
closed = 1;
nodes = (
"52 -24 OFFCURVE",
"48 -21 OFFCURVE",
"47 -20 CURVE",
"44 -17 OFFCURVE",
"44 -16 OFFCURVE",
"48 -6 CURVE",
"53 7 OFFCURVE",
"53 12 OFFCURVE",
"50 23 CURVE",
"47 32 OFFCURVE",
"38 40 OFFCURVE",
"27 46 CURVE",
"18 50 OFFCURVE",
"-15 56 OFFCURVE",
"-29 56 CURVE",
"-39 56 LINE",
"-39 50 LINE",
"-39 36 OFFCURVE",
"-46 24 OFFCURVE",
"-60 18 CURVE",
"-74 10 OFFCURVE",
"-90 15 OFFCURVE",
"-90 26 CURVE",
"-90 28 OFFCURVE",
"-89 36 OFFCURVE",
"-86 45 CURVE",
"-83 53 OFFCURVE",
"-80 60 OFFCURVE",
"-81 60 CURVE",
"-82 61 OFFCURVE",
"-146 67 OFFCURVE",
"-147 66 CURVE",
"-149 65 OFFCURVE",
"-152 60 OFFCURVE",
"-154 54 CURVE",
"-167 19 OFFCURVE",
"-188 -11 OFFCURVE",
"-208 -20 CURVE",
"-226 -29 OFFCURVE",
"-246 -23 OFFCURVE",
"-264 -7 CURVE",
"-276 6 OFFCURVE",
"-281 17 OFFCURVE",
"-282 38 CURVE",
"-282 48 OFFCURVE",
"-284 56 OFFCURVE",
"-285 60 CURVE",
"-288 66 LINE",
"-303 66 LINE",
"-311 66 OFFCURVE",
"-362 65 OFFCURVE",
"-418 63 CURVE",
"-561 58 OFFCURVE",
"-556 58 OFFCURVE",
"-558 61 CURVE",
"-562 65 OFFCURVE",
"-559 72 OFFCURVE",
"-553 75 CURVE",
"-541 81 OFFCURVE",
"-527 82 OFFCURVE",
"-459 84 CURVE",
"-417 85 OFFCURVE",
"-385 87 OFFCURVE",
"-372 87 CURVE",
"-361 89 OFFCURVE",
"-337 91 OFFCURVE",
"-319 92 CURVE",
"-287 93 LINE",
"-281 97 LINE",
"-276 101 OFFCURVE",
"-273 107 OFFCURVE",
"-266 119 CURVE",
"-259 134 OFFCURVE",
"-255 138 OFFCURVE",
"-245 149 CURVE",
"-238 155 OFFCURVE",
"-229 164 OFFCURVE",
"-225 166 CURVE",
"-217 172 OFFCURVE",
"-215 172 OFFCURVE",
"-205 173 CURVE",
"-196 174 OFFCURVE",
"-190 173 OFFCURVE",
"-186 171 CURVE",
"-177 167 OFFCURVE",
"-166 156 OFFCURVE",
"-160 145 CURVE",
"-155 137 OFFCURVE",
"-148 115 OFFCURVE",
"-147 102 CURVE",
"-146 94 LINE",
"-124 94 LINE",
"-112 94 OFFCURVE",
"-97 93 OFFCURVE",
"-89 92 CURVE",
"-77 91 LINE",
"-79 106 LINE",
"-79 120 OFFCURVE",
"-79 120 OFFCURVE",
"-75 125 CURVE",
"-69 131 OFFCURVE",
"-64 133 OFFCURVE",
"-56 133 CURVE",
"-50 133 OFFCURVE",
"-48 132 OFFCURVE",
"-43 126 CURVE",
"-37 120 LINE",
"-37 106 LINE",
"-37 90 LINE",
"-31 87 LINE",
"-24 85 OFFCURVE",
"9 78 OFFCURVE",
"32 75 CURVE",
"48 73 OFFCURVE",
"57 70 OFFCURVE",
"77 62 CURVE",
"104 52 OFFCURVE",
"111 48 OFFCURVE",
"123 39 CURVE",
"135 28 OFFCURVE",
"138 22 OFFCURVE",
"138 9 CURVE",
"138 -1 OFFCURVE",
"138 -1 OFFCURVE",
"130 -12 CURVE",
"116 -29 OFFCURVE",
"116 -29 OFFCURVE",
"87 -29 CURVE",
"66 -29 OFFCURVE",
"58 -28 OFFCURVE",
"55 -26 CURVE"
);
},
{
closed = 1;
nodes = (
"-206 35 OFFCURVE",
"-197 52 OFFCURVE",
"-196 62 CURVE",
"-196 69 LINE",
"-218 69 LINE",
"-241 69 LINE",
"-242 63 LINE",
"-244 56 OFFCURVE",
"-243 42 OFFCURVE",
"-242 37 CURVE",
"-240 31 OFFCURVE",
"-231 25 OFFCURVE",
"-224 25 CURVE",
"-219 25 OFFCURVE",
"-216 27 OFFCURVE",
"-213 29 CURVE"
);
},
{
closed = 1;
nodes = (
"-189 110 OFFCURVE",
"-194 125 OFFCURVE",
"-202 130 CURVE",
"-208 134 OFFCURVE",
"-214 134 OFFCURVE",
"-224 128 CURVE",
"-233 124 OFFCURVE",
"-238 116 OFFCURVE",
"-239 106 CURVE",
"-241 93 OFFCURVE",
"-241 94 OFFCURVE",
"-216 94 CURVE",
"-195 94 LINE",
"-193 99 LINE"
);
}
);
width = 0;
},
{
layerId = "14C6E355-B074-4D1E-9097-146622FBF431";
paths = (
{
closed = 1;
nodes = (
"52 -24 OFFCURVE",
"48 -21 OFFCURVE",
"47 -20 CURVE",
"44 -17 OFFCURVE",
"44 -16 OFFCURVE",
"48 -6 CURVE",
"53 7 OFFCURVE",
"53 12 OFFCURVE",
"50 23 CURVE",
"47 32 OFFCURVE",
"38 40 OFFCURVE",
"27 46 CURVE",
"18 50 OFFCURVE",
"-15 56 OFFCURVE",
"-29 56 CURVE",
"-39 56 LINE",
"-39 50 LINE",
"-39 36 OFFCURVE",
"-46 24 OFFCURVE",
"-60 18 CURVE",
"-74 10 OFFCURVE",
"-90 15 OFFCURVE",
"-90 26 CURVE",
"-90 28 OFFCURVE",
"-89 36 OFFCURVE",
"-86 45 CURVE",
"-83 53 OFFCURVE",
"-80 60 OFFCURVE",
"-81 60 CURVE",
"-82 61 OFFCURVE",
"-146 67 OFFCURVE",
"-147 66 CURVE",
"-149 65 OFFCURVE",
"-152 60 OFFCURVE",
"-154 54 CURVE",
"-167 19 OFFCURVE",
"-188 -11 OFFCURVE",
"-208 -20 CURVE",
"-226 -29 OFFCURVE",
"-246 -23 OFFCURVE",
"-264 -7 CURVE",
"-276 6 OFFCURVE",
"-281 17 OFFCURVE",
"-282 38 CURVE",
"-282 48 OFFCURVE",
"-284 56 OFFCURVE",
"-285 60 CURVE",
"-288 66 LINE",
"-303 66 LINE",
"-311 66 OFFCURVE",
"-362 65 OFFCURVE",
"-418 63 CURVE",
"-561 58 OFFCURVE",
"-556 58 OFFCURVE",
"-558 61 CURVE",
"-562 65 OFFCURVE",
"-559 72 OFFCURVE",
"-553 75 CURVE",
"-541 81 OFFCURVE",
"-527 82 OFFCURVE",
"-459 84 CURVE",
"-417 85 OFFCURVE",
"-385 87 OFFCURVE",
"-372 87 CURVE",
"-361 89 OFFCURVE",
"-337 91 OFFCURVE",
"-319 92 CURVE",
"-287 93 LINE",
"-281 97 LINE",
"-276 101 OFFCURVE",
"-273 107 OFFCURVE",
"-266 119 CURVE",
"-259 134 OFFCURVE",
"-255 138 OFFCURVE",
"-245 149 CURVE",
"-238 155 OFFCURVE",
"-229 164 OFFCURVE",
"-225 166 CURVE",
"-217 172 OFFCURVE",
"-215 172 OFFCURVE",
"-205 173 CURVE",
"-196 174 OFFCURVE",
"-190 173 OFFCURVE",
"-186 171 CURVE",
"-177 167 OFFCURVE",
"-166 156 OFFCURVE",
"-160 145 CURVE",
"-155 137 OFFCURVE",
"-148 115 OFFCURVE",
"-147 102 CURVE",
"-146 94 LINE",
"-124 94 LINE",
"-112 94 OFFCURVE",
"-97 93 OFFCURVE",
"-89 92 CURVE",
"-77 91 LINE",
"-79 106 LINE",
"-79 120 OFFCURVE",
"-79 120 OFFCURVE",
"-75 125 CURVE",
"-69 131 OFFCURVE",
"-64 133 OFFCURVE",
"-56 133 CURVE",
"-50 133 OFFCURVE",
"-48 132 OFFCURVE",
"-43 126 CURVE",
"-37 120 LINE",
"-37 106 LINE",
"-37 90 LINE",
"-31 87 LINE",
"-24 85 OFFCURVE",
"9 78 OFFCURVE",
"32 75 CURVE",
"48 73 OFFCURVE",
"57 70 OFFCURVE",
"77 62 CURVE",
"104 52 OFFCURVE",
"111 48 OFFCURVE",
"123 39 CURVE",
"135 28 OFFCURVE",
"138 22 OFFCURVE",
"138 9 CURVE",
"138 -1 OFFCURVE",
"138 -1 OFFCURVE",
"130 -12 CURVE",
"116 -29 OFFCURVE",
"116 -29 OFFCURVE",
"87 -29 CURVE",
"66 -29 OFFCURVE",
"58 -28 OFFCURVE",
"55 -26 CURVE"
);
},
{
closed = 1;
nodes = (
"-206 35 OFFCURVE",
"-197 52 OFFCURVE",
"-196 62 CURVE",
"-196 69 LINE",
"-218 69 LINE",
"-241 69 LINE",
"-242 63 LINE",
"-244 56 OFFCURVE",
"-243 42 OFFCURVE",
"-242 37 CURVE",
"-240 31 OFFCURVE",
"-231 25 OFFCURVE",
"-224 25 CURVE",
"-219 25 OFFCURVE",
"-216 27 OFFCURVE",
"-213 29 CURVE"
);
},
{
closed = 1;
nodes = (
"-189 110 OFFCURVE",
"-194 125 OFFCURVE",
"-202 130 CURVE",
"-208 134 OFFCURVE",
"-214 134 OFFCURVE",
"-224 128 CURVE",
"-233 124 OFFCURVE",
"-238 116 OFFCURVE",
"-239 106 CURVE",
"-241 93 OFFCURVE",
"-241 94 OFFCURVE",
"-216 94 CURVE",
"-195 94 LINE",
"-193 99 LINE"
);
}
);
width = 0;
}
);
unicode = 004A;
},
{
glyphname = M;
lastChange = "2019-02-24 22:46:33 +0000";
layers = (
{
layerId = "74DDE396-3882-446A-A041-640634B78C39";
paths = (
{
closed = 1;
nodes = (
"-473 283 OFFCURVE",
"-474 285 OFFCURVE",
"-474 288 CURVE",
"-474 291 OFFCURVE",
"-452 352 OFFCURVE",
"-425 423 CURVE",
"-377 554 LINE",
"-384 567 LINE",
"-395 588 OFFCURVE",
"-421 626 OFFCURVE",
"-432 638 CURVE",
"-445 651 OFFCURVE",
"-456 658 OFFCURVE",
"-466 660 CURVE",
"-474 661 OFFCURVE",
"-476 665 OFFCURVE",
"-476 678 CURVE",
"-476 692 OFFCURVE",
"-473 700 OFFCURVE",
"-463 709 CURVE",
"-455 718 OFFCURVE",
"-440 724 OFFCURVE",
"-428 725 CURVE",
"-421 726 LINE",
"-388 685 LINE",
"-358 650 OFFCURVE",
"-353 645 OFFCURVE",
"-348 645 CURVE",
"-343 644 OFFCURVE",
"-342 645 OFFCURVE",
"-337 656 CURVE",
"-334 663 OFFCURVE",
"-325 682 OFFCURVE",
"-317 698 CURVE",
"-302 728 OFFCURVE",
"-289 748 OFFCURVE",
"-282 752 CURVE",
"-280 753 OFFCURVE",
"-273 753 OFFCURVE",
"-265 753 CURVE",
"-251 752 LINE",
"-249 745 LINE",
"-246 738 LINE",
"-268 709 LINE",
"-287 683 OFFCURVE",
"-291 677 OFFCURVE",
"-301 654 CURVE",
"-315 623 OFFCURVE",
"-317 616 OFFCURVE",
"-316 598 CURVE",
"-316 586 OFFCURVE",
"-314 582 OFFCURVE",
"-306 565 CURVE",
"-301 554 OFFCURVE",
"-293 538 OFFCURVE",
"-288 530 CURVE",
"-279 513 OFFCURVE",
"-252 449 OFFCURVE",
"-240 412 CURVE",
"-228 376 OFFCURVE",
"-223 358 OFFCURVE",
"-222 340 CURVE",
"-221 320 OFFCURVE",
"-223 315 OFFCURVE",
"-237 307 CURVE",
"-248 300 OFFCURVE",
"-258 299 OFFCURVE",
"-261 304 CURVE",
"-262 306 OFFCURVE",
"-274 336 OFFCURVE",
"-287 371 CURVE",
"-307 423 OFFCURVE",
"-315 441 OFFCURVE",
"-332 475 CURVE",
"-344 497 OFFCURVE",
"-354 516 OFFCURVE",
"-355 516 CURVE",
"-355 516 OFFCURVE",
"-374 465 OFFCURVE",
"-395 402 CURVE",
"-434 287 LINE",
"-446 286 LINE",
"-453 286 OFFCURVE",
"-461 284 OFFCURVE",
"-464 283 CURVE",
"-470 281 OFFCURVE",
"-471 280 OFFCURVE",
"-473 282 CURVE"
);
},
{
closed = 1;
nodes = (
"-404 794 OFFCURVE",
"-409 809 OFFCURVE",
"-411 851 CURVE",
"-413 891 OFFCURVE",
"-417 911 OFFCURVE",
"-428 927 CURVE",
"-433 935 OFFCURVE",
"-433 941 OFFCURVE",
"-428 950 CURVE",
"-424 955 LINE",
"-336 954 LINE",
"-248 953 LINE",
"-249 977 LINE",
"-251 1014 OFFCURVE",
"-255 1032 OFFCURVE",
"-263 1048 CURVE",
"-269 1063 OFFCURVE",
"-270 1072 OFFCURVE",
"-266 1079 CURVE",
"-262 1083 LINE",
"-143 1083 LINE",
"-25 1082 LINE",
"-17 1075 LINE",
"-12 1070 OFFCURVE",
"-10 1065 OFFCURVE",
"-7 1054 CURVE",
"-6 1031 OFFCURVE",
"-3 1031 OFFCURVE",
"-98 1032 CURVE",
"-178 1034 LINE",
"-176 1023 LINE",
"-176 1016 OFFCURVE",
"-174 990 OFFCURVE",
"-172 963 CURVE",
"-169 920 OFFCURVE",
"-169 916 OFFCURVE",
"-172 911 CURVE",
"-176 902 OFFCURVE",
"-187 902 OFFCURVE",
"-238 904 CURVE",
"-263 905 OFFCURVE",
"-295 906 OFFCURVE",
"-312 906 CURVE",
"-340 906 LINE",
"-340 901 LINE",
"-340 896 OFFCURVE",
"-336 872 OFFCURVE",
"-335 844 CURVE",
"-330 786 OFFCURVE",
"-330 788 OFFCURVE",
"-354 780 CURVE",
"-370 772 OFFCURVE",
"-376 773 OFFCURVE",
"-386 782 CURVE"
);
}
);
width = 0;
},
{
layerId = "14C6E355-B074-4D1E-9097-146622FBF431";
paths = (
{
closed = 1;
nodes = (
"-473 283 OFFCURVE",
"-474 285 OFFCURVE",
"-474 288 CURVE",
"-474 291 OFFCURVE",
"-452 352 OFFCURVE",
"-425 423 CURVE",
"-377 554 LINE",
"-384 567 LINE",
"-395 588 OFFCURVE",
"-421 626 OFFCURVE",
"-432 638 CURVE",
"-445 651 OFFCURVE",
"-456 658 OFFCURVE",
"-466 660 CURVE",
"-474 661 OFFCURVE",
"-476 665 OFFCURVE",
"-476 678 CURVE",
"-476 692 OFFCURVE",
"-473 700 OFFCURVE",
"-463 709 CURVE",
"-455 718 OFFCURVE",
"-440 724 OFFCURVE",
"-428 725 CURVE",
"-421 726 LINE",
"-388 685 LINE",
"-358 650 OFFCURVE",
"-353 645 OFFCURVE",
"-348 645 CURVE",
"-343 644 OFFCURVE",
"-342 645 OFFCURVE",
"-337 656 CURVE",
"-334 663 OFFCURVE",
"-325 682 OFFCURVE",
"-317 698 CURVE",
"-302 728 OFFCURVE",
"-289 748 OFFCURVE",
"-282 752 CURVE",
"-280 753 OFFCURVE",
"-273 753 OFFCURVE",
"-265 753 CURVE",
"-251 752 LINE",
"-249 745 LINE",
"-246 738 LINE",
"-268 709 LINE",
"-287 683 OFFCURVE",
"-291 677 OFFCURVE",
"-301 654 CURVE",
"-315 623 OFFCURVE",
"-317 616 OFFCURVE",
"-316 598 CURVE",
"-316 586 OFFCURVE",
"-314 582 OFFCURVE",
"-306 565 CURVE",
"-301 554 OFFCURVE",
"-293 538 OFFCURVE",
"-288 530 CURVE",
"-279 513 OFFCURVE",
"-252 449 OFFCURVE",
"-240 412 CURVE",
"-228 376 OFFCURVE",
"-223 358 OFFCURVE",
"-222 340 CURVE",
"-221 320 OFFCURVE",
"-223 315 OFFCURVE",
"-237 307 CURVE",
"-248 300 OFFCURVE",
"-258 299 OFFCURVE",
"-261 304 CURVE",
"-262 306 OFFCURVE",
"-274 336 OFFCURVE",
"-287 371 CURVE",
"-307 423 OFFCURVE",
"-315 441 OFFCURVE",
"-332 475 CURVE",
"-344 497 OFFCURVE",
"-354 516 OFFCURVE",
"-355 516 CURVE",
"-355 516 OFFCURVE",
"-374 465 OFFCURVE",
"-395 402 CURVE",
"-434 287 LINE",
"-446 286 LINE",
"-453 286 OFFCURVE",
"-461 284 OFFCURVE",
"-464 283 CURVE",
"-470 281 OFFCURVE",
"-471 280 OFFCURVE",
"-473 282 CURVE"
);
},
{
closed = 1;
nodes = (
"-404 794 OFFCURVE",
"-409 809 OFFCURVE",
"-411 851 CURVE",
"-413 891 OFFCURVE",
"-417 911 OFFCURVE",
"-428 927 CURVE",
"-433 935 OFFCURVE",
"-433 941 OFFCURVE",
"-428 950 CURVE",
"-424 955 LINE",
"-336 954 LINE",
"-248 953 LINE",
"-249 977 LINE",
"-251 1014 OFFCURVE",
"-255 1032 OFFCURVE",
"-263 1048 CURVE",
"-269 1063 OFFCURVE",
"-270 1072 OFFCURVE",
"-266 1079 CURVE",
"-262 1083 LINE",
"-143 1083 LINE",
"-25 1082 LINE",
"-17 1075 LINE",
"-12 1070 OFFCURVE",
"-10 1065 OFFCURVE",
"-7 1054 CURVE",
"-6 1031 OFFCURVE",
"-3 1031 OFFCURVE",
"-98 1032 CURVE",
"-178 1034 LINE",
"-176 1023 LINE",
"-176 1016 OFFCURVE",
"-174 990 OFFCURVE",
"-172 963 CURVE",
"-169 920 OFFCURVE",
"-169 916 OFFCURVE",
"-172 911 CURVE",
"-176 902 OFFCURVE",
"-187 902 OFFCURVE",
"-238 904 CURVE",
"-263 905 OFFCURVE",
"-295 906 OFFCURVE",
"-312 906 CURVE",
"-340 906 LINE",
"-340 901 LINE",
"-340 896 OFFCURVE",
"-336 872 OFFCURVE",
"-335 844 CURVE",
"-330 786 OFFCURVE",
"-330 788 OFFCURVE",
"-354 780 CURVE",
"-370 772 OFFCURVE",
"-376 773 OFFCURVE",
"-386 782 CURVE"
);
}
);
width = 0;
}
);
unicode = 004D;
},
{
glyphname = N;
lastChange = "2019-02-24 22:46:33 +0000";
layers = (
{
layerId = "74DDE396-3882-446A-A041-640634B78C39";
paths = (
{
closed = 1;
nodes = (
"-473 284 OFFCURVE",
"-474 286 OFFCURVE",
"-474 289 CURVE",
"-474 292 OFFCURVE",
"-452 353 OFFCURVE",
"-425 424 CURVE",
"-377 555 LINE",
"-384 568 LINE",
"-395 589 OFFCURVE",
"-421 627 OFFCURVE",
"-432 639 CURVE",
"-445 652 OFFCURVE",
"-456 659 OFFCURVE",
"-466 661 CURVE",
"-474 662 OFFCURVE",
"-476 666 OFFCURVE",
"-476 679 CURVE",
"-476 693 OFFCURVE",
"-473 701 OFFCURVE",
"-463 710 CURVE",
"-455 719 OFFCURVE",
"-440 725 OFFCURVE",
"-428 726 CURVE",
"-421 727 LINE",
"-388 686 LINE",
"-358 651 OFFCURVE",
"-353 646 OFFCURVE",
"-348 646 CURVE",
"-343 645 OFFCURVE",
"-342 646 OFFCURVE",
"-337 657 CURVE",
"-334 664 OFFCURVE",
"-325 683 OFFCURVE",
"-317 699 CURVE",
"-302 729 OFFCURVE",
"-289 749 OFFCURVE",
"-282 753 CURVE",
"-280 754 OFFCURVE",
"-273 754 OFFCURVE",
"-265 754 CURVE",
"-251 753 LINE",
"-249 746 LINE",
"-246 739 LINE",
"-268 710 LINE",
"-287 684 OFFCURVE",
"-291 678 OFFCURVE",
"-301 655 CURVE",
"-315 624 OFFCURVE",
"-317 617 OFFCURVE",
"-316 599 CURVE",
"-316 587 OFFCURVE",
"-314 583 OFFCURVE",
"-306 566 CURVE",
"-301 555 OFFCURVE",
"-293 539 OFFCURVE",
"-288 531 CURVE",
"-279 514 OFFCURVE",
"-252 450 OFFCURVE",
"-240 413 CURVE",
"-228 377 OFFCURVE",
"-223 359 OFFCURVE",
"-222 341 CURVE",
"-221 321 OFFCURVE",
"-223 316 OFFCURVE",
"-237 308 CURVE",
"-248 301 OFFCURVE",
"-258 300 OFFCURVE",
"-261 305 CURVE",
"-262 307 OFFCURVE",
"-274 337 OFFCURVE",
"-287 372 CURVE",
"-307 424 OFFCURVE",
"-315 442 OFFCURVE",
"-332 476 CURVE",
"-344 498 OFFCURVE",
"-354 517 OFFCURVE",
"-355 517 CURVE",
"-355 517 OFFCURVE",
"-374 466 OFFCURVE",
"-395 403 CURVE",
"-434 288 LINE",
"-446 287 LINE",
"-453 287 OFFCURVE",
"-461 285 OFFCURVE",
"-464 284 CURVE",
"-470 282 OFFCURVE",
"-471 281 OFFCURVE",
"-473 283 CURVE"
);
},
{
closed = 1;
nodes = (
"-370 764 OFFCURVE",
"-376 764 OFFCURVE",
"-387 771 CURVE",
"-407 785 OFFCURVE",
"-412 798 OFFCURVE",
"-414 842 CURVE",
"-416 878 OFFCURVE",
"-421 901 OFFCURVE",
"-428 918 CURVE",
"-435 931 OFFCURVE",
"-436 943 OFFCURVE",
"-431 949 CURVE",
"-428 954 LINE",
"-372 952 LINE",
"-316 950 OFFCURVE",
"-224 950 OFFCURVE",
"-195 951 CURVE",
"-182 952 OFFCURVE",
"-179 952 OFFCURVE",
"-175 948 CURVE",
"-167 943 OFFCURVE",
"-164 935 OFFCURVE",
"-162 922 CURVE",
"-161 911 OFFCURVE",
"-162 910 OFFCURVE",
"-166 906 CURVE",
"-175 897 OFFCURVE",
"-187 896 OFFCURVE",
"-236 901 CURVE",
"-245 902 OFFCURVE",
"-272 903 OFFCURVE",
"-297 903 CURVE",
"-338 903 OFFCURVE",
"-341 903 OFFCURVE",
"-341 900 CURVE",
"-341 898 OFFCURVE",
"-339 871 OFFCURVE",
"-336 840 CURVE",
"-332 784 LINE",
"-337 779 LINE",
"-340 776 OFFCURVE",
"-347 772 OFFCURVE",
"-354 770 CURVE"
);
}
);
width = 0;
},
{
layerId = "14C6E355-B074-4D1E-9097-146622FBF431";
paths = (
{
closed = 1;
nodes = (
"-473 284 OFFCURVE",
"-474 286 OFFCURVE",
"-474 289 CURVE",
"-474 292 OFFCURVE",
"-452 353 OFFCURVE",
"-425 424 CURVE",
"-377 555 LINE",
"-384 568 LINE",
"-395 589 OFFCURVE",
"-421 627 OFFCURVE",
"-432 639 CURVE",
"-445 652 OFFCURVE",
"-456 659 OFFCURVE",
"-466 661 CURVE",
"-474 662 OFFCURVE",
"-476 666 OFFCURVE",
"-476 679 CURVE",
"-476 693 OFFCURVE",
"-473 701 OFFCURVE",
"-463 710 CURVE",
"-455 719 OFFCURVE",
"-440 725 OFFCURVE",
"-428 726 CURVE",
"-421 727 LINE",
"-388 686 LINE",
"-358 651 OFFCURVE",
"-353 646 OFFCURVE",
"-348 646 CURVE",
"-343 645 OFFCURVE",
"-342 646 OFFCURVE",
"-337 657 CURVE",
"-334 664 OFFCURVE",
"-325 683 OFFCURVE",
"-317 699 CURVE",
"-302 729 OFFCURVE",
"-289 749 OFFCURVE",
"-282 753 CURVE",
"-280 754 OFFCURVE",
"-273 754 OFFCURVE",
"-265 754 CURVE",
"-251 753 LINE",
"-249 746 LINE",
"-246 739 LINE",
"-268 710 LINE",
"-287 684 OFFCURVE",
"-291 678 OFFCURVE",
"-301 655 CURVE",
"-315 624 OFFCURVE",
"-317 617 OFFCURVE",
"-316 599 CURVE",
"-316 587 OFFCURVE",
"-314 583 OFFCURVE",
"-306 566 CURVE",
"-301 555 OFFCURVE",
"-293 539 OFFCURVE",
"-288 531 CURVE",
"-279 514 OFFCURVE",
"-252 450 OFFCURVE",
"-240 413 CURVE",
"-228 377 OFFCURVE",
"-223 359 OFFCURVE",
"-222 341 CURVE",
"-221 321 OFFCURVE",
"-223 316 OFFCURVE",
"-237 308 CURVE",
"-248 301 OFFCURVE",
"-258 300 OFFCURVE",
"-261 305 CURVE",
"-262 307 OFFCURVE",
"-274 337 OFFCURVE",
"-287 372 CURVE",
"-307 424 OFFCURVE",
"-315 442 OFFCURVE",
"-332 476 CURVE",
"-344 498 OFFCURVE",
"-354 517 OFFCURVE",
"-355 517 CURVE",
"-355 517 OFFCURVE",
"-374 466 OFFCURVE",
"-395 403 CURVE",
"-434 288 LINE",
"-446 287 LINE",
"-453 287 OFFCURVE",
"-461 285 OFFCURVE",
"-464 284 CURVE",
"-470 282 OFFCURVE",
"-471 281 OFFCURVE",
"-473 283 CURVE"
);
},
{
closed = 1;
nodes = (
"-370 764 OFFCURVE",
"-376 764 OFFCURVE",
"-387 771 CURVE",
"-407 785 OFFCURVE",
"-412 798 OFFCURVE",
"-414 842 CURVE",
"-416 878 OFFCURVE",
"-421 901 OFFCURVE",
"-428 918 CURVE",
"-435 931 OFFCURVE",
"-436 943 OFFCURVE",
"-431 949 CURVE",
"-428 954 LINE",
"-372 952 LINE",
"-316 950 OFFCURVE",
"-224 950 OFFCURVE",
"-195 951 CURVE",
"-182 952 OFFCURVE",
"-179 952 OFFCURVE",
"-175 948 CURVE",
"-167 943 OFFCURVE",
"-164 935 OFFCURVE",
"-162 922 CURVE",
"-161 911 OFFCURVE",
"-162 910 OFFCURVE",
"-166 906 CURVE",
"-175 897 OFFCURVE",
"-187 896 OFFCURVE",
"-236 901 CURVE",
"-245 902 OFFCURVE",
"-272 903 OFFCURVE",
"-297 903 CURVE",
"-338 903 OFFCURVE",
"-341 903 OFFCURVE",
"-341 900 CURVE",
"-341 898 OFFCURVE",
"-339 871 OFFCURVE",
"-336 840 CURVE",
"-332 784 LINE",
"-337 779 LINE",
"-340 776 OFFCURVE",
"-347 772 OFFCURVE",
"-354 770 CURVE"
);
}
);
width = 0;
}
);
unicode = 004E;
},
{
glyphname = O;
lastChange = "2019-02-24 22:46:33 +0000";
layers = (
{
layerId = "74DDE396-3882-446A-A041-640634B78C39";
paths = (
{
closed = 1;
nodes = (
"488 150 OFFCURVE",
"478 151 OFFCURVE",
"477 153 CURVE",
"473 155 OFFCURVE",
"475 163 OFFCURVE",
"479 167 CURVE",
"482 168 OFFCURVE",
"484 173 OFFCURVE",
"486 179 CURVE",
"488 199 OFFCURVE",
"469 224 OFFCURVE",
"427 253 CURVE",
"404 269 OFFCURVE",
"403 274 OFFCURVE",
"421 274 CURVE",
"446 274 OFFCURVE",
"479 258 OFFCURVE",
"516 232 CURVE",
"545 212 OFFCURVE",
"559 173 OFFCURVE",
"546 153 CURVE",
"542 148 OFFCURVE",
"541 146 OFFCURVE",
"529 148 CURVE",
"522 148 OFFCURVE",
"507 148 OFFCURVE",
"498 149 CURVE"
);
},
{
closed = 1;
nodes = (
"374 167 OFFCURVE",
"367 169 OFFCURVE",
"363 173 CURVE",
"361 177 OFFCURVE",
"361 179 OFFCURVE",
"367 188 CURVE",
"375 201 OFFCURVE",
"374 205 OFFCURVE",
"361 219 CURVE",
"349 232 OFFCURVE",
"337 240 OFFCURVE",
"313 253 CURVE",
"303 259 OFFCURVE",
"294 264 OFFCURVE",
"294 265 CURVE",
"294 267 OFFCURVE",
"297 270 OFFCURVE",
"300 272 CURVE",
"305 275 OFFCURVE",
"308 275 OFFCURVE",
"334 267 CURVE",
"368 258 OFFCURVE",
"402 243 OFFCURVE",
"417 230 CURVE",
"431 217 OFFCURVE",
"438 202 OFFCURVE",
"438 185 CURVE",
"438 166 OFFCURVE",
"434 162 OFFCURVE",
"413 162 CURVE",
"404 162 OFFCURVE",
"394 163 OFFCURVE",
"388 165 CURVE"
);
},
{
closed = 1;
nodes = (
"608 -52 OFFCURVE",
"598 -47 OFFCURVE",
"592 -43 CURVE",
"575 -34 OFFCURVE",
"575 -28 OFFCURVE",
"592 -10 CURVE",
"605 5 OFFCURVE",
"615 19 OFFCURVE",
"615 22 CURVE",
"615 30 OFFCURVE",
"547 15 OFFCURVE",
"431 -19 CURVE",
"323 -51 OFFCURVE",
"327 -50 OFFCURVE",
"280 -52 CURVE",
"229 -54 OFFCURVE",
"210 -50 OFFCURVE",
"188 -33 CURVE",
"170 -18 OFFCURVE",
"164 -10 OFFCURVE",
"161 7 CURVE",
"158 22 OFFCURVE",
"158 25 OFFCURVE",
"161 36 CURVE",
"169 56 OFFCURVE",
"175 67 OFFCURVE",
"190 81 CURVE",
"205 96 OFFCURVE",
"225 104 OFFCURVE",
"250 108 CURVE",
"264 110 OFFCURVE",
"267 110 OFFCURVE",
"275 105 CURVE",
"281 103 OFFCURVE",
"288 98 OFFCURVE",
"291 93 CURVE",
"297 81 OFFCURVE",
"294 76 OFFCURVE",
"273 44 CURVE",
"247 10 OFFCURVE",
"248 7 OFFCURVE",
"286 7 CURVE",
"310 7 OFFCURVE",
"317 7 OFFCURVE",
"371 19 CURVE",
"401 29 OFFCURVE",
"449 41 OFFCURVE",
"475 48 CURVE",
"530 64 OFFCURVE",
"567 73 OFFCURVE",
"608 74 CURVE",
"634 75 OFFCURVE",
"639 75 OFFCURVE",
"651 70 CURVE",
"672 64 OFFCURVE",
"695 45 OFFCURVE",
"700 33 CURVE",
"706 19 OFFCURVE",
"702 -4 OFFCURVE",
"695 -16 CURVE",
"676 -45 OFFCURVE",
"639 -62 OFFCURVE",
"615 -54 CURVE"
);
}
);
width = 863;
},
{
layerId = "14C6E355-B074-4D1E-9097-146622FBF431";
paths = (
{
closed = 1;
nodes = (
"488 150 OFFCURVE",
"478 151 OFFCURVE",
"477 153 CURVE",
"473 155 OFFCURVE",
"475 163 OFFCURVE",
"479 167 CURVE",
"482 168 OFFCURVE",
"484 173 OFFCURVE",
"486 179 CURVE",
"488 199 OFFCURVE",
"469 224 OFFCURVE",
"427 253 CURVE",
"404 269 OFFCURVE",
"403 274 OFFCURVE",
"421 274 CURVE",
"446 274 OFFCURVE",
"479 258 OFFCURVE",
"516 232 CURVE",
"545 212 OFFCURVE",
"559 173 OFFCURVE",
"546 153 CURVE",
"542 148 OFFCURVE",
"541 146 OFFCURVE",
"529 148 CURVE",
"522 148 OFFCURVE",
"507 148 OFFCURVE",
"498 149 CURVE"
);
},
{
closed = 1;
nodes = (
"374 167 OFFCURVE",
"367 169 OFFCURVE",
"363 173 CURVE",
"361 177 OFFCURVE",
"361 179 OFFCURVE",
"367 188 CURVE",
"375 201 OFFCURVE",
"374 205 OFFCURVE",
"361 219 CURVE",
"349 232 OFFCURVE",
"337 240 OFFCURVE",
"313 253 CURVE",
"303 259 OFFCURVE",
"294 264 OFFCURVE",
"294 265 CURVE",
"294 267 OFFCURVE",
"297 270 OFFCURVE",
"300 272 CURVE",
"305 275 OFFCURVE",
"308 275 OFFCURVE",
"334 267 CURVE",
"368 258 OFFCURVE",
"402 243 OFFCURVE",
"417 230 CURVE",
"431 217 OFFCURVE",
"438 202 OFFCURVE",
"438 185 CURVE",
"438 166 OFFCURVE",
"434 162 OFFCURVE",
"413 162 CURVE",
"404 162 OFFCURVE",
"394 163 OFFCURVE",
"388 165 CURVE"
);
},
{
closed = 1;
nodes = (
"608 -52 OFFCURVE",
"598 -47 OFFCURVE",
"592 -43 CURVE",
"575 -34 OFFCURVE",
"575 -28 OFFCURVE",
"592 -10 CURVE",
"605 5 OFFCURVE",
"615 19 OFFCURVE",
"615 22 CURVE",
"615 30 OFFCURVE",
"547 15 OFFCURVE",
"431 -19 CURVE",
"323 -51 OFFCURVE",
"327 -50 OFFCURVE",
"280 -52 CURVE",
"229 -54 OFFCURVE",
"210 -50 OFFCURVE",
"188 -33 CURVE",
"170 -18 OFFCURVE",
"164 -10 OFFCURVE",
"161 7 CURVE",
"158 22 OFFCURVE",
"158 25 OFFCURVE",
"161 36 CURVE",
"169 56 OFFCURVE",
"175 67 OFFCURVE",
"190 81 CURVE",
"205 96 OFFCURVE",
"225 104 OFFCURVE",
"250 108 CURVE",
"264 110 OFFCURVE",
"267 110 OFFCURVE",
"275 105 CURVE",
"281 103 OFFCURVE",
"288 98 OFFCURVE",
"291 93 CURVE",
"297 81 OFFCURVE",
"294 76 OFFCURVE",
"273 44 CURVE",
"247 10 OFFCURVE",
"248 7 OFFCURVE",
"286 7 CURVE",
"310 7 OFFCURVE",
"317 7 OFFCURVE",
"371 19 CURVE",
"401 29 OFFCURVE",
"449 41 OFFCURVE",
"475 48 CURVE",
"530 64 OFFCURVE",
"567 73 OFFCURVE",
"608 74 CURVE",
"634 75 OFFCURVE",
"639 75 OFFCURVE",
"651 70 CURVE",
"672 64 OFFCURVE",
"695 45 OFFCURVE",
"700 33 CURVE",
"706 19 OFFCURVE",
"702 -4 OFFCURVE",
"695 -16 CURVE",
"676 -45 OFFCURVE",
"639 -62 OFFCURVE",
"615 -54 CURVE"
);
}
);
width = 863;
}
);
unicode = 004F;
},
{
glyphname = P;
lastChange = "2019-02-24 23:03:13 +0000";
layers = (
{
layerId = "74DDE396-3882-446A-A041-640634B78C39";
paths = (
{
closed = 1;
nodes = (
"409 -151 OFFCURVE",
"405 -145 OFFCURVE",
"405 -139 CURVE",
"405 -137 OFFCURVE",
"406 -130 OFFCURVE",
"409 -124 CURVE",
"414 -109 OFFCURVE",
"416 -91 OFFCURVE",
"415 -60 CURVE",
"414 -30 OFFCURVE",
"412 -19 OFFCURVE",
"403 4 CURVE",
"390 36 OFFCURVE",
"366 68 OFFCURVE",
"332 96 CURVE",
"321 106 LINE",
"278 63 LINE",
"234 21 LINE",
"213 21 LINE",
"194 22 OFFCURVE",
"191 22 OFFCURVE",
"183 26 CURVE",
"169 33 OFFCURVE",
"158 48 OFFCURVE",
"153 69 CURVE",
"149 82 OFFCURVE",
"150 116 OFFCURVE",
"154 138 CURVE",
"158 161 OFFCURVE",
"161 173 OFFCURVE",
"165 176 CURVE",
"167 178 OFFCURVE",
"175 179 OFFCURVE",
"197 180 CURVE",
"225 182 OFFCURVE",
"226 182 OFFCURVE",
"229 179 CURVE",
"232 176 LINE",
"223 136 LINE",
"218 111 OFFCURVE",
"215 95 OFFCURVE",
"215 92 CURVE",
"216 90 OFFCURVE",
"218 86 OFFCURVE",
"220 82 CURVE",
"224 77 OFFCURVE",
"224 77 OFFCURVE",
"233 77 CURVE",
"241 77 OFFCURVE",
"243 77 OFFCURVE",
"252 84 CURVE",
"263 92 OFFCURVE",
"279 109 OFFCURVE",
"307 142 CURVE",
"337 177 OFFCURVE",
"339 180 OFFCURVE",
"347 181 CURVE",
"352 182 OFFCURVE",
"355 181 OFFCURVE",
"360 178 CURVE",
"401 158 OFFCURVE",
"444 102 OFFCURVE",
"457 54 CURVE",
"466 17 OFFCURVE",
"472 -25 OFFCURVE",
"470 -52 CURVE",
"469 -70 OFFCURVE",
"470 -71 OFFCURVE",
"472 -72 CURVE",
"474 -73 OFFCURVE",
"476 -72 OFFCURVE",
"479 -70 CURVE",
"539 -16 OFFCURVE",
"565 10 OFFCURVE",
"592 39 CURVE",
"612 62 OFFCURVE",
"637 95 OFFCURVE",
"637 99 CURVE",
"637 106 OFFCURVE",
"641 124 OFFCURVE",
"645 132 CURVE",
"650 142 OFFCURVE",
"656 146 OFFCURVE",
"668 146 CURVE",
"681 146 OFFCURVE",
"688 144 OFFCURVE",
"693 138 CURVE",
"697 134 OFFCURVE",
"697 132 OFFCURVE",
"697 121 CURVE",
"697 111 OFFCURVE",
"696 108 OFFCURVE",
"692 99 CURVE",
"684 83 OFFCURVE",
"678 76 OFFCURVE",
"634 32 CURVE",
"611 8 OFFCURVE",
"589 -14 OFFCURVE",
"586 -18 CURVE",
"577 -28 OFFCURVE",
"489 -112 OFFCURVE",
"461 -137 CURVE",
"438 -158 LINE",
"430 -158 LINE",
"424 -158 OFFCURVE",
"419 -157 OFFCURVE",
"416 -155 CURVE"
);
},
{
closed = 1;
nodes = (
"981 229 OFFCURVE",
"936 232 OFFCURVE",
"893 235 CURVE",
"849 238 OFFCURVE",
"742 239 OFFCURVE",
"702 236 CURVE",
"673 234 OFFCURVE",
"527 231 OFFCURVE",
"440 231 CURVE",
"391 231 OFFCURVE",
"369 232 OFFCURVE",
"338 234 CURVE",
"264 240 OFFCURVE",
"226 246 OFFCURVE",
"218 251 CURVE",
"216 252 OFFCURVE",
"211 255 OFFCURVE",
"208 256 CURVE",
"201 259 OFFCURVE",
"183 271 OFFCURVE",
"169 281 CURVE",
"161 287 OFFCURVE",
"159 289 OFFCURVE",
"159 293 CURVE",
"159 295 OFFCURVE",
"160 298 OFFCURVE",
"162 300 CURVE",
"165 303 OFFCURVE",
"166 302 OFFCURVE",
"186 299 CURVE",
"234 290 OFFCURVE",
"235 290 OFFCURVE",
"348 289 CURVE",
"406 288 OFFCURVE",
"485 289 OFFCURVE",
"524 290 CURVE",
"639 293 OFFCURVE",
"814 294 OFFCURVE",
"836 292 CURVE",
"893 286 OFFCURVE",
"973 261 OFFCURVE",
"1000 239 CURVE",
"1006 234 OFFCURVE",
"1007 232 OFFCURVE",
"1004 228 CURVE",
"1003 226 OFFCURVE",
"1001 226 OFFCURVE",
"994 227 CURVE"
);
},
{
closed = 1;
nodes = (
"839 95 OFFCURVE",
"835 95 OFFCURVE",
"822 98 CURVE",
"813 98 OFFCURVE",
"808 100 OFFCURVE",
"802 103 CURVE",
"788 110 OFFCURVE",
"789 113 OFFCURVE",
"776 129 CURVE",
"770 138 OFFCURVE",
"771 134 OFFCURVE",
"764 154 CURVE",
"763 158 OFFCURVE",
"761 162 OFFCURVE",
"761 162 CURVE",
"761 166 OFFCURVE",
"755 177 OFFCURVE",
"749 183 CURVE",
"742 190 OFFCURVE",
"740 195 OFFCURVE",
"742 201 CURVE",
"744 207 OFFCURVE",
"749 210 OFFCURVE",
"758 210 CURVE",
"779 210 OFFCURVE",
"809 207 OFFCURVE",
"813 207 CURVE",
"818 206 OFFCURVE",
"828 198 OFFCURVE",
"834 190 CURVE",
"835 188 OFFCURVE",
"836 187 OFFCURVE",
"837 184 CURVE",
"839 182 OFFCURVE",
"841 177 OFFCURVE",
"842 174 CURVE",
"844 170 OFFCURVE",
"848 160 OFFCURVE",
"853 151 CURVE",
"863 134 OFFCURVE",
"866 130 OFFCURVE",
"878 129 CURVE",
"881 128 OFFCURVE",
"884 128 OFFCURVE",
"887 125 CURVE",
"891 123 OFFCURVE",
"892 122 OFFCURVE",
"892 117 CURVE",
"892 112 OFFCURVE",
"889 108 OFFCURVE",
"876 102 CURVE",
"865 97 OFFCURVE",
"863 96 OFFCURVE",
"849 95 CURVE"
);
},
{
closed = 1;
nodes = (
"982 95 OFFCURVE",
"978 95 OFFCURVE",
"965 98 CURVE",
"957 98 OFFCURVE",
"951 100 OFFCURVE",
"945 103 CURVE",
"932 110 OFFCURVE",
"932 113 OFFCURVE",
"919 129 CURVE",
"913 138 OFFCURVE",
"915 134 OFFCURVE",
"908 154 CURVE",
"906 158 OFFCURVE",
"904 162 OFFCURVE",
"904 162 CURVE",
"904 166 OFFCURVE",
"898 177 OFFCURVE",
"892 183 CURVE",
"885 190 OFFCURVE",
"883 195 OFFCURVE",
"885 201 CURVE",
"887 207 OFFCURVE",
"892 210 OFFCURVE",
"902 210 CURVE",
"923 210 OFFCURVE",
"953 207 OFFCURVE",
"957 207 CURVE",
"961 206 OFFCURVE",
"971 198 OFFCURVE",
"977 190 CURVE",
"979 188 OFFCURVE",
"979 187 OFFCURVE",
"981 184 CURVE",
"982 182 OFFCURVE",
"984 177 OFFCURVE",
"986 174 CURVE",
"988 170 OFFCURVE",
"992 160 OFFCURVE",
"996 151 CURVE",
"1006 134 OFFCURVE",
"1009 130 OFFCURVE",
"1021 129 CURVE",
"1024 128 OFFCURVE",
"1027 128 OFFCURVE",
"1031 125 CURVE",
"1035 123 OFFCURVE",
"1035 122 OFFCURVE",
"1035 117 CURVE",
"1035 112 OFFCURVE",
"1033 108 OFFCURVE",
"1020 102 CURVE",
"1008 97 OFFCURVE",
"1006 96 OFFCURVE",
"992 95 CURVE"
);
}
);
width = 1247;
},
{
components = (
{
alignment = -1;
name = y;
transform = "{1, 0, 0, 1, 56, 440}";
},
{
name = jump_two_long;
transform = "{1, 0, 0, 1, 0, 351}";
}
);
layerId = "14C6E355-B074-4D1E-9097-146622FBF431";
width = 1184;
}
);
unicode = 0050;
},
{
glyphname = Q;
lastChange = "2019-02-24 22:46:33 +0000";
layers = (
{
layerId = "74DDE396-3882-446A-A041-640634B78C39";
paths = (
{
closed = 1;
nodes = (
"-96 -185 OFFCURVE",
"-103 -182 OFFCURVE",
"-103 -175 CURVE",
"-103 -173 OFFCURVE",
"-99 -157 OFFCURVE",
"-93 -142 CURVE",
"-84 -114 OFFCURVE",
"-83 -113 OFFCURVE",
"-85 -105 CURVE",
"-88 -91 OFFCURVE",
"-102 -72 OFFCURVE",
"-127 -47 CURVE",
"-175 2 OFFCURVE",
"-198 38 OFFCURVE",
"-206 78 CURVE",
"-210 100 OFFCURVE",
"-209 142 OFFCURVE",
"-202 181 CURVE",
"-201 187 OFFCURVE",
"-202 187 OFFCURVE",
"-222 167 CURVE",
"-253 137 OFFCURVE",
"-271 127 OFFCURVE",
"-300 125 CURVE",
"-312 124 OFFCURVE",
"-318 124 OFFCURVE",
"-325 126 CURVE",
"-369 139 OFFCURVE",
"-378 182 OFFCURVE",
"-348 233 CURVE",
"-331 262 OFFCURVE",
"-295 297 OFFCURVE",
"-270 308 CURVE",
"-253 317 OFFCURVE",
"-234 323 OFFCURVE",
"-225 323 CURVE",
"-215 323 OFFCURVE",
"-203 315 OFFCURVE",
"-192 302 CURVE",
"-186 294 LINE",
"-182 309 LINE",
"-180 318 OFFCURVE",
"-176 327 OFFCURVE",
"-174 329 CURVE",
"-170 334 OFFCURVE",
"-169 334 OFFCURVE",
"-163 332 CURVE",
"-150 327 OFFCURVE",
"-130 317 OFFCURVE",
"-126 312 CURVE",
"-121 307 LINE",
"-131 276 LINE",
"-157 192 OFFCURVE",
"-171 131 OFFCURVE",
"-171 103 CURVE",
"-171 94 OFFCURVE",
"-169 84 OFFCURVE",
"-165 69 CURVE",
"-155 33 OFFCURVE",
"-149 20 OFFCURVE",
"-139 9 CURVE",
"-128 -3 OFFCURVE",
"-104 -20 OFFCURVE",
"-78 -34 CURVE",
"-47 -50 OFFCURVE",
"-32 -73 OFFCURVE",
"-28 -113 CURVE",
"-26 -129 OFFCURVE",
"-26 -130 OFFCURVE",
"-32 -155 CURVE",
"-36 -170 OFFCURVE",
"-40 -182 OFFCURVE",
"-42 -184 CURVE",
"-46 -188 OFFCURVE",
"-61 -189 OFFCURVE",
"-79 -187 CURVE"
);
},
{
closed = 1;
nodes = (
"-253 171 OFFCURVE",
"-234 205 OFFCURVE",
"-224 247 CURVE",
"-220 261 OFFCURVE",
"-217 275 OFFCURVE",
"-217 280 CURVE",
"-215 287 OFFCURVE",
"-216 288 OFFCURVE",
"-219 290 CURVE",
"-229 293 OFFCURVE",
"-256 267 OFFCURVE",
"-272 240 CURVE",
"-293 204 OFFCURVE",
"-299 178 OFFCURVE",
"-290 164 CURVE",
"-287 159 OFFCURVE",
"-280 159 OFFCURVE",
"-270 163 CURVE"
);
}
);
width = 0;
},
{
layerId = "14C6E355-B074-4D1E-9097-146622FBF431";
paths = (
{
closed = 1;
nodes = (
"-96 -185 OFFCURVE",
"-103 -182 OFFCURVE",
"-103 -175 CURVE",
"-103 -173 OFFCURVE",
"-99 -157 OFFCURVE",
"-93 -142 CURVE",
"-84 -114 OFFCURVE",
"-83 -113 OFFCURVE",
"-85 -105 CURVE",
"-88 -91 OFFCURVE",
"-102 -72 OFFCURVE",
"-127 -47 CURVE",
"-175 2 OFFCURVE",
"-198 38 OFFCURVE",
"-206 78 CURVE",
"-210 100 OFFCURVE",
"-209 142 OFFCURVE",
"-202 181 CURVE",
"-201 187 OFFCURVE",
"-202 187 OFFCURVE",
"-222 167 CURVE",
"-253 137 OFFCURVE",
"-271 127 OFFCURVE",
"-300 125 CURVE",
"-312 124 OFFCURVE",
"-318 124 OFFCURVE",
"-325 126 CURVE",
"-369 139 OFFCURVE",
"-378 182 OFFCURVE",
"-348 233 CURVE",
"-331 262 OFFCURVE",
"-295 297 OFFCURVE",
"-270 308 CURVE",
"-253 317 OFFCURVE",
"-234 323 OFFCURVE",
"-225 323 CURVE",
"-215 323 OFFCURVE",
"-203 315 OFFCURVE",
"-192 302 CURVE",
"-186 294 LINE",
"-182 309 LINE",
"-180 318 OFFCURVE",
"-176 327 OFFCURVE",
"-174 329 CURVE",
"-170 334 OFFCURVE",
"-169 334 OFFCURVE",
"-163 332 CURVE",
"-150 327 OFFCURVE",
"-130 317 OFFCURVE",
"-126 312 CURVE",
"-121 307 LINE",
"-131 276 LINE",
"-157 192 OFFCURVE",
"-171 131 OFFCURVE",
"-171 103 CURVE",
"-171 94 OFFCURVE",
"-169 84 OFFCURVE",
"-165 69 CURVE",
"-155 33 OFFCURVE",
"-149 20 OFFCURVE",
"-139 9 CURVE",
"-128 -3 OFFCURVE",
"-104 -20 OFFCURVE",
"-78 -34 CURVE",
"-47 -50 OFFCURVE",
"-32 -73 OFFCURVE",
"-28 -113 CURVE",
"-26 -129 OFFCURVE",
"-26 -130 OFFCURVE",
"-32 -155 CURVE",
"-36 -170 OFFCURVE",
"-40 -182 OFFCURVE",
"-42 -184 CURVE",
"-46 -188 OFFCURVE",
"-61 -189 OFFCURVE",
"-79 -187 CURVE"
);
},
{
closed = 1;
nodes = (
"-253 171 OFFCURVE",
"-234 205 OFFCURVE",
"-224 247 CURVE",
"-220 261 OFFCURVE",
"-217 275 OFFCURVE",
"-217 280 CURVE",
"-215 287 OFFCURVE",
"-216 288 OFFCURVE",
"-219 290 CURVE",
"-229 293 OFFCURVE",
"-256 267 OFFCURVE",
"-272 240 CURVE",
"-293 204 OFFCURVE",
"-299 178 OFFCURVE",
"-290 164 CURVE",
"-287 159 OFFCURVE",
"-280 159 OFFCURVE",
"-270 163 CURVE"
);
}
);
width = 0;
}
);
unicode = 0051;
},
{
glyphname = S;
lastChange = "2019-02-24 22:47:25 +0000";
layers = (
{
layerId = "74DDE396-3882-446A-A041-640634B78C39";
paths = (
{
closed = 1;
nodes = (
"-390 -62 OFFCURVE",
"-397 -49 OFFCURVE",
"-397 -43 CURVE",
"-397 -33 OFFCURVE",
"-385 -22 OFFCURVE",
"-355 -2 CURVE",
"-340 8 OFFCURVE",
"-323 19 OFFCURVE",
"-320 23 CURVE",
"-313 31 OFFCURVE",
"-313 31 OFFCURVE",
"-317 37 CURVE",
"-322 46 OFFCURVE",
"-333 92 OFFCURVE",
"-336 108 CURVE",
"-340 138 OFFCURVE",
"-323 154 OFFCURVE",
"-281 163 CURVE",
"-261 167 OFFCURVE",
"-255 167 OFFCURVE",
"-245 164 CURVE",
"-232 162 OFFCURVE",
"-205 151 OFFCURVE",
"-193 142 CURVE",
"-190 139 OFFCURVE",
"-185 138 OFFCURVE",
"-183 138 CURVE",
"-182 139 OFFCURVE",
"-161 157 OFFCURVE",
"-137 178 CURVE",
"-96 216 OFFCURVE",
"-93 217 OFFCURVE",
"-85 216 CURVE",
"-77 216 OFFCURVE",
"-76 214 OFFCURVE",
"-72 206 CURVE",
"-68 198 OFFCURVE",
"-67 192 OFFCURVE",
"-67 186 CURVE",
"-68 177 LINE",
"-116 146 LINE",
"-143 128 OFFCURVE",
"-166 113 OFFCURVE",
"-167 113 CURVE",
"-168 112 OFFCURVE",
"-166 107 OFFCURVE",
"-161 102 CURVE",
"-150 88 OFFCURVE",
"-141 72 OFFCURVE",
"-137 54 CURVE",
"-128 12 OFFCURVE",
"-151 -9 OFFCURVE",
"-210 -18 CURVE",
"-230 -22 OFFCURVE",
"-245 -18 OFFCURVE",
"-272 -4 CURVE",
"-291 4 LINE",
"-320 -24 LINE",
"-356 -61 OFFCURVE",
"-370 -72 OFFCURVE",
"-373 -72 CURVE",
"-375 -72 OFFCURVE",
"-378 -71 OFFCURVE",
"-382 -68 CURVE"
);
},
{
closed = 1;
nodes = (
"-202 42 OFFCURVE",
"-191 56 OFFCURVE",
"-191 78 CURVE",
"-191 102 OFFCURVE",
"-205 116 OFFCURVE",
"-228 116 CURVE",
"-258 116 OFFCURVE",
"-283 93 OFFCURVE",
"-283 64 CURVE",
"-283 51 OFFCURVE",
"-277 39 OFFCURVE",
"-270 36 CURVE",
"-266 33 OFFCURVE",
"-255 31 OFFCURVE",
"-245 28 CURVE",
"-243 28 OFFCURVE",
"-236 31 OFFCURVE",
"-228 33 CURVE"
);
}
);
width = 0;
},
{
components = (
{
alignment = -1;
name = s;
transform = "{1, 0, 0, 1, -639, 415}";
}
);
layerId = "14C6E355-B074-4D1E-9097-146622FBF431";
width = 0;
}
);
unicode = 0053;
},
{
glyphname = T;
lastChange = "2019-02-24 22:46:33 +0000";
layers = (
{
layerId = "74DDE396-3882-446A-A041-640634B78C39";
paths = (
{
closed = 1;
nodes = (
"-116 -225 OFFCURVE",
"-123 -222 OFFCURVE",
"-123 -215 CURVE",
"-123 -213 OFFCURVE",
"-119 -197 OFFCURVE",
"-113 -182 CURVE",
"-104 -154 OFFCURVE",
"-103 -153 OFFCURVE",
"-105 -145 CURVE",
"-108 -131 OFFCURVE",
"-122 -112 OFFCURVE",
"-147 -87 CURVE",
"-195 -38 OFFCURVE",
"-218 -2 OFFCURVE",
"-226 38 CURVE",
"-230 60 OFFCURVE",
"-229 102 OFFCURVE",
"-222 141 CURVE",
"-221 147 OFFCURVE",
"-222 147 OFFCURVE",
"-242 127 CURVE",
"-273 97 OFFCURVE",
"-291 87 OFFCURVE",
"-320 85 CURVE",
"-332 84 OFFCURVE",
"-338 84 OFFCURVE",
"-345 86 CURVE",
"-389 99 OFFCURVE",
"-398 142 OFFCURVE",
"-368 193 CURVE",
"-351 222 OFFCURVE",
"-315 257 OFFCURVE",
"-290 268 CURVE",
"-273 277 OFFCURVE",
"-254 283 OFFCURVE",
"-245 283 CURVE",
"-235 283 OFFCURVE",
"-223 275 OFFCURVE",
"-212 262 CURVE",
"-206 254 LINE",
"-202 269 LINE",
"-200 278 OFFCURVE",
"-196 287 OFFCURVE",
"-194 289 CURVE",
"-190 294 OFFCURVE",
"-189 294 OFFCURVE",
"-183 292 CURVE",
"-170 287 OFFCURVE",
"-150 277 OFFCURVE",
"-146 272 CURVE",
"-141 267 LINE",
"-151 236 LINE",
"-177 152 OFFCURVE",
"-191 91 OFFCURVE",
"-191 63 CURVE",
"-191 54 OFFCURVE",
"-189 44 OFFCURVE",
"-185 29 CURVE",
"-175 -7 OFFCURVE",
"-169 -20 OFFCURVE",
"-159 -31 CURVE",
"-148 -43 OFFCURVE",
"-124 -60 OFFCURVE",
"-98 -74 CURVE",
"-67 -90 OFFCURVE",
"-52 -113 OFFCURVE",
"-48 -153 CURVE",
"-46 -169 OFFCURVE",
"-46 -170 OFFCURVE",
"-52 -195 CURVE",
"-56 -210 OFFCURVE",
"-60 -222 OFFCURVE",
"-62 -224 CURVE",
"-66 -228 OFFCURVE",
"-81 -229 OFFCURVE",
"-99 -227 CURVE"
);
},
{
closed = 1;
nodes = (
"-273 131 OFFCURVE",
"-254 165 OFFCURVE",
"-244 207 CURVE",
"-240 221 OFFCURVE",
"-237 235 OFFCURVE",
"-237 240 CURVE",
"-235 247 OFFCURVE",
"-236 248 OFFCURVE",
"-239 250 CURVE",
"-249 253 OFFCURVE",
"-276 227 OFFCURVE",
"-292 200 CURVE",
"-313 164 OFFCURVE",
"-319 138 OFFCURVE",
"-310 124 CURVE",
"-307 119 OFFCURVE",
"-300 119 OFFCURVE",
"-290 123 CURVE"
);
},
{
closed = 1;
nodes = (
"-172 330 OFFCURVE",
"-180 331 OFFCURVE",
"-181 332 CURVE",
"-184 334 OFFCURVE",
"-183 341 OFFCURVE",
"-179 344 CURVE",
"-177 345 OFFCURVE",
"-175 349 OFFCURVE",
"-174 354 CURVE",
"-172 370 OFFCURVE",
"-188 391 OFFCURVE",
"-222 415 CURVE",
"-241 428 OFFCURVE",
"-242 432 OFFCURVE",
"-227 432 CURVE",
"-207 432 OFFCURVE",
"-179 419 OFFCURVE",
"-149 398 CURVE",
"-125 381 OFFCURVE",
"-113 349 OFFCURVE",
"-124 332 CURVE",
"-127 328 OFFCURVE",
"-128 327 OFFCURVE",
"-138 328 CURVE",
"-144 328 OFFCURVE",
"-156 328 OFFCURVE",
"-164 329 CURVE"
);
},
{
closed = 1;
nodes = (
"-266 344 OFFCURVE",
"-272 346 OFFCURVE",
"-275 349 CURVE",
"-277 352 OFFCURVE",
"-277 354 OFFCURVE",
"-272 361 CURVE",
"-265 372 OFFCURVE",
"-266 375 OFFCURVE",
"-277 387 CURVE",
"-287 398 OFFCURVE",
"-297 404 OFFCURVE",
"-317 415 CURVE",
"-325 420 OFFCURVE",
"-332 424 OFFCURVE",
"-332 425 CURVE",
"-332 427 OFFCURVE",
"-330 429 OFFCURVE",
"-327 431 CURVE",
"-323 433 OFFCURVE",
"-321 433 OFFCURVE",
"-299 427 CURVE",
"-271 419 OFFCURVE",
"-243 407 OFFCURVE",
"-231 396 CURVE",
"-219 385 OFFCURVE",
"-213 373 OFFCURVE",
"-213 359 CURVE",
"-213 343 OFFCURVE",
"-217 340 OFFCURVE",
"-234 340 CURVE",
"-241 340 OFFCURVE",
"-250 341 OFFCURVE",
"-255 342 CURVE"
);
}
);
width = 0;
},
{
layerId = "14C6E355-B074-4D1E-9097-146622FBF431";
paths = (
{
closed = 1;
nodes = (
"-116 -225 OFFCURVE",
"-123 -222 OFFCURVE",
"-123 -215 CURVE",
"-123 -213 OFFCURVE",
"-119 -197 OFFCURVE",
"-113 -182 CURVE",
"-104 -154 OFFCURVE",
"-103 -153 OFFCURVE",
"-105 -145 CURVE",
"-108 -131 OFFCURVE",
"-122 -112 OFFCURVE",
"-147 -87 CURVE",
"-195 -38 OFFCURVE",
"-218 -2 OFFCURVE",
"-226 38 CURVE",
"-230 60 OFFCURVE",
"-229 102 OFFCURVE",
"-222 141 CURVE",
"-221 147 OFFCURVE",
"-222 147 OFFCURVE",
"-242 127 CURVE",
"-273 97 OFFCURVE",
"-291 87 OFFCURVE",
"-320 85 CURVE",
"-332 84 OFFCURVE",
"-338 84 OFFCURVE",
"-345 86 CURVE",
"-389 99 OFFCURVE",
"-398 142 OFFCURVE",
"-368 193 CURVE",
"-351 222 OFFCURVE",
"-315 257 OFFCURVE",
"-290 268 CURVE",
"-273 277 OFFCURVE",
"-254 283 OFFCURVE",
"-245 283 CURVE",
"-235 283 OFFCURVE",
"-223 275 OFFCURVE",
"-212 262 CURVE",
"-206 254 LINE",
"-202 269 LINE",
"-200 278 OFFCURVE",
"-196 287 OFFCURVE",
"-194 289 CURVE",
"-190 294 OFFCURVE",
"-189 294 OFFCURVE",
"-183 292 CURVE",
"-170 287 OFFCURVE",
"-150 277 OFFCURVE",
"-146 272 CURVE",
"-141 267 LINE",
"-151 236 LINE",
"-177 152 OFFCURVE",
"-191 91 OFFCURVE",
"-191 63 CURVE",
"-191 54 OFFCURVE",
"-189 44 OFFCURVE",
"-185 29 CURVE",
"-175 -7 OFFCURVE",
"-169 -20 OFFCURVE",
"-159 -31 CURVE",
"-148 -43 OFFCURVE",
"-124 -60 OFFCURVE",
"-98 -74 CURVE",
"-67 -90 OFFCURVE",
"-52 -113 OFFCURVE",
"-48 -153 CURVE",
"-46 -169 OFFCURVE",
"-46 -170 OFFCURVE",
"-52 -195 CURVE",
"-56 -210 OFFCURVE",
"-60 -222 OFFCURVE",
"-62 -224 CURVE",
"-66 -228 OFFCURVE",
"-81 -229 OFFCURVE",
"-99 -227 CURVE"
);
},
{
closed = 1;
nodes = (
"-273 131 OFFCURVE",
"-254 165 OFFCURVE",
"-244 207 CURVE",
"-240 221 OFFCURVE",
"-237 235 OFFCURVE",
"-237 240 CURVE",
"-235 247 OFFCURVE",
"-236 248 OFFCURVE",
"-239 250 CURVE",
"-249 253 OFFCURVE",
"-276 227 OFFCURVE",
"-292 200 CURVE",
"-313 164 OFFCURVE",
"-319 138 OFFCURVE",
"-310 124 CURVE",
"-307 119 OFFCURVE",
"-300 119 OFFCURVE",
"-290 123 CURVE"
);
},
{
closed = 1;
nodes = (
"-172 330 OFFCURVE",
"-180 331 OFFCURVE",
"-181 332 CURVE",
"-184 334 OFFCURVE",
"-183 341 OFFCURVE",
"-179 344 CURVE",
"-177 345 OFFCURVE",
"-175 349 OFFCURVE",
"-174 354 CURVE",
"-172 370 OFFCURVE",
"-188 391 OFFCURVE",
"-222 415 CURVE",
"-241 428 OFFCURVE",
"-242 432 OFFCURVE",
"-227 432 CURVE",
"-207 432 OFFCURVE",
"-179 419 OFFCURVE",
"-149 398 CURVE",
"-125 381 OFFCURVE",
"-113 349 OFFCURVE",
"-124 332 CURVE",
"-127 328 OFFCURVE",
"-128 327 OFFCURVE",
"-138 328 CURVE",
"-144 328 OFFCURVE",
"-156 328 OFFCURVE",
"-164 329 CURVE"
);
},
{
closed = 1;
nodes = (
"-266 344 OFFCURVE",
"-272 346 OFFCURVE",
"-275 349 CURVE",
"-277 352 OFFCURVE",
"-277 354 OFFCURVE",
"-272 361 CURVE",
"-265 372 OFFCURVE",
"-266 375 OFFCURVE",
"-277 387 CURVE",
"-287 398 OFFCURVE",
"-297 404 OFFCURVE",
"-317 415 CURVE",
"-325 420 OFFCURVE",
"-332 424 OFFCURVE",
"-332 425 CURVE",
"-332 427 OFFCURVE",
"-330 429 OFFCURVE",
"-327 431 CURVE",
"-323 433 OFFCURVE",
"-321 433 OFFCURVE",
"-299 427 CURVE",
"-271 419 OFFCURVE",
"-243 407 OFFCURVE",
"-231 396 CURVE",
"-219 385 OFFCURVE",
"-213 373 OFFCURVE",
"-213 359 CURVE",
"-213 343 OFFCURVE",
"-217 340 OFFCURVE",
"-234 340 CURVE",
"-241 340 OFFCURVE",
"-250 341 OFFCURVE",
"-255 342 CURVE"
);
}
);
width = 0;
}
);
unicode = 0054;
},
{
glyphname = V;
lastChange = "2019-02-24 22:46:33 +0000";
layers = (
{
layerId = "74DDE396-3882-446A-A041-640634B78C39";
paths = (
{
closed = 1;
nodes = (
"-473 283 OFFCURVE",
"-474 285 OFFCURVE",
"-474 288 CURVE",
"-474 291 OFFCURVE",
"-452 352 OFFCURVE",
"-425 423 CURVE",
"-377 554 LINE",
"-384 567 LINE",
"-395 588 OFFCURVE",
"-421 626 OFFCURVE",
"-432 638 CURVE",
"-445 651 OFFCURVE",
"-456 658 OFFCURVE",
"-466 660 CURVE",
"-474 661 OFFCURVE",
"-476 665 OFFCURVE",
"-476 678 CURVE",
"-476 692 OFFCURVE",
"-473 700 OFFCURVE",
"-463 709 CURVE",
"-455 718 OFFCURVE",
"-440 724 OFFCURVE",
"-428 725 CURVE",
"-421 726 LINE",
"-388 685 LINE",
"-358 650 OFFCURVE",
"-353 645 OFFCURVE",
"-348 645 CURVE",
"-343 644 OFFCURVE",
"-342 645 OFFCURVE",
"-337 656 CURVE",
"-334 663 OFFCURVE",
"-325 682 OFFCURVE",
"-317 698 CURVE",
"-302 728 OFFCURVE",
"-289 748 OFFCURVE",
"-282 752 CURVE",
"-280 753 OFFCURVE",
"-273 753 OFFCURVE",
"-265 753 CURVE",
"-251 752 LINE",
"-249 745 LINE",
"-246 738 LINE",
"-268 709 LINE",
"-287 683 OFFCURVE",
"-291 677 OFFCURVE",
"-301 654 CURVE",
"-315 623 OFFCURVE",
"-317 616 OFFCURVE",
"-316 598 CURVE",
"-316 586 OFFCURVE",
"-314 582 OFFCURVE",
"-306 565 CURVE",
"-301 554 OFFCURVE",
"-293 538 OFFCURVE",
"-288 530 CURVE",
"-279 513 OFFCURVE",
"-252 449 OFFCURVE",
"-240 412 CURVE",
"-228 376 OFFCURVE",
"-223 358 OFFCURVE",
"-222 340 CURVE",
"-221 320 OFFCURVE",
"-223 315 OFFCURVE",
"-237 307 CURVE",
"-248 300 OFFCURVE",
"-258 299 OFFCURVE",
"-261 304 CURVE",
"-262 306 OFFCURVE",
"-274 336 OFFCURVE",
"-287 371 CURVE",
"-307 423 OFFCURVE",
"-315 441 OFFCURVE",
"-332 475 CURVE",
"-344 497 OFFCURVE",
"-354 516 OFFCURVE",
"-355 516 CURVE",
"-355 516 OFFCURVE",
"-374 465 OFFCURVE",
"-395 402 CURVE",
"-434 287 LINE",
"-446 286 LINE",
"-453 286 OFFCURVE",
"-461 284 OFFCURVE",
"-464 283 CURVE",
"-470 281 OFFCURVE",
"-471 280 OFFCURVE",
"-473 282 CURVE"
);
},
{
closed = 1;
nodes = (
"-389 771 OFFCURVE",
"-396 775 OFFCURVE",
"-399 778 CURVE",
"-404 783 LINE",
"-400 839 LINE",
"-397 870 OFFCURVE",
"-395 897 OFFCURVE",
"-395 899 CURVE",
"-395 902 OFFCURVE",
"-398 902 OFFCURVE",
"-439 902 CURVE",
"-464 902 OFFCURVE",
"-491 901 OFFCURVE",
"-500 900 CURVE",
"-549 895 OFFCURVE",
"-561 896 OFFCURVE",
"-570 905 CURVE",
"-574 909 OFFCURVE",
"-575 910 OFFCURVE",
"-574 921 CURVE",
"-572 934 OFFCURVE",
"-569 942 OFFCURVE",
"-561 947 CURVE",
"-557 951 OFFCURVE",
"-554 951 OFFCURVE",
"-541 950 CURVE",
"-512 949 OFFCURVE",
"-420 949 OFFCURVE",
"-364 951 CURVE",
"-308 953 LINE",
"-305 948 LINE",
"-300 942 OFFCURVE",
"-301 930 OFFCURVE",
"-308 917 CURVE",
"-315 900 OFFCURVE",
"-320 877 OFFCURVE",
"-322 841 CURVE",
"-324 797 OFFCURVE",
"-329 784 OFFCURVE",
"-349 770 CURVE",
"-360 763 OFFCURVE",
"-366 763 OFFCURVE",
"-382 769 CURVE"
);
}
);
width = 0;
},
{
layerId = "14C6E355-B074-4D1E-9097-146622FBF431";
paths = (
{
closed = 1;
nodes = (
"-473 283 OFFCURVE",
"-474 285 OFFCURVE",
"-474 288 CURVE",
"-474 291 OFFCURVE",
"-452 352 OFFCURVE",
"-425 423 CURVE",
"-377 554 LINE",
"-384 567 LINE",
"-395 588 OFFCURVE",
"-421 626 OFFCURVE",
"-432 638 CURVE",
"-445 651 OFFCURVE",
"-456 658 OFFCURVE",
"-466 660 CURVE",
"-474 661 OFFCURVE",
"-476 665 OFFCURVE",
"-476 678 CURVE",
"-476 692 OFFCURVE",
"-473 700 OFFCURVE",
"-463 709 CURVE",
"-455 718 OFFCURVE",
"-440 724 OFFCURVE",
"-428 725 CURVE",
"-421 726 LINE",
"-388 685 LINE",
"-358 650 OFFCURVE",
"-353 645 OFFCURVE",
"-348 645 CURVE",
"-343 644 OFFCURVE",
"-342 645 OFFCURVE",
"-337 656 CURVE",
"-334 663 OFFCURVE",
"-325 682 OFFCURVE",
"-317 698 CURVE",
"-302 728 OFFCURVE",
"-289 748 OFFCURVE",
"-282 752 CURVE",
"-280 753 OFFCURVE",
"-273 753 OFFCURVE",
"-265 753 CURVE",
"-251 752 LINE",
"-249 745 LINE",
"-246 738 LINE",
"-268 709 LINE",
"-287 683 OFFCURVE",
"-291 677 OFFCURVE",
"-301 654 CURVE",
"-315 623 OFFCURVE",
"-317 616 OFFCURVE",
"-316 598 CURVE",
"-316 586 OFFCURVE",
"-314 582 OFFCURVE",
"-306 565 CURVE",
"-301 554 OFFCURVE",
"-293 538 OFFCURVE",
"-288 530 CURVE",
"-279 513 OFFCURVE",
"-252 449 OFFCURVE",
"-240 412 CURVE",
"-228 376 OFFCURVE",
"-223 358 OFFCURVE",
"-222 340 CURVE",
"-221 320 OFFCURVE",
"-223 315 OFFCURVE",
"-237 307 CURVE",
"-248 300 OFFCURVE",
"-258 299 OFFCURVE",
"-261 304 CURVE",
"-262 306 OFFCURVE",
"-274 336 OFFCURVE",
"-287 371 CURVE",
"-307 423 OFFCURVE",
"-315 441 OFFCURVE",
"-332 475 CURVE",
"-344 497 OFFCURVE",
"-354 516 OFFCURVE",
"-355 516 CURVE",
"-355 516 OFFCURVE",
"-374 465 OFFCURVE",
"-395 402 CURVE",
"-434 287 LINE",
"-446 286 LINE",
"-453 286 OFFCURVE",
"-461 284 OFFCURVE",
"-464 283 CURVE",
"-470 281 OFFCURVE",
"-471 280 OFFCURVE",
"-473 282 CURVE"
);
},
{
closed = 1;
nodes = (
"-389 771 OFFCURVE",
"-396 775 OFFCURVE",
"-399 778 CURVE",
"-404 783 LINE",
"-400 839 LINE",
"-397 870 OFFCURVE",
"-395 897 OFFCURVE",
"-395 899 CURVE",
"-395 902 OFFCURVE",
"-398 902 OFFCURVE",
"-439 902 CURVE",
"-464 902 OFFCURVE",
"-491 901 OFFCURVE",
"-500 900 CURVE",
"-549 895 OFFCURVE",
"-561 896 OFFCURVE",
"-570 905 CURVE",
"-574 909 OFFCURVE",
"-575 910 OFFCURVE",
"-574 921 CURVE",
"-572 934 OFFCURVE",
"-569 942 OFFCURVE",
"-561 947 CURVE",
"-557 951 OFFCURVE",
"-554 951 OFFCURVE",
"-541 950 CURVE",
"-512 949 OFFCURVE",
"-420 949 OFFCURVE",
"-364 951 CURVE",
"-308 953 LINE",
"-305 948 LINE",
"-300 942 OFFCURVE",
"-301 930 OFFCURVE",
"-308 917 CURVE",
"-315 900 OFFCURVE",
"-320 877 OFFCURVE",
"-322 841 CURVE",
"-324 797 OFFCURVE",
"-329 784 OFFCURVE",
"-349 770 CURVE",
"-360 763 OFFCURVE",
"-366 763 OFFCURVE",
"-382 769 CURVE"
);
}
);
width = 0;
}
);
unicode = 0056;
},
{
glyphname = W;
lastChange = "2019-02-24 22:46:33 +0000";
layers = (
{
layerId = "74DDE396-3882-446A-A041-640634B78C39";
paths = (
{
closed = 1;
nodes = (
"-103 -101 OFFCURVE",
"-141 -79 OFFCURVE",
"-169 -49 CURVE",
"-182 -35 OFFCURVE",
"-198 -12 OFFCURVE",
"-207 3 CURVE",
"-213 15 LINE",
"-228 -13 LINE",
"-243 -44 OFFCURVE",
"-256 -63 OFFCURVE",
"-269 -79 CURVE",
"-279 -89 LINE",
"-291 -89 LINE",
"-306 -89 OFFCURVE",
"-330 -84 OFFCURVE",
"-335 -82 CURVE",
"-339 -79 OFFCURVE",
"-337 -72 OFFCURVE",
"-325 -57 CURVE",
"-286 -6 OFFCURVE",
"-251 61 OFFCURVE",
"-245 95 CURVE",
"-241 110 OFFCURVE",
"-258 154 OFFCURVE",
"-276 179 CURVE",
"-292 198 OFFCURVE",
"-305 207 OFFCURVE",
"-339 218 CURVE",
"-360 226 LINE",
"-360 234 LINE",
"-360 242 OFFCURVE",
"-353 248 OFFCURVE",
"-336 250 CURVE",
"-316 253 OFFCURVE",
"-301 251 OFFCURVE",
"-281 241 CURVE",
"-253 227 OFFCURVE",
"-216 194 OFFCURVE",
"-203 174 CURVE",
"-194 157 OFFCURVE",
"-172 108 OFFCURVE",
"-153 64 CURVE",
"-147 48 OFFCURVE",
"-140 35 OFFCURVE",
"-139 35 CURVE",
"-139 36 OFFCURVE",
"-138 44 OFFCURVE",
"-138 55 CURVE",
"-138 73 OFFCURVE",
"-138 74 OFFCURVE",
"-133 80 CURVE",
"-128 83 LINE",
"-61 76 LINE",
"6 71 LINE",
"12 64 LINE",
"16 57 OFFCURVE",
"16 51 OFFCURVE",
"10 46 CURVE",
"6 39 LINE",
"-39 41 LINE",
"-64 43 OFFCURVE",
"-86 44 OFFCURVE",
"-86 43 CURVE",
"-88 40 OFFCURVE",
"-83 -24 OFFCURVE",
"-80 -38 CURVE",
"-76 -57 OFFCURVE",
"-70 -63 OFFCURVE",
"-61 -68 CURVE",
"-50 -72 OFFCURVE",
"-39 -81 OFFCURVE",
"-34 -89 CURVE",
"-30 -94 OFFCURVE",
"-30 -96 OFFCURVE",
"-38 -104 CURVE",
"-41 -107 OFFCURVE",
"-50 -108 OFFCURVE",
"-64 -106 CURVE"
);
}
);
width = 0;
},
{
layerId = "14C6E355-B074-4D1E-9097-146622FBF431";
paths = (
{
closed = 1;
nodes = (
"-103 -101 OFFCURVE",
"-141 -79 OFFCURVE",
"-169 -49 CURVE",
"-182 -35 OFFCURVE",
"-198 -12 OFFCURVE",
"-207 3 CURVE",
"-213 15 LINE",
"-228 -13 LINE",
"-243 -44 OFFCURVE",
"-256 -63 OFFCURVE",
"-269 -79 CURVE",
"-279 -89 LINE",
"-291 -89 LINE",
"-306 -89 OFFCURVE",
"-330 -84 OFFCURVE",
"-335 -82 CURVE",
"-339 -79 OFFCURVE",
"-337 -72 OFFCURVE",
"-325 -57 CURVE",
"-286 -6 OFFCURVE",
"-251 61 OFFCURVE",
"-245 95 CURVE",
"-241 110 OFFCURVE",
"-258 154 OFFCURVE",
"-276 179 CURVE",
"-292 198 OFFCURVE",
"-305 207 OFFCURVE",
"-339 218 CURVE",
"-360 226 LINE",
"-360 234 LINE",
"-360 242 OFFCURVE",
"-353 248 OFFCURVE",
"-336 250 CURVE",
"-316 253 OFFCURVE",
"-301 251 OFFCURVE",
"-281 241 CURVE",
"-253 227 OFFCURVE",
"-216 194 OFFCURVE",
"-203 174 CURVE",
"-194 157 OFFCURVE",
"-172 108 OFFCURVE",
"-153 64 CURVE",
"-147 48 OFFCURVE",
"-140 35 OFFCURVE",
"-139 35 CURVE",
"-139 36 OFFCURVE",
"-138 44 OFFCURVE",
"-138 55 CURVE",
"-138 73 OFFCURVE",
"-138 74 OFFCURVE",
"-133 80 CURVE",
"-128 83 LINE",
"-61 76 LINE",
"6 71 LINE",
"12 64 LINE",
"16 57 OFFCURVE",
"16 51 OFFCURVE",
"10 46 CURVE",
"6 39 LINE",
"-39 41 LINE",
"-64 43 OFFCURVE",
"-86 44 OFFCURVE",
"-86 43 CURVE",
"-88 40 OFFCURVE",
"-83 -24 OFFCURVE",
"-80 -38 CURVE",
"-76 -57 OFFCURVE",
"-70 -63 OFFCURVE",
"-61 -68 CURVE",
"-50 -72 OFFCURVE",
"-39 -81 OFFCURVE",
"-34 -89 CURVE",
"-30 -94 OFFCURVE",
"-30 -96 OFFCURVE",
"-38 -104 CURVE",
"-41 -107 OFFCURVE",
"-50 -108 OFFCURVE",
"-64 -106 CURVE"
);
}
);
width = 0;
}
);
unicode = 0057;
},
{
glyphname = X;
lastChange = "2019-02-24 22:46:33 +0000";
layers = (
{
layerId = "74DDE396-3882-446A-A041-640634B78C39";
paths = (
{
closed = 1;
nodes = (
"-473 283 OFFCURVE",
"-474 285 OFFCURVE",
"-474 288 CURVE",
"-474 291 OFFCURVE",
"-452 352 OFFCURVE",
"-425 423 CURVE",
"-377 554 LINE",
"-384 567 LINE",
"-395 588 OFFCURVE",
"-421 626 OFFCURVE",
"-432 638 CURVE",
"-445 651 OFFCURVE",
"-456 658 OFFCURVE",
"-466 660 CURVE",
"-474 661 OFFCURVE",
"-476 665 OFFCURVE",
"-476 678 CURVE",
"-476 692 OFFCURVE",
"-473 700 OFFCURVE",
"-463 709 CURVE",
"-455 718 OFFCURVE",
"-440 724 OFFCURVE",
"-428 725 CURVE",
"-421 726 LINE",
"-388 685 LINE",
"-358 650 OFFCURVE",
"-353 645 OFFCURVE",
"-348 645 CURVE",
"-343 644 OFFCURVE",
"-342 645 OFFCURVE",
"-337 656 CURVE",
"-334 663 OFFCURVE",
"-325 682 OFFCURVE",
"-317 698 CURVE",
"-302 728 OFFCURVE",
"-289 748 OFFCURVE",
"-282 752 CURVE",
"-280 753 OFFCURVE",
"-273 753 OFFCURVE",
"-265 753 CURVE",
"-251 752 LINE",
"-249 745 LINE",
"-246 738 LINE",
"-268 709 LINE",
"-287 683 OFFCURVE",
"-291 677 OFFCURVE",
"-301 654 CURVE",
"-315 623 OFFCURVE",
"-317 616 OFFCURVE",
"-316 598 CURVE",
"-316 586 OFFCURVE",
"-314 582 OFFCURVE",
"-306 565 CURVE",
"-301 554 OFFCURVE",
"-293 538 OFFCURVE",
"-288 530 CURVE",
"-279 513 OFFCURVE",
"-252 449 OFFCURVE",
"-240 412 CURVE",
"-228 376 OFFCURVE",
"-223 358 OFFCURVE",
"-222 340 CURVE",
"-221 320 OFFCURVE",
"-223 315 OFFCURVE",
"-237 307 CURVE",
"-248 300 OFFCURVE",
"-258 299 OFFCURVE",
"-261 304 CURVE",
"-262 306 OFFCURVE",
"-274 336 OFFCURVE",
"-287 371 CURVE",
"-307 423 OFFCURVE",
"-315 441 OFFCURVE",
"-332 475 CURVE",
"-344 497 OFFCURVE",
"-354 516 OFFCURVE",
"-355 516 CURVE",
"-355 516 OFFCURVE",
"-374 465 OFFCURVE",
"-395 402 CURVE",
"-434 287 LINE",
"-446 286 LINE",
"-453 286 OFFCURVE",
"-461 284 OFFCURVE",
"-464 283 CURVE",
"-470 281 OFFCURVE",
"-471 280 OFFCURVE",
"-473 282 CURVE"
);
},
{
closed = 1;
nodes = (
"-352 773 OFFCURVE",
"-358 772 OFFCURVE",
"-374 780 CURVE",
"-398 788 OFFCURVE",
"-398 786 OFFCURVE",
"-393 844 CURVE",
"-392 872 OFFCURVE",
"-388 896 OFFCURVE",
"-388 901 CURVE",
"-388 906 LINE",
"-416 906 LINE",
"-433 906 OFFCURVE",
"-465 905 OFFCURVE",
"-490 904 CURVE",
"-541 902 OFFCURVE",
"-552 902 OFFCURVE",
"-556 911 CURVE",
"-559 916 OFFCURVE",
"-559 920 OFFCURVE",
"-556 963 CURVE",
"-554 990 OFFCURVE",
"-552 1016 OFFCURVE",
"-552 1023 CURVE",
"-550 1034 LINE",
"-630 1032 LINE",
"-725 1031 OFFCURVE",
"-722 1031 OFFCURVE",
"-721 1054 CURVE",
"-718 1065 OFFCURVE",
"-716 1070 OFFCURVE",
"-711 1075 CURVE",
"-703 1082 LINE",
"-585 1083 LINE",
"-466 1083 LINE",
"-462 1079 LINE",
"-458 1072 OFFCURVE",
"-459 1063 OFFCURVE",
"-465 1048 CURVE",
"-473 1032 OFFCURVE",
"-477 1014 OFFCURVE",
"-479 977 CURVE",
"-480 953 LINE",
"-392 954 LINE",
"-304 955 LINE",
"-300 950 LINE",
"-295 941 OFFCURVE",
"-295 935 OFFCURVE",
"-300 927 CURVE",
"-311 911 OFFCURVE",
"-315 891 OFFCURVE",
"-317 851 CURVE",
"-319 809 OFFCURVE",
"-324 794 OFFCURVE",
"-342 782 CURVE"
);
}
);
width = 0;
},
{
layerId = "14C6E355-B074-4D1E-9097-146622FBF431";
paths = (
{
closed = 1;
nodes = (
"-473 283 OFFCURVE",
"-474 285 OFFCURVE",
"-474 288 CURVE",
"-474 291 OFFCURVE",
"-452 352 OFFCURVE",
"-425 423 CURVE",
"-377 554 LINE",
"-384 567 LINE",
"-395 588 OFFCURVE",
"-421 626 OFFCURVE",
"-432 638 CURVE",
"-445 651 OFFCURVE",
"-456 658 OFFCURVE",
"-466 660 CURVE",
"-474 661 OFFCURVE",
"-476 665 OFFCURVE",
"-476 678 CURVE",
"-476 692 OFFCURVE",
"-473 700 OFFCURVE",
"-463 709 CURVE",
"-455 718 OFFCURVE",
"-440 724 OFFCURVE",
"-428 725 CURVE",
"-421 726 LINE",
"-388 685 LINE",
"-358 650 OFFCURVE",
"-353 645 OFFCURVE",
"-348 645 CURVE",
"-343 644 OFFCURVE",
"-342 645 OFFCURVE",
"-337 656 CURVE",
"-334 663 OFFCURVE",
"-325 682 OFFCURVE",
"-317 698 CURVE",
"-302 728 OFFCURVE",
"-289 748 OFFCURVE",
"-282 752 CURVE",
"-280 753 OFFCURVE",
"-273 753 OFFCURVE",
"-265 753 CURVE",
"-251 752 LINE",
"-249 745 LINE",
"-246 738 LINE",
"-268 709 LINE",
"-287 683 OFFCURVE",
"-291 677 OFFCURVE",
"-301 654 CURVE",
"-315 623 OFFCURVE",
"-317 616 OFFCURVE",
"-316 598 CURVE",
"-316 586 OFFCURVE",
"-314 582 OFFCURVE",
"-306 565 CURVE",
"-301 554 OFFCURVE",
"-293 538 OFFCURVE",
"-288 530 CURVE",
"-279 513 OFFCURVE",
"-252 449 OFFCURVE",
"-240 412 CURVE",
"-228 376 OFFCURVE",
"-223 358 OFFCURVE",
"-222 340 CURVE",
"-221 320 OFFCURVE",
"-223 315 OFFCURVE",
"-237 307 CURVE",
"-248 300 OFFCURVE",
"-258 299 OFFCURVE",
"-261 304 CURVE",
"-262 306 OFFCURVE",
"-274 336 OFFCURVE",
"-287 371 CURVE",
"-307 423 OFFCURVE",
"-315 441 OFFCURVE",
"-332 475 CURVE",
"-344 497 OFFCURVE",
"-354 516 OFFCURVE",
"-355 516 CURVE",
"-355 516 OFFCURVE",
"-374 465 OFFCURVE",
"-395 402 CURVE",
"-434 287 LINE",
"-446 286 LINE",
"-453 286 OFFCURVE",
"-461 284 OFFCURVE",
"-464 283 CURVE",
"-470 281 OFFCURVE",
"-471 280 OFFCURVE",
"-473 282 CURVE"
);
},
{
closed = 1;
nodes = (
"-352 773 OFFCURVE",
"-358 772 OFFCURVE",
"-374 780 CURVE",
"-398 788 OFFCURVE",
"-398 786 OFFCURVE",
"-393 844 CURVE",
"-392 872 OFFCURVE",
"-388 896 OFFCURVE",
"-388 901 CURVE",
"-388 906 LINE",
"-416 906 LINE",
"-433 906 OFFCURVE",
"-465 905 OFFCURVE",
"-490 904 CURVE",
"-541 902 OFFCURVE",
"-552 902 OFFCURVE",
"-556 911 CURVE",
"-559 916 OFFCURVE",
"-559 920 OFFCURVE",
"-556 963 CURVE",
"-554 990 OFFCURVE",
"-552 1016 OFFCURVE",
"-552 1023 CURVE",
"-550 1034 LINE",
"-630 1032 LINE",
"-725 1031 OFFCURVE",
"-722 1031 OFFCURVE",
"-721 1054 CURVE",
"-718 1065 OFFCURVE",
"-716 1070 OFFCURVE",
"-711 1075 CURVE",
"-703 1082 LINE",
"-585 1083 LINE",
"-466 1083 LINE",
"-462 1079 LINE",
"-458 1072 OFFCURVE",
"-459 1063 OFFCURVE",
"-465 1048 CURVE",
"-473 1032 OFFCURVE",
"-477 1014 OFFCURVE",
"-479 977 CURVE",
"-480 953 LINE",
"-392 954 LINE",
"-304 955 LINE",
"-300 950 LINE",
"-295 941 OFFCURVE",
"-295 935 OFFCURVE",
"-300 927 CURVE",
"-311 911 OFFCURVE",
"-315 891 OFFCURVE",
"-317 851 CURVE",
"-319 809 OFFCURVE",
"-324 794 OFFCURVE",
"-342 782 CURVE"
);
}
);
width = 0;
}
);
unicode = 0058;
},
{
glyphname = Z;
lastChange = "2019-02-24 22:46:33 +0000";
layers = (
{
layerId = "74DDE396-3882-446A-A041-640634B78C39";
paths = (
{
closed = 1;
nodes = (
"-473 283 OFFCURVE",
"-474 285 OFFCURVE",
"-474 288 CURVE",
"-474 291 OFFCURVE",
"-452 352 OFFCURVE",
"-425 423 CURVE",
"-377 554 LINE",
"-384 567 LINE",
"-395 588 OFFCURVE",
"-421 626 OFFCURVE",
"-432 638 CURVE",
"-445 651 OFFCURVE",
"-456 658 OFFCURVE",
"-466 660 CURVE",
"-474 661 OFFCURVE",
"-476 665 OFFCURVE",
"-476 678 CURVE",
"-476 692 OFFCURVE",
"-473 700 OFFCURVE",
"-463 709 CURVE",
"-455 718 OFFCURVE",
"-440 724 OFFCURVE",
"-428 725 CURVE",
"-421 726 LINE",
"-388 685 LINE",
"-358 650 OFFCURVE",
"-353 645 OFFCURVE",
"-348 645 CURVE",
"-343 644 OFFCURVE",
"-342 645 OFFCURVE",
"-337 656 CURVE",
"-334 663 OFFCURVE",
"-325 682 OFFCURVE",
"-317 698 CURVE",
"-302 728 OFFCURVE",
"-289 748 OFFCURVE",
"-282 752 CURVE",
"-280 753 OFFCURVE",
"-273 753 OFFCURVE",
"-265 753 CURVE",
"-251 752 LINE",
"-249 745 LINE",
"-246 738 LINE",
"-268 709 LINE",
"-287 683 OFFCURVE",
"-291 677 OFFCURVE",
"-301 654 CURVE",
"-315 623 OFFCURVE",
"-317 616 OFFCURVE",
"-316 598 CURVE",
"-316 586 OFFCURVE",
"-314 582 OFFCURVE",
"-306 565 CURVE",
"-301 554 OFFCURVE",
"-293 538 OFFCURVE",
"-288 530 CURVE",
"-279 513 OFFCURVE",
"-252 449 OFFCURVE",
"-240 412 CURVE",
"-228 376 OFFCURVE",
"-223 358 OFFCURVE",
"-222 340 CURVE",
"-221 320 OFFCURVE",
"-223 315 OFFCURVE",
"-237 307 CURVE",
"-248 300 OFFCURVE",
"-258 299 OFFCURVE",
"-261 304 CURVE",
"-262 306 OFFCURVE",
"-274 336 OFFCURVE",
"-287 371 CURVE",
"-307 423 OFFCURVE",
"-315 441 OFFCURVE",
"-332 475 CURVE",
"-344 497 OFFCURVE",
"-354 516 OFFCURVE",
"-355 516 CURVE",
"-355 516 OFFCURVE",
"-374 465 OFFCURVE",
"-395 402 CURVE",
"-434 287 LINE",
"-446 286 LINE",
"-453 286 OFFCURVE",
"-461 284 OFFCURVE",
"-464 283 CURVE",
"-470 281 OFFCURVE",
"-471 280 OFFCURVE",
"-473 282 CURVE"
);
},
{
closed = 1;
nodes = (
"-304 955 LINE",
"-480 953 LINE",
"-479 977 LINE SMOOTH",
"-477 1014 OFFCURVE",
"-473 1032 OFFCURVE",
"-465 1048 CURVE",
"-459 1063 OFFCURVE",
"-458 1072 OFFCURVE",
"-462 1079 CURVE",
"-466 1083 LINE",
"-640 1083 LINE",
"-639 1090 OFFCURVE",
"-639 1100 OFFCURVE",
"-638 1111 CURVE",
"-636 1147 OFFCURVE",
"-631 1170 OFFCURVE",
"-624 1187 CURVE",
"-617 1200 OFFCURVE",
"-616 1212 OFFCURVE",
"-621 1218 CURVE",
"-624 1223 LINE",
"-680 1221 LINE SMOOTH",
"-736 1219 OFFCURVE",
"-828 1219 OFFCURVE",
"-857 1220 CURVE",
"-870 1221 OFFCURVE",
"-873 1221 OFFCURVE",
"-877 1217 CURVE",
"-885 1212 OFFCURVE",
"-888 1204 OFFCURVE",
"-890 1191 CURVE",
"-891 1180 OFFCURVE",
"-890 1179 OFFCURVE",
"-886 1175 CURVE SMOOTH",
"-877 1166 OFFCURVE",
"-865 1165 OFFCURVE",
"-816 1170 CURVE SMOOTH",
"-807 1171 OFFCURVE",
"-780 1172 OFFCURVE",
"-755 1172 CURVE SMOOTH",
"-714 1172 OFFCURVE",
"-711 1172 OFFCURVE",
"-711 1169 CURVE SMOOTH",
"-711 1167 OFFCURVE",
"-714 1140 OFFCURVE",
"-716 1109 CURVE SMOOTH",
"-720 1059 LINE",
"-720 1057 OFFCURVE",
"-721 1056 OFFCURVE",
"-721 1054 CURVE",
"-722 1031 OFFCURVE",
"-725 1030 OFFCURVE",
"-630 1032 CURVE SMOOTH",
"-550 1034 LINE",
"-552 1023 LINE",
"-552 1016 OFFCURVE",
"-554 990 OFFCURVE",
"-556 963 CURVE SMOOTH",
"-559 920 OFFCURVE",
"-559 916 OFFCURVE",
"-556 911 CURVE",
"-552 902 OFFCURVE",
"-541 902 OFFCURVE",
"-490 904 CURVE SMOOTH",
"-465 905 OFFCURVE",
"-433 906 OFFCURVE",
"-416 906 CURVE SMOOTH",
"-388 906 LINE",
"-388 901 LINE SMOOTH",
"-388 896 OFFCURVE",
"-392 872 OFFCURVE",
"-393 844 CURVE",
"-398 786 OFFCURVE",
"-398 788 OFFCURVE",
"-374 780 CURVE",
"-358 772 OFFCURVE",
"-352 773 OFFCURVE",
"-342 782 CURVE",
"-324 794 OFFCURVE",
"-319 809 OFFCURVE",
"-317 851 CURVE SMOOTH",
"-315 891 OFFCURVE",
"-311 911 OFFCURVE",
"-300 927 CURVE",
"-295 935 OFFCURVE",
"-295 941 OFFCURVE",
"-300 950 CURVE"
);
}
);
width = 0;
},
{
layerId = "14C6E355-B074-4D1E-9097-146622FBF431";
paths = (
{
closed = 1;
nodes = (
"-473 283 OFFCURVE",
"-474 285 OFFCURVE",
"-474 288 CURVE",
"-474 291 OFFCURVE",
"-452 352 OFFCURVE",
"-425 423 CURVE",
"-377 554 LINE",
"-384 567 LINE",
"-395 588 OFFCURVE",
"-421 626 OFFCURVE",
"-432 638 CURVE",
"-445 651 OFFCURVE",
"-456 658 OFFCURVE",
"-466 660 CURVE",
"-474 661 OFFCURVE",
"-476 665 OFFCURVE",
"-476 678 CURVE",
"-476 692 OFFCURVE",
"-473 700 OFFCURVE",
"-463 709 CURVE",
"-455 718 OFFCURVE",
"-440 724 OFFCURVE",
"-428 725 CURVE",
"-421 726 LINE",
"-388 685 LINE",
"-358 650 OFFCURVE",
"-353 645 OFFCURVE",
"-348 645 CURVE",
"-343 644 OFFCURVE",
"-342 645 OFFCURVE",
"-337 656 CURVE",
"-334 663 OFFCURVE",
"-325 682 OFFCURVE",
"-317 698 CURVE",
"-302 728 OFFCURVE",
"-289 748 OFFCURVE",
"-282 752 CURVE",
"-280 753 OFFCURVE",
"-273 753 OFFCURVE",
"-265 753 CURVE",
"-251 752 LINE",
"-249 745 LINE",
"-246 738 LINE",
"-268 709 LINE",
"-287 683 OFFCURVE",
"-291 677 OFFCURVE",
"-301 654 CURVE",
"-315 623 OFFCURVE",
"-317 616 OFFCURVE",
"-316 598 CURVE",
"-316 586 OFFCURVE",
"-314 582 OFFCURVE",
"-306 565 CURVE",
"-301 554 OFFCURVE",
"-293 538 OFFCURVE",
"-288 530 CURVE",
"-279 513 OFFCURVE",
"-252 449 OFFCURVE",
"-240 412 CURVE",
"-228 376 OFFCURVE",
"-223 358 OFFCURVE",
"-222 340 CURVE",
"-221 320 OFFCURVE",
"-223 315 OFFCURVE",
"-237 307 CURVE",
"-248 300 OFFCURVE",
"-258 299 OFFCURVE",
"-261 304 CURVE",
"-262 306 OFFCURVE",
"-274 336 OFFCURVE",
"-287 371 CURVE",
"-307 423 OFFCURVE",
"-315 441 OFFCURVE",
"-332 475 CURVE",
"-344 497 OFFCURVE",
"-354 516 OFFCURVE",
"-355 516 CURVE",
"-355 516 OFFCURVE",
"-374 465 OFFCURVE",
"-395 402 CURVE",
"-434 287 LINE",
"-446 286 LINE",
"-453 286 OFFCURVE",
"-461 284 OFFCURVE",
"-464 283 CURVE",
"-470 281 OFFCURVE",
"-471 280 OFFCURVE",
"-473 282 CURVE"
);
},
{
closed = 1;
nodes = (
"-304 955 LINE",
"-480 953 LINE",
"-479 977 LINE SMOOTH",
"-477 1014 OFFCURVE",
"-473 1032 OFFCURVE",
"-465 1048 CURVE",
"-459 1063 OFFCURVE",
"-458 1072 OFFCURVE",
"-462 1079 CURVE",
"-466 1083 LINE",
"-640 1083 LINE",
"-639 1090 OFFCURVE",
"-639 1100 OFFCURVE",
"-638 1111 CURVE",
"-636 1147 OFFCURVE",
"-631 1170 OFFCURVE",
"-624 1187 CURVE",
"-617 1200 OFFCURVE",
"-616 1212 OFFCURVE",
"-621 1218 CURVE",
"-624 1223 LINE",
"-680 1221 LINE SMOOTH",
"-736 1219 OFFCURVE",
"-828 1219 OFFCURVE",
"-857 1220 CURVE",
"-870 1221 OFFCURVE",
"-873 1221 OFFCURVE",
"-877 1217 CURVE",
"-885 1212 OFFCURVE",
"-888 1204 OFFCURVE",
"-890 1191 CURVE",
"-891 1180 OFFCURVE",
"-890 1179 OFFCURVE",
"-886 1175 CURVE SMOOTH",
"-877 1166 OFFCURVE",
"-865 1165 OFFCURVE",
"-816 1170 CURVE SMOOTH",
"-807 1171 OFFCURVE",
"-780 1172 OFFCURVE",
"-755 1172 CURVE SMOOTH",
"-714 1172 OFFCURVE",
"-711 1172 OFFCURVE",
"-711 1169 CURVE SMOOTH",
"-711 1167 OFFCURVE",
"-714 1140 OFFCURVE",
"-716 1109 CURVE SMOOTH",
"-720 1059 LINE",
"-720 1057 OFFCURVE",
"-721 1056 OFFCURVE",
"-721 1054 CURVE",
"-722 1031 OFFCURVE",
"-725 1030 OFFCURVE",
"-630 1032 CURVE SMOOTH",
"-550 1034 LINE",
"-552 1023 LINE",
"-552 1016 OFFCURVE",
"-554 990 OFFCURVE",
"-556 963 CURVE SMOOTH",
"-559 920 OFFCURVE",
"-559 916 OFFCURVE",
"-556 911 CURVE",
"-552 902 OFFCURVE",
"-541 902 OFFCURVE",
"-490 904 CURVE SMOOTH",
"-465 905 OFFCURVE",
"-433 906 OFFCURVE",
"-416 906 CURVE SMOOTH",
"-388 906 LINE",
"-388 901 LINE SMOOTH",
"-388 896 OFFCURVE",
"-392 872 OFFCURVE",
"-393 844 CURVE",
"-398 786 OFFCURVE",
"-398 788 OFFCURVE",
"-374 780 CURVE",
"-358 772 OFFCURVE",
"-352 773 OFFCURVE",
"-342 782 CURVE",
"-324 794 OFFCURVE",
"-319 809 OFFCURVE",
"-317 851 CURVE SMOOTH",
"-315 891 OFFCURVE",
"-311 911 OFFCURVE",
"-300 927 CURVE",
"-295 935 OFFCURVE",
"-295 941 OFFCURVE",
"-300 950 CURVE"
);
}
);
width = 0;
}
);
unicode = 005A;
},
{
glyphname = a;
lastChange = "2019-02-24 22:46:33 +0000";
layers = (
{
layerId = "74DDE396-3882-446A-A041-640634B78C39";
paths = (
{
closed = 1;
nodes = (
"456 -287 OFFCURVE",
"448 -283 OFFCURVE",
"443 -280 CURVE",
"429 -272 OFFCURVE",
"429 -267 OFFCURVE",
"443 -252 CURVE",
"454 -240 OFFCURVE",
"462 -228 OFFCURVE",
"462 -226 CURVE",
"462 -219 OFFCURVE",
"406 -232 OFFCURVE",
"310 -260 CURVE",
"221 -286 OFFCURVE",
"224 -285 OFFCURVE",
"185 -287 CURVE",
"143 -289 OFFCURVE",
"127 -285 OFFCURVE",
"109 -271 CURVE",
"94 -259 OFFCURVE",
"89 -252 OFFCURVE",
"87 -238 CURVE",
"84 -226 OFFCURVE",
"84 -223 OFFCURVE",
"87 -214 CURVE",
"93 -198 OFFCURVE",
"98 -189 OFFCURVE",
"111 -177 CURVE",
"123 -165 OFFCURVE",
"140 -158 OFFCURVE",
"160 -155 CURVE",
"172 -153 OFFCURVE",
"174 -153 OFFCURVE",
"181 -157 CURVE",
"186 -159 OFFCURVE",
"192 -163 OFFCURVE",
"194 -167 CURVE",
"199 -177 OFFCURVE",
"197 -181 OFFCURVE",
"179 -208 CURVE",
"158 -236 OFFCURVE",
"159 -238 OFFCURVE",
"190 -238 CURVE",
"210 -238 OFFCURVE",
"216 -238 OFFCURVE",
"260 -228 CURVE",
"285 -220 OFFCURVE",
"325 -210 OFFCURVE",
"346 -204 CURVE",
"392 -191 OFFCURVE",
"422 -184 OFFCURVE",
"456 -183 CURVE",
"478 -182 OFFCURVE",
"482 -182 OFFCURVE",
"492 -186 CURVE",
"509 -191 OFFCURVE",
"528 -207 OFFCURVE",
"532 -217 CURVE",
"537 -228 OFFCURVE",
"534 -247 OFFCURVE",
"528 -257 CURVE",
"512 -281 OFFCURVE",
"482 -295 OFFCURVE",
"462 -289 CURVE"
);
}
);
width = 675;
},
{
layerId = "14C6E355-B074-4D1E-9097-146622FBF431";
paths = (
{
closed = 1;
nodes = (
"456 -287 OFFCURVE",
"448 -283 OFFCURVE",
"443 -280 CURVE",
"429 -272 OFFCURVE",
"429 -267 OFFCURVE",
"443 -252 CURVE",
"454 -240 OFFCURVE",
"462 -228 OFFCURVE",
"462 -226 CURVE",
"462 -219 OFFCURVE",
"406 -232 OFFCURVE",
"310 -260 CURVE",
"221 -286 OFFCURVE",
"224 -285 OFFCURVE",
"185 -287 CURVE",
"143 -289 OFFCURVE",
"127 -285 OFFCURVE",
"109 -271 CURVE",
"94 -259 OFFCURVE",
"89 -252 OFFCURVE",
"87 -238 CURVE",
"84 -226 OFFCURVE",
"84 -223 OFFCURVE",
"87 -214 CURVE",
"93 -198 OFFCURVE",
"98 -189 OFFCURVE",
"111 -177 CURVE",
"123 -165 OFFCURVE",
"140 -158 OFFCURVE",
"160 -155 CURVE",
"172 -153 OFFCURVE",
"174 -153 OFFCURVE",
"181 -157 CURVE",
"186 -159 OFFCURVE",
"192 -163 OFFCURVE",
"194 -167 CURVE",
"199 -177 OFFCURVE",
"197 -181 OFFCURVE",
"179 -208 CURVE",
"158 -236 OFFCURVE",
"159 -238 OFFCURVE",
"190 -238 CURVE",
"210 -238 OFFCURVE",
"216 -238 OFFCURVE",
"260 -228 CURVE",
"285 -220 OFFCURVE",
"325 -210 OFFCURVE",
"346 -204 CURVE",
"392 -191 OFFCURVE",
"422 -184 OFFCURVE",
"456 -183 CURVE",
"478 -182 OFFCURVE",
"482 -182 OFFCURVE",
"492 -186 CURVE",
"509 -191 OFFCURVE",
"528 -207 OFFCURVE",
"532 -217 CURVE",
"537 -228 OFFCURVE",
"534 -247 OFFCURVE",
"528 -257 CURVE",
"512 -281 OFFCURVE",
"482 -295 OFFCURVE",
"462 -289 CURVE"
);
}
);
width = 675;
}
);
unicode = 0061;
},
{
glyphname = b;
lastChange = "2019-02-24 22:46:33 +0000";
layers = (
{
layerId = "74DDE396-3882-446A-A041-640634B78C39";
paths = (
{
closed = 1;
nodes = (
"301 -247 OFFCURVE",
"300 -245 OFFCURVE",
"300 -242 CURVE",
"300 -239 OFFCURVE",
"322 -178 OFFCURVE",
"349 -107 CURVE",
"397 24 LINE",
"390 37 LINE",
"379 58 OFFCURVE",
"353 96 OFFCURVE",
"342 108 CURVE",
"329 121 OFFCURVE",
"318 128 OFFCURVE",
"308 130 CURVE",
"300 131 OFFCURVE",
"298 135 OFFCURVE",
"298 148 CURVE",
"298 162 OFFCURVE",
"301 170 OFFCURVE",
"311 179 CURVE",
"319 188 OFFCURVE",
"334 194 OFFCURVE",
"346 195 CURVE",
"353 196 LINE",
"386 155 LINE",
"416 120 OFFCURVE",
"421 115 OFFCURVE",
"426 115 CURVE",
"431 114 OFFCURVE",
"432 115 OFFCURVE",
"437 126 CURVE",
"440 133 OFFCURVE",
"449 152 OFFCURVE",
"457 168 CURVE",
"472 198 OFFCURVE",
"485 218 OFFCURVE",
"492 222 CURVE",
"494 223 OFFCURVE",
"501 223 OFFCURVE",
"509 223 CURVE",
"523 222 LINE",
"525 215 LINE",
"528 208 LINE",
"506 179 LINE",
"487 153 OFFCURVE",
"483 147 OFFCURVE",
"473 124 CURVE",
"459 93 OFFCURVE",
"457 86 OFFCURVE",
"458 68 CURVE",
"458 56 OFFCURVE",
"460 52 OFFCURVE",
"468 35 CURVE",
"473 24 OFFCURVE",
"481 8 OFFCURVE",
"486 0 CURVE",
"495 -17 OFFCURVE",
"522 -81 OFFCURVE",
"534 -118 CURVE",
"546 -154 OFFCURVE",
"551 -172 OFFCURVE",
"552 -190 CURVE",
"553 -210 OFFCURVE",
"551 -215 OFFCURVE",
"537 -223 CURVE",
"526 -230 OFFCURVE",
"516 -231 OFFCURVE",
"513 -226 CURVE",
"512 -224 OFFCURVE",
"500 -194 OFFCURVE",
"487 -159 CURVE",
"467 -107 OFFCURVE",
"459 -89 OFFCURVE",
"442 -55 CURVE",
"430 -33 OFFCURVE",
"420 -14 OFFCURVE",
"419 -14 CURVE",
"419 -14 OFFCURVE",
"400 -65 OFFCURVE",
"379 -128 CURVE",
"340 -243 LINE",
"328 -244 LINE",
"321 -244 OFFCURVE",
"313 -246 OFFCURVE",
"310 -247 CURVE",
"304 -249 OFFCURVE",
"303 -250 OFFCURVE",
"301 -248 CURVE"
);
},
{
closed = 1;
nodes = (
"305 241 OFFCURVE",
"298 245 OFFCURVE",
"295 248 CURVE",
"290 253 LINE",
"294 309 LINE",
"297 340 OFFCURVE",
"299 367 OFFCURVE",
"299 369 CURVE",
"299 372 OFFCURVE",
"296 372 OFFCURVE",
"255 372 CURVE",
"230 372 OFFCURVE",
"203 371 OFFCURVE",
"194 370 CURVE",
"145 365 OFFCURVE",
"133 366 OFFCURVE",
"124 375 CURVE",
"120 379 OFFCURVE",
"119 380 OFFCURVE",
"120 391 CURVE",
"122 404 OFFCURVE",
"125 412 OFFCURVE",
"133 417 CURVE",
"137 421 OFFCURVE",
"140 421 OFFCURVE",
"153 420 CURVE",
"182 419 OFFCURVE",
"274 419 OFFCURVE",
"330 421 CURVE",
"386 423 LINE",
"389 418 LINE",
"394 412 OFFCURVE",
"393 400 OFFCURVE",
"386 387 CURVE",
"379 370 OFFCURVE",
"374 347 OFFCURVE",
"372 311 CURVE",
"370 267 OFFCURVE",
"365 254 OFFCURVE",
"345 240 CURVE",
"334 233 OFFCURVE",
"328 233 OFFCURVE",
"312 239 CURVE"
);
},
{
closed = 1;
nodes = (
"474 233 OFFCURVE",
"468 233 OFFCURVE",
"457 240 CURVE",
"437 254 OFFCURVE",
"432 267 OFFCURVE",
"430 311 CURVE",
"428 347 OFFCURVE",
"423 370 OFFCURVE",
"416 387 CURVE",
"409 400 OFFCURVE",
"408 412 OFFCURVE",
"413 418 CURVE",
"416 423 LINE",
"472 421 LINE",
"528 419 OFFCURVE",
"620 419 OFFCURVE",
"649 420 CURVE",
"662 421 OFFCURVE",
"665 421 OFFCURVE",
"669 417 CURVE",
"677 412 OFFCURVE",
"680 404 OFFCURVE",
"682 391 CURVE",
"683 380 OFFCURVE",
"682 379 OFFCURVE",
"678 375 CURVE",
"669 366 OFFCURVE",
"657 365 OFFCURVE",
"608 370 CURVE",
"599 371 OFFCURVE",
"572 372 OFFCURVE",
"547 372 CURVE",
"506 372 OFFCURVE",
"503 372 OFFCURVE",
"503 369 CURVE",
"503 367 OFFCURVE",
"505 340 OFFCURVE",
"508 309 CURVE",
"512 253 LINE",
"507 248 LINE",
"504 245 OFFCURVE",
"497 241 OFFCURVE",
"490 239 CURVE"
);
}
);
width = 802;
},
{
layerId = "14C6E355-B074-4D1E-9097-146622FBF431";
paths = (
{
closed = 1;
nodes = (
"301 -247 OFFCURVE",
"300 -245 OFFCURVE",
"300 -242 CURVE",
"300 -239 OFFCURVE",
"322 -178 OFFCURVE",
"349 -107 CURVE",
"397 24 LINE",
"390 37 LINE",
"379 58 OFFCURVE",
"353 96 OFFCURVE",
"342 108 CURVE",
"329 121 OFFCURVE",
"318 128 OFFCURVE",
"308 130 CURVE",
"300 131 OFFCURVE",
"298 135 OFFCURVE",
"298 148 CURVE",
"298 162 OFFCURVE",
"301 170 OFFCURVE",
"311 179 CURVE",
"319 188 OFFCURVE",
"334 194 OFFCURVE",
"346 195 CURVE",
"353 196 LINE",
"386 155 LINE",
"416 120 OFFCURVE",
"421 115 OFFCURVE",
"426 115 CURVE",
"431 114 OFFCURVE",
"432 115 OFFCURVE",
"437 126 CURVE",
"440 133 OFFCURVE",
"449 152 OFFCURVE",
"457 168 CURVE",
"472 198 OFFCURVE",
"485 218 OFFCURVE",
"492 222 CURVE",
"494 223 OFFCURVE",
"501 223 OFFCURVE",
"509 223 CURVE",
"523 222 LINE",
"525 215 LINE",
"528 208 LINE",
"506 179 LINE",
"487 153 OFFCURVE",
"483 147 OFFCURVE",
"473 124 CURVE",
"459 93 OFFCURVE",
"457 86 OFFCURVE",
"458 68 CURVE",
"458 56 OFFCURVE",
"460 52 OFFCURVE",
"468 35 CURVE",
"473 24 OFFCURVE",
"481 8 OFFCURVE",
"486 0 CURVE",
"495 -17 OFFCURVE",
"522 -81 OFFCURVE",
"534 -118 CURVE",
"546 -154 OFFCURVE",
"551 -172 OFFCURVE",
"552 -190 CURVE",
"553 -210 OFFCURVE",
"551 -215 OFFCURVE",
"537 -223 CURVE",
"526 -230 OFFCURVE",
"516 -231 OFFCURVE",
"513 -226 CURVE",
"512 -224 OFFCURVE",
"500 -194 OFFCURVE",
"487 -159 CURVE",
"467 -107 OFFCURVE",
"459 -89 OFFCURVE",
"442 -55 CURVE",
"430 -33 OFFCURVE",
"420 -14 OFFCURVE",
"419 -14 CURVE",
"419 -14 OFFCURVE",
"400 -65 OFFCURVE",
"379 -128 CURVE",
"340 -243 LINE",
"328 -244 LINE",
"321 -244 OFFCURVE",
"313 -246 OFFCURVE",
"310 -247 CURVE",
"304 -249 OFFCURVE",
"303 -250 OFFCURVE",
"301 -248 CURVE"
);
},
{
closed = 1;
nodes = (
"305 241 OFFCURVE",
"298 245 OFFCURVE",
"295 248 CURVE",
"290 253 LINE",
"294 309 LINE",
"297 340 OFFCURVE",
"299 367 OFFCURVE",
"299 369 CURVE",
"299 372 OFFCURVE",
"296 372 OFFCURVE",
"255 372 CURVE",
"230 372 OFFCURVE",
"203 371 OFFCURVE",
"194 370 CURVE",
"145 365 OFFCURVE",
"133 366 OFFCURVE",
"124 375 CURVE",
"120 379 OFFCURVE",
"119 380 OFFCURVE",
"120 391 CURVE",
"122 404 OFFCURVE",
"125 412 OFFCURVE",
"133 417 CURVE",
"137 421 OFFCURVE",
"140 421 OFFCURVE",
"153 420 CURVE",
"182 419 OFFCURVE",
"274 419 OFFCURVE",
"330 421 CURVE",
"386 423 LINE",
"389 418 LINE",
"394 412 OFFCURVE",
"393 400 OFFCURVE",
"386 387 CURVE",
"379 370 OFFCURVE",
"374 347 OFFCURVE",
"372 311 CURVE",
"370 267 OFFCURVE",
"365 254 OFFCURVE",
"345 240 CURVE",
"334 233 OFFCURVE",
"328 233 OFFCURVE",
"312 239 CURVE"
);
},
{
closed = 1;
nodes = (
"474 233 OFFCURVE",
"468 233 OFFCURVE",
"457 240 CURVE",
"437 254 OFFCURVE",
"432 267 OFFCURVE",
"430 311 CURVE",
"428 347 OFFCURVE",
"423 370 OFFCURVE",
"416 387 CURVE",
"409 400 OFFCURVE",
"408 412 OFFCURVE",
"413 418 CURVE",
"416 423 LINE",
"472 421 LINE",
"528 419 OFFCURVE",
"620 419 OFFCURVE",
"649 420 CURVE",
"662 421 OFFCURVE",
"665 421 OFFCURVE",
"669 417 CURVE",
"677 412 OFFCURVE",
"680 404 OFFCURVE",
"682 391 CURVE",
"683 380 OFFCURVE",
"682 379 OFFCURVE",
"678 375 CURVE",
"669 366 OFFCURVE",
"657 365 OFFCURVE",
"608 370 CURVE",
"599 371 OFFCURVE",
"572 372 OFFCURVE",
"547 372 CURVE",
"506 372 OFFCURVE",
"503 372 OFFCURVE",
"503 369 CURVE",
"503 367 OFFCURVE",
"505 340 OFFCURVE",
"508 309 CURVE",
"512 253 LINE",
"507 248 LINE",
"504 245 OFFCURVE",
"497 241 OFFCURVE",
"490 239 CURVE"
);
}
);
width = 802;
}
);
unicode = 0062;
},
{
glyphname = c;
lastChange = "2019-02-24 22:46:33 +0000";
layers = (
{
layerId = "74DDE396-3882-446A-A041-640634B78C39";
paths = (
{
closed = 1;
nodes = (
"222 -247 OFFCURVE",
"221 -245 OFFCURVE",
"221 -242 CURVE",
"221 -239 OFFCURVE",
"243 -178 OFFCURVE",
"270 -107 CURVE",
"318 24 LINE",
"311 37 LINE",
"300 58 OFFCURVE",
"274 96 OFFCURVE",
"263 108 CURVE",
"250 121 OFFCURVE",
"239 128 OFFCURVE",
"229 130 CURVE",
"221 131 OFFCURVE",
"219 135 OFFCURVE",
"219 148 CURVE",
"219 162 OFFCURVE",
"222 170 OFFCURVE",
"232 179 CURVE",
"240 188 OFFCURVE",
"255 194 OFFCURVE",
"267 195 CURVE",
"274 196 LINE",
"307 155 LINE",
"337 120 OFFCURVE",
"342 115 OFFCURVE",
"347 115 CURVE",
"352 114 OFFCURVE",
"353 115 OFFCURVE",
"358 126 CURVE",
"361 133 OFFCURVE",
"370 152 OFFCURVE",
"378 168 CURVE",
"393 198 OFFCURVE",
"406 218 OFFCURVE",
"413 222 CURVE",
"415 223 OFFCURVE",
"422 223 OFFCURVE",
"430 223 CURVE",
"444 222 LINE",
"446 215 LINE",
"449 208 LINE",
"427 179 LINE",
"408 153 OFFCURVE",
"404 147 OFFCURVE",
"394 124 CURVE",
"380 93 OFFCURVE",
"378 86 OFFCURVE",
"379 68 CURVE",
"379 56 OFFCURVE",
"381 52 OFFCURVE",
"389 35 CURVE",
"394 24 OFFCURVE",
"402 8 OFFCURVE",
"407 0 CURVE",
"416 -17 OFFCURVE",
"443 -81 OFFCURVE",
"455 -118 CURVE",
"467 -154 OFFCURVE",
"472 -172 OFFCURVE",
"473 -190 CURVE",
"474 -210 OFFCURVE",
"472 -215 OFFCURVE",
"458 -223 CURVE",
"447 -230 OFFCURVE",
"437 -231 OFFCURVE",
"434 -226 CURVE",
"433 -224 OFFCURVE",
"421 -194 OFFCURVE",
"408 -159 CURVE",
"388 -107 OFFCURVE",
"380 -89 OFFCURVE",
"363 -55 CURVE",
"351 -33 OFFCURVE",
"341 -14 OFFCURVE",
"340 -14 CURVE",
"340 -14 OFFCURVE",
"321 -65 OFFCURVE",
"300 -128 CURVE",
"261 -243 LINE",
"249 -244 LINE",
"242 -244 OFFCURVE",
"234 -246 OFFCURVE",
"231 -247 CURVE",
"225 -249 OFFCURVE",
"224 -250 OFFCURVE",
"222 -248 CURVE"
);
},
{
closed = 1;
nodes = (
"392 419 OFFCURVE",
"391 420 OFFCURVE",
"388 423 CURVE SMOOTH",
"379 432 OFFCURVE",
"367 433 OFFCURVE",
"318 428 CURVE SMOOTH",
"309 427 OFFCURVE",
"282 426 OFFCURVE",
"257 426 CURVE SMOOTH",
"216 426 OFFCURVE",
"213 426 OFFCURVE",
"213 429 CURVE SMOOTH",
"213 431 OFFCURVE",
"215 458 OFFCURVE",
"218 489 CURVE SMOOTH",
"222 545 LINE",
"217 550 LINE SMOOTH",
"214 553 OFFCURVE",
"207 557 OFFCURVE",
"200 559 CURVE",
"184 565 OFFCURVE",
"178 565 OFFCURVE",
"167 558 CURVE",
"147 544 OFFCURVE",
"142 531 OFFCURVE",
"140 487 CURVE SMOOTH",
"138 451 OFFCURVE",
"133 428 OFFCURVE",
"126 411 CURVE",
"120 401 OFFCURVE",
"119 391 OFFCURVE",
"121 385 CURVE",
"121 379 OFFCURVE",
"122 378 OFFCURVE",
"125 375 CURVE SMOOTH",
"134 366 OFFCURVE",
"146 365 OFFCURVE",
"195 370 CURVE SMOOTH",
"204 371 OFFCURVE",
"231 372 OFFCURVE",
"256 372 CURVE SMOOTH",
"297 372 OFFCURVE",
"300 372 OFFCURVE",
"300 369 CURVE SMOOTH",
"300 367 OFFCURVE",
"298 340 OFFCURVE",
"295 309 CURVE SMOOTH",
"291 253 LINE",
"296 248 LINE SMOOTH",
"299 245 OFFCURVE",
"306 241 OFFCURVE",
"313 239 CURVE",
"329 233 OFFCURVE",
"335 233 OFFCURVE",
"346 240 CURVE",
"366 254 OFFCURVE",
"371 267 OFFCURVE",
"373 311 CURVE SMOOTH",
"375 347 OFFCURVE",
"380 370 OFFCURVE",
"387 387 CURVE",
"393 397 OFFCURVE",
"394 407 OFFCURVE",
"392 413 CURVE"
);
}
);
width = 593;
},
{
layerId = "14C6E355-B074-4D1E-9097-146622FBF431";
paths = (
{
closed = 1;
nodes = (
"222 -247 OFFCURVE",
"221 -245 OFFCURVE",
"221 -242 CURVE",
"221 -239 OFFCURVE",
"243 -178 OFFCURVE",
"270 -107 CURVE",
"318 24 LINE",
"311 37 LINE",
"300 58 OFFCURVE",
"274 96 OFFCURVE",
"263 108 CURVE",
"250 121 OFFCURVE",
"239 128 OFFCURVE",
"229 130 CURVE",
"221 131 OFFCURVE",
"219 135 OFFCURVE",
"219 148 CURVE",
"219 162 OFFCURVE",
"222 170 OFFCURVE",
"232 179 CURVE",
"240 188 OFFCURVE",
"255 194 OFFCURVE",
"267 195 CURVE",
"274 196 LINE",
"307 155 LINE",
"337 120 OFFCURVE",
"342 115 OFFCURVE",
"347 115 CURVE",
"352 114 OFFCURVE",
"353 115 OFFCURVE",
"358 126 CURVE",
"361 133 OFFCURVE",
"370 152 OFFCURVE",
"378 168 CURVE",
"393 198 OFFCURVE",
"406 218 OFFCURVE",
"413 222 CURVE",
"415 223 OFFCURVE",
"422 223 OFFCURVE",
"430 223 CURVE",
"444 222 LINE",
"446 215 LINE",
"449 208 LINE",
"427 179 LINE",
"408 153 OFFCURVE",
"404 147 OFFCURVE",
"394 124 CURVE",
"380 93 OFFCURVE",
"378 86 OFFCURVE",
"379 68 CURVE",
"379 56 OFFCURVE",
"381 52 OFFCURVE",
"389 35 CURVE",
"394 24 OFFCURVE",
"402 8 OFFCURVE",
"407 0 CURVE",
"416 -17 OFFCURVE",
"443 -81 OFFCURVE",
"455 -118 CURVE",
"467 -154 OFFCURVE",
"472 -172 OFFCURVE",
"473 -190 CURVE",
"474 -210 OFFCURVE",
"472 -215 OFFCURVE",
"458 -223 CURVE",
"447 -230 OFFCURVE",
"437 -231 OFFCURVE",
"434 -226 CURVE",
"433 -224 OFFCURVE",
"421 -194 OFFCURVE",
"408 -159 CURVE",
"388 -107 OFFCURVE",
"380 -89 OFFCURVE",
"363 -55 CURVE",
"351 -33 OFFCURVE",
"341 -14 OFFCURVE",
"340 -14 CURVE",
"340 -14 OFFCURVE",
"321 -65 OFFCURVE",
"300 -128 CURVE",
"261 -243 LINE",
"249 -244 LINE",
"242 -244 OFFCURVE",
"234 -246 OFFCURVE",
"231 -247 CURVE",
"225 -249 OFFCURVE",
"224 -250 OFFCURVE",
"222 -248 CURVE"
);
},
{
closed = 1;
nodes = (
"392 419 OFFCURVE",
"391 420 OFFCURVE",
"388 423 CURVE SMOOTH",
"379 432 OFFCURVE",
"367 433 OFFCURVE",
"318 428 CURVE SMOOTH",
"309 427 OFFCURVE",
"282 426 OFFCURVE",
"257 426 CURVE SMOOTH",
"216 426 OFFCURVE",
"213 426 OFFCURVE",
"213 429 CURVE SMOOTH",
"213 431 OFFCURVE",
"215 458 OFFCURVE",
"218 489 CURVE SMOOTH",
"222 545 LINE",
"217 550 LINE SMOOTH",
"214 553 OFFCURVE",
"207 557 OFFCURVE",
"200 559 CURVE",
"184 565 OFFCURVE",
"178 565 OFFCURVE",
"167 558 CURVE",
"147 544 OFFCURVE",
"142 531 OFFCURVE",
"140 487 CURVE SMOOTH",
"138 451 OFFCURVE",
"133 428 OFFCURVE",
"126 411 CURVE",
"120 401 OFFCURVE",
"119 391 OFFCURVE",
"121 385 CURVE",
"121 379 OFFCURVE",
"122 378 OFFCURVE",
"125 375 CURVE SMOOTH",
"134 366 OFFCURVE",
"146 365 OFFCURVE",
"195 370 CURVE SMOOTH",
"204 371 OFFCURVE",
"231 372 OFFCURVE",
"256 372 CURVE SMOOTH",
"297 372 OFFCURVE",
"300 372 OFFCURVE",
"300 369 CURVE SMOOTH",
"300 367 OFFCURVE",
"298 340 OFFCURVE",
"295 309 CURVE SMOOTH",
"291 253 LINE",
"296 248 LINE SMOOTH",
"299 245 OFFCURVE",
"306 241 OFFCURVE",
"313 239 CURVE",
"329 233 OFFCURVE",
"335 233 OFFCURVE",
"346 240 CURVE",
"366 254 OFFCURVE",
"371 267 OFFCURVE",
"373 311 CURVE SMOOTH",
"375 347 OFFCURVE",
"380 370 OFFCURVE",
"387 387 CURVE",
"393 397 OFFCURVE",
"394 407 OFFCURVE",
"392 413 CURVE"
);
}
);
width = 593;
}
);
unicode = 0063;
},
{
glyphname = d;
lastChange = "2019-02-24 22:46:33 +0000";
layers = (
{
layerId = "74DDE396-3882-446A-A041-640634B78C39";
paths = (
{
closed = 1;
nodes = (
"357 -230 OFFCURVE",
"349 -229 OFFCURVE",
"348 -228 CURVE",
"345 -226 OFFCURVE",
"346 -219 OFFCURVE",
"350 -216 CURVE",
"352 -215 OFFCURVE",
"354 -211 OFFCURVE",
"355 -206 CURVE",
"357 -190 OFFCURVE",
"341 -169 OFFCURVE",
"307 -145 CURVE",
"288 -132 OFFCURVE",
"287 -128 OFFCURVE",
"302 -128 CURVE",
"322 -128 OFFCURVE",
"350 -141 OFFCURVE",
"380 -162 CURVE",
"404 -179 OFFCURVE",
"416 -211 OFFCURVE",
"405 -228 CURVE",
"402 -232 OFFCURVE",
"401 -233 OFFCURVE",
"391 -232 CURVE",
"385 -232 OFFCURVE",
"373 -232 OFFCURVE",
"365 -231 CURVE"
);
},
{
closed = 1;
nodes = (
"263 -216 OFFCURVE",
"257 -214 OFFCURVE",
"254 -211 CURVE",
"252 -208 OFFCURVE",
"252 -206 OFFCURVE",
"257 -199 CURVE",
"264 -188 OFFCURVE",
"263 -185 OFFCURVE",
"252 -173 CURVE",
"242 -162 OFFCURVE",
"232 -156 OFFCURVE",
"212 -145 CURVE",
"204 -140 OFFCURVE",
"197 -136 OFFCURVE",
"197 -135 CURVE",
"197 -133 OFFCURVE",
"199 -131 OFFCURVE",
"202 -129 CURVE",
"206 -127 OFFCURVE",
"208 -127 OFFCURVE",
"230 -133 CURVE",
"258 -141 OFFCURVE",
"286 -153 OFFCURVE",
"298 -164 CURVE",
"310 -175 OFFCURVE",
"316 -187 OFFCURVE",
"316 -201 CURVE",
"316 -217 OFFCURVE",
"312 -220 OFFCURVE",
"295 -220 CURVE",
"288 -220 OFFCURVE",
"279 -219 OFFCURVE",
"274 -218 CURVE"
);
},
{
closed = 1;
nodes = (
"456 -397 OFFCURVE",
"448 -393 OFFCURVE",
"443 -390 CURVE",
"429 -382 OFFCURVE",
"429 -377 OFFCURVE",
"443 -362 CURVE",
"454 -350 OFFCURVE",
"462 -338 OFFCURVE",
"462 -336 CURVE",
"462 -329 OFFCURVE",
"406 -342 OFFCURVE",
"310 -370 CURVE",
"221 -396 OFFCURVE",
"224 -395 OFFCURVE",
"185 -397 CURVE",
"143 -399 OFFCURVE",
"127 -395 OFFCURVE",
"109 -381 CURVE",
"94 -369 OFFCURVE",
"89 -362 OFFCURVE",
"87 -348 CURVE",
"84 -336 OFFCURVE",
"84 -333 OFFCURVE",
"87 -324 CURVE",
"93 -308 OFFCURVE",
"98 -299 OFFCURVE",
"111 -287 CURVE",
"123 -275 OFFCURVE",
"140 -268 OFFCURVE",
"160 -265 CURVE",
"172 -263 OFFCURVE",
"174 -263 OFFCURVE",
"181 -267 CURVE",
"186 -269 OFFCURVE",
"192 -273 OFFCURVE",
"194 -277 CURVE",
"199 -287 OFFCURVE",
"197 -291 OFFCURVE",
"179 -318 CURVE",
"158 -346 OFFCURVE",
"159 -348 OFFCURVE",
"190 -348 CURVE",
"210 -348 OFFCURVE",
"216 -348 OFFCURVE",
"260 -338 CURVE",
"285 -330 OFFCURVE",
"325 -320 OFFCURVE",
"346 -314 CURVE",
"392 -301 OFFCURVE",
"422 -294 OFFCURVE",
"456 -293 CURVE",
"478 -292 OFFCURVE",
"482 -292 OFFCURVE",
"492 -296 CURVE",
"509 -301 OFFCURVE",
"528 -317 OFFCURVE",
"532 -327 CURVE",
"537 -338 OFFCURVE",
"534 -357 OFFCURVE",
"528 -367 CURVE",
"512 -391 OFFCURVE",
"482 -405 OFFCURVE",
"462 -399 CURVE"
);
}
);
width = 675;
},
{
layerId = "14C6E355-B074-4D1E-9097-146622FBF431";
paths = (
{
closed = 1;
nodes = (
"357 -230 OFFCURVE",
"349 -229 OFFCURVE",
"348 -228 CURVE",
"345 -226 OFFCURVE",
"346 -219 OFFCURVE",
"350 -216 CURVE",
"352 -215 OFFCURVE",
"354 -211 OFFCURVE",
"355 -206 CURVE",
"357 -190 OFFCURVE",
"341 -169 OFFCURVE",
"307 -145 CURVE",
"288 -132 OFFCURVE",
"287 -128 OFFCURVE",
"302 -128 CURVE",
"322 -128 OFFCURVE",
"350 -141 OFFCURVE",
"380 -162 CURVE",
"404 -179 OFFCURVE",
"416 -211 OFFCURVE",
"405 -228 CURVE",
"402 -232 OFFCURVE",
"401 -233 OFFCURVE",
"391 -232 CURVE",
"385 -232 OFFCURVE",
"373 -232 OFFCURVE",
"365 -231 CURVE"
);
},
{
closed = 1;
nodes = (
"263 -216 OFFCURVE",
"257 -214 OFFCURVE",
"254 -211 CURVE",
"252 -208 OFFCURVE",
"252 -206 OFFCURVE",
"257 -199 CURVE",
"264 -188 OFFCURVE",
"263 -185 OFFCURVE",
"252 -173 CURVE",
"242 -162 OFFCURVE",
"232 -156 OFFCURVE",
"212 -145 CURVE",
"204 -140 OFFCURVE",
"197 -136 OFFCURVE",
"197 -135 CURVE",
"197 -133 OFFCURVE",
"199 -131 OFFCURVE",
"202 -129 CURVE",
"206 -127 OFFCURVE",
"208 -127 OFFCURVE",
"230 -133 CURVE",
"258 -141 OFFCURVE",
"286 -153 OFFCURVE",
"298 -164 CURVE",
"310 -175 OFFCURVE",
"316 -187 OFFCURVE",
"316 -201 CURVE",
"316 -217 OFFCURVE",
"312 -220 OFFCURVE",
"295 -220 CURVE",
"288 -220 OFFCURVE",
"279 -219 OFFCURVE",
"274 -218 CURVE"
);
},
{
closed = 1;
nodes = (
"456 -397 OFFCURVE",
"448 -393 OFFCURVE",
"443 -390 CURVE",
"429 -382 OFFCURVE",
"429 -377 OFFCURVE",
"443 -362 CURVE",
"454 -350 OFFCURVE",
"462 -338 OFFCURVE",
"462 -336 CURVE",
"462 -329 OFFCURVE",
"406 -342 OFFCURVE",
"310 -370 CURVE",
"221 -396 OFFCURVE",
"224 -395 OFFCURVE",
"185 -397 CURVE",
"143 -399 OFFCURVE",
"127 -395 OFFCURVE",
"109 -381 CURVE",
"94 -369 OFFCURVE",
"89 -362 OFFCURVE",
"87 -348 CURVE",
"84 -336 OFFCURVE",
"84 -333 OFFCURVE",
"87 -324 CURVE",
"93 -308 OFFCURVE",
"98 -299 OFFCURVE",
"111 -287 CURVE",
"123 -275 OFFCURVE",
"140 -268 OFFCURVE",
"160 -265 CURVE",
"172 -263 OFFCURVE",
"174 -263 OFFCURVE",
"181 -267 CURVE",
"186 -269 OFFCURVE",
"192 -273 OFFCURVE",
"194 -277 CURVE",
"199 -287 OFFCURVE",
"197 -291 OFFCURVE",
"179 -318 CURVE",
"158 -346 OFFCURVE",
"159 -348 OFFCURVE",
"190 -348 CURVE",
"210 -348 OFFCURVE",
"216 -348 OFFCURVE",
"260 -338 CURVE",
"285 -330 OFFCURVE",
"325 -320 OFFCURVE",
"346 -314 CURVE",
"392 -301 OFFCURVE",
"422 -294 OFFCURVE",
"456 -293 CURVE",
"478 -292 OFFCURVE",
"482 -292 OFFCURVE",
"492 -296 CURVE",
"509 -301 OFFCURVE",
"528 -317 OFFCURVE",
"532 -327 CURVE",
"537 -338 OFFCURVE",
"534 -357 OFFCURVE",
"528 -367 CURVE",
"512 -391 OFFCURVE",
"482 -405 OFFCURVE",
"462 -399 CURVE"
);
}
);
width = 675;
}
);
unicode = 0064;
},
{
glyphname = e;
lastChange = "2019-02-24 22:46:33 +0000";
layers = (
{
layerId = "74DDE396-3882-446A-A041-640634B78C39";
paths = (
{
closed = 1;
nodes = (
"259 -442 OFFCURVE",
"235 -412 OFFCURVE",
"230 -375 CURVE SMOOTH",
"227 -351 OFFCURVE",
"229 -315 OFFCURVE",
"247 -274 CURVE SMOOTH",
"258 -249 OFFCURVE",
"265 -236 OFFCURVE",
"255 -228 CURVE SMOOTH",
"240 -216 OFFCURVE",
"200 -209 OFFCURVE",
"183 -218 CURVE SMOOTH",
"166 -227 OFFCURVE",
"159 -240 OFFCURVE",
"169 -264 CURVE SMOOTH",
"176 -281 OFFCURVE",
"175 -283 OFFCURVE",
"170 -291 CURVE SMOOTH",
"166 -298 OFFCURVE",
"160 -300 OFFCURVE",
"145 -300 CURVE SMOOTH",
"113 -300 OFFCURVE",
"100 -287 OFFCURVE",
"100 -255 CURVE SMOOTH",
"100 -200 OFFCURVE",
"139 -159 OFFCURVE",
"191 -159 CURVE SMOOTH",
"241 -159 OFFCURVE",
"284 -179 OFFCURVE",
"301 -208 CURVE SMOOTH",
"308 -220 OFFCURVE",
"311 -227 OFFCURVE",
"311 -254 CURVE SMOOTH",
"311 -280 OFFCURVE",
"306 -292 OFFCURVE",
"284 -336 CURVE SMOOTH",
"279 -346 OFFCURVE",
"275 -357 OFFCURVE",
"275 -364 CURVE SMOOTH",
"275 -383 OFFCURVE",
"301 -409 OFFCURVE",
"340 -419 CURVE SMOOTH",
"370 -426 OFFCURVE",
"355 -443 OFFCURVE",
"324 -450 CURVE SMOOTH",
"301 -455 OFFCURVE",
"298 -454 OFFCURVE",
"285 -450 CURVE SMOOTH"
);
},
{
closed = 1;
nodes = (
"524 -442 OFFCURVE",
"500 -412 OFFCURVE",
"495 -375 CURVE SMOOTH",
"492 -351 OFFCURVE",
"494 -315 OFFCURVE",
"512 -274 CURVE SMOOTH",
"523 -249 OFFCURVE",
"530 -236 OFFCURVE",
"520 -228 CURVE SMOOTH",
"505 -216 OFFCURVE",
"465 -209 OFFCURVE",
"448 -218 CURVE SMOOTH",
"431 -227 OFFCURVE",
"424 -240 OFFCURVE",
"434 -264 CURVE SMOOTH",
"441 -281 OFFCURVE",
"440 -283 OFFCURVE",
"435 -291 CURVE SMOOTH",
"431 -298 OFFCURVE",
"425 -300 OFFCURVE",
"410 -300 CURVE SMOOTH",
"378 -300 OFFCURVE",
"365 -287 OFFCURVE",
"365 -255 CURVE SMOOTH",
"365 -200 OFFCURVE",
"404 -159 OFFCURVE",
"456 -159 CURVE SMOOTH",
"506 -159 OFFCURVE",
"549 -179 OFFCURVE",
"566 -208 CURVE SMOOTH",
"573 -220 OFFCURVE",
"576 -227 OFFCURVE",
"576 -254 CURVE SMOOTH",
"576 -280 OFFCURVE",
"571 -292 OFFCURVE",
"549 -336 CURVE SMOOTH",
"544 -346 OFFCURVE",
"540 -357 OFFCURVE",
"540 -364 CURVE SMOOTH",
"540 -383 OFFCURVE",
"566 -409 OFFCURVE",
"605 -419 CURVE SMOOTH",
"635 -427 OFFCURVE",
"620 -443 OFFCURVE",
"589 -450 CURVE SMOOTH",
"566 -455 OFFCURVE",
"563 -454 OFFCURVE",
"550 -450 CURVE SMOOTH"
);
}
);
width = 704;
},
{
layerId = "14C6E355-B074-4D1E-9097-146622FBF431";
paths = (
{
closed = 1;
nodes = (
"259 -442 OFFCURVE",
"235 -412 OFFCURVE",
"230 -375 CURVE SMOOTH",
"227 -351 OFFCURVE",
"229 -315 OFFCURVE",
"247 -274 CURVE SMOOTH",
"258 -249 OFFCURVE",
"265 -236 OFFCURVE",
"255 -228 CURVE SMOOTH",
"240 -216 OFFCURVE",
"200 -209 OFFCURVE",
"183 -218 CURVE SMOOTH",
"166 -227 OFFCURVE",
"159 -240 OFFCURVE",
"169 -264 CURVE SMOOTH",
"176 -281 OFFCURVE",
"175 -283 OFFCURVE",
"170 -291 CURVE SMOOTH",
"166 -298 OFFCURVE",
"160 -300 OFFCURVE",
"145 -300 CURVE SMOOTH",
"113 -300 OFFCURVE",
"100 -287 OFFCURVE",
"100 -255 CURVE SMOOTH",
"100 -200 OFFCURVE",
"139 -159 OFFCURVE",
"191 -159 CURVE SMOOTH",
"241 -159 OFFCURVE",
"284 -179 OFFCURVE",
"301 -208 CURVE SMOOTH",
"308 -220 OFFCURVE",
"311 -227 OFFCURVE",
"311 -254 CURVE SMOOTH",
"311 -280 OFFCURVE",
"306 -292 OFFCURVE",
"284 -336 CURVE SMOOTH",
"279 -346 OFFCURVE",
"275 -357 OFFCURVE",
"275 -364 CURVE SMOOTH",
"275 -383 OFFCURVE",
"301 -409 OFFCURVE",
"340 -419 CURVE SMOOTH",
"370 -426 OFFCURVE",
"355 -443 OFFCURVE",
"324 -450 CURVE SMOOTH",
"301 -455 OFFCURVE",
"298 -454 OFFCURVE",
"285 -450 CURVE SMOOTH"
);
},
{
closed = 1;
nodes = (
"524 -442 OFFCURVE",
"500 -412 OFFCURVE",
"495 -375 CURVE SMOOTH",
"492 -351 OFFCURVE",
"494 -315 OFFCURVE",
"512 -274 CURVE SMOOTH",
"523 -249 OFFCURVE",
"530 -236 OFFCURVE",
"520 -228 CURVE SMOOTH",
"505 -216 OFFCURVE",
"465 -209 OFFCURVE",
"448 -218 CURVE SMOOTH",
"431 -227 OFFCURVE",
"424 -240 OFFCURVE",
"434 -264 CURVE SMOOTH",
"441 -281 OFFCURVE",
"440 -283 OFFCURVE",
"435 -291 CURVE SMOOTH",
"431 -298 OFFCURVE",
"425 -300 OFFCURVE",
"410 -300 CURVE SMOOTH",
"378 -300 OFFCURVE",
"365 -287 OFFCURVE",
"365 -255 CURVE SMOOTH",
"365 -200 OFFCURVE",
"404 -159 OFFCURVE",
"456 -159 CURVE SMOOTH",
"506 -159 OFFCURVE",
"549 -179 OFFCURVE",
"566 -208 CURVE SMOOTH",
"573 -220 OFFCURVE",
"576 -227 OFFCURVE",
"576 -254 CURVE SMOOTH",
"576 -280 OFFCURVE",
"571 -292 OFFCURVE",
"549 -336 CURVE SMOOTH",
"544 -346 OFFCURVE",
"540 -357 OFFCURVE",
"540 -364 CURVE SMOOTH",
"540 -383 OFFCURVE",
"566 -409 OFFCURVE",
"605 -419 CURVE SMOOTH",
"635 -427 OFFCURVE",
"620 -443 OFFCURVE",
"589 -450 CURVE SMOOTH",
"566 -455 OFFCURVE",
"563 -454 OFFCURVE",
"550 -450 CURVE SMOOTH"
);
}
);
width = 704;
}
);
unicode = 0065;
},
{
glyphname = f;
lastChange = "2019-02-24 22:46:33 +0000";
layers = (
{
layerId = "74DDE396-3882-446A-A041-640634B78C39";
paths = (
{
closed = 1;
nodes = (
"69 -428 OFFCURVE",
"65 -421 OFFCURVE",
"65 -415 CURVE",
"65 -408 OFFCURVE",
"88 -385 OFFCURVE",
"118 -361 CURVE",
"145 -340 LINE",
"139 -329 LINE",
"133 -316 OFFCURVE",
"130 -296 OFFCURVE",
"134 -284 CURVE",
"142 -263 OFFCURVE",
"164 -243 OFFCURVE",
"192 -234 CURVE",
"209 -228 OFFCURVE",
"252 -225 OFFCURVE",
"274 -228 CURVE",
"287 -229 OFFCURVE",
"289 -228 OFFCURVE",
"297 -223 CURVE",
"302 -219 OFFCURVE",
"308 -214 OFFCURVE",
"310 -210 CURVE",
"314 -204 LINE",
"293 -190 LINE",
"280 -183 OFFCURVE",
"270 -175 OFFCURVE",
"270 -174 CURVE",
"268 -170 OFFCURVE",
"272 -165 OFFCURVE",
"279 -159 CURVE",
"284 -155 OFFCURVE",
"284 -155 OFFCURVE",
"295 -159 CURVE",
"302 -161 OFFCURVE",
"312 -168 OFFCURVE",
"319 -171 CURVE",
"325 -176 OFFCURVE",
"333 -180 OFFCURVE",
"334 -180 CURVE",
"335 -180 OFFCURVE",
"343 -173 OFFCURVE",
"352 -165 CURVE",
"373 -145 OFFCURVE",
"380 -143 OFFCURVE",
"393 -149 CURVE",
"420 -163 OFFCURVE",
"419 -171 OFFCURVE",
"385 -195 CURVE",
"372 -205 OFFCURVE",
"369 -210 OFFCURVE",
"378 -218 CURVE",
"408 -243 OFFCURVE",
"414 -250 OFFCURVE",
"408 -256 CURVE",
"403 -264 OFFCURVE",
"394 -260 OFFCURVE",
"373 -245 CURVE",
"362 -236 OFFCURVE",
"352 -229 OFFCURVE",
"350 -228 CURVE",
"348 -226 OFFCURVE",
"327 -236 OFFCURVE",
"323 -241 CURVE",
"320 -244 OFFCURVE",
"323 -248 OFFCURVE",
"329 -255 CURVE",
"334 -261 OFFCURVE",
"340 -271 OFFCURVE",
"344 -278 CURVE",
"349 -289 OFFCURVE",
"350 -291 OFFCURVE",
"348 -301 CURVE",
"340 -333 OFFCURVE",
"298 -360 OFFCURVE",
"245 -368 CURVE",
"232 -370 OFFCURVE",
"227 -370 OFFCURVE",
"209 -365 CURVE",
"198 -363 OFFCURVE",
"187 -359 OFFCURVE",
"183 -356 CURVE",
"178 -353 LINE",
"152 -380 LINE",
"113 -421 OFFCURVE",
"90 -444 OFFCURVE",
"88 -444 CURVE",
"85 -444 OFFCURVE",
"82 -440 OFFCURVE",
"78 -436 CURVE"
);
},
{
closed = 1;
nodes = (
"270 -323 OFFCURVE",
"280 -309 OFFCURVE",
"280 -294 CURVE",
"280 -274 OFFCURVE",
"267 -259 OFFCURVE",
"243 -256 CURVE",
"233 -255 OFFCURVE",
"230 -256 OFFCURVE",
"218 -265 CURVE",
"198 -278 OFFCURVE",
"194 -289 OFFCURVE",
"200 -310 CURVE",
"209 -333 OFFCURVE",
"230 -343 OFFCURVE",
"249 -333 CURVE"
);
}
);
width = 607;
},
{
layerId = "14C6E355-B074-4D1E-9097-146622FBF431";
paths = (
{
closed = 1;
nodes = (
"69 -428 OFFCURVE",
"65 -421 OFFCURVE",
"65 -415 CURVE",
"65 -408 OFFCURVE",
"88 -385 OFFCURVE",
"118 -361 CURVE",
"145 -340 LINE",
"139 -329 LINE",
"133 -316 OFFCURVE",
"130 -296 OFFCURVE",
"134 -284 CURVE",
"142 -263 OFFCURVE",
"164 -243 OFFCURVE",
"192 -234 CURVE",
"209 -228 OFFCURVE",
"252 -225 OFFCURVE",
"274 -228 CURVE",
"287 -229 OFFCURVE",
"289 -228 OFFCURVE",
"297 -223 CURVE",
"302 -219 OFFCURVE",
"308 -214 OFFCURVE",
"310 -210 CURVE",
"314 -204 LINE",
"293 -190 LINE",
"280 -183 OFFCURVE",
"270 -175 OFFCURVE",
"270 -174 CURVE",
"268 -170 OFFCURVE",
"272 -165 OFFCURVE",
"279 -159 CURVE",
"284 -155 OFFCURVE",
"284 -155 OFFCURVE",
"295 -159 CURVE",
"302 -161 OFFCURVE",
"312 -168 OFFCURVE",
"319 -171 CURVE",
"325 -176 OFFCURVE",
"333 -180 OFFCURVE",
"334 -180 CURVE",
"335 -180 OFFCURVE",
"343 -173 OFFCURVE",
"352 -165 CURVE",
"373 -145 OFFCURVE",
"380 -143 OFFCURVE",
"393 -149 CURVE",
"420 -163 OFFCURVE",
"419 -171 OFFCURVE",
"385 -195 CURVE",
"372 -205 OFFCURVE",
"369 -210 OFFCURVE",
"378 -218 CURVE",
"408 -243 OFFCURVE",
"414 -250 OFFCURVE",
"408 -256 CURVE",
"403 -264 OFFCURVE",
"394 -260 OFFCURVE",
"373 -245 CURVE",
"362 -236 OFFCURVE",
"352 -229 OFFCURVE",
"350 -228 CURVE",
"348 -226 OFFCURVE",
"327 -236 OFFCURVE",
"323 -241 CURVE",
"320 -244 OFFCURVE",
"323 -248 OFFCURVE",
"329 -255 CURVE",
"334 -261 OFFCURVE",
"340 -271 OFFCURVE",
"344 -278 CURVE",
"349 -289 OFFCURVE",
"350 -291 OFFCURVE",
"348 -301 CURVE",
"340 -333 OFFCURVE",
"298 -360 OFFCURVE",
"245 -368 CURVE",
"232 -370 OFFCURVE",
"227 -370 OFFCURVE",
"209 -365 CURVE",
"198 -363 OFFCURVE",
"187 -359 OFFCURVE",
"183 -356 CURVE",
"178 -353 LINE",
"152 -380 LINE",
"113 -421 OFFCURVE",
"90 -444 OFFCURVE",
"88 -444 CURVE",
"85 -444 OFFCURVE",
"82 -440 OFFCURVE",
"78 -436 CURVE"
);
},
{
closed = 1;
nodes = (
"270 -323 OFFCURVE",
"280 -309 OFFCURVE",
"280 -294 CURVE",
"280 -274 OFFCURVE",
"267 -259 OFFCURVE",
"243 -256 CURVE",
"233 -255 OFFCURVE",
"230 -256 OFFCURVE",
"218 -265 CURVE",
"198 -278 OFFCURVE",
"194 -289 OFFCURVE",
"200 -310 CURVE",
"209 -333 OFFCURVE",
"230 -343 OFFCURVE",
"249 -333 CURVE"
);
}
);
width = 607;
}
);
unicode = 0066;
},
{
glyphname = g;
lastChange = "2019-02-24 22:46:33 +0000";
layers = (
{
layerId = "74DDE396-3882-446A-A041-640634B78C39";
paths = (
{
closed = 1;
nodes = (
"82 -444 OFFCURVE",
"70 -435 OFFCURVE",
"70 -432 CURVE",
"70 -429 OFFCURVE",
"80 -419 OFFCURVE",
"92 -408 CURVE",
"115 -389 LINE",
"101 -380 LINE",
"95 -375 OFFCURVE",
"83 -370 OFFCURVE",
"77 -368 CURVE",
"65 -363 OFFCURVE",
"60 -354 OFFCURVE",
"67 -348 CURVE",
"70 -345 OFFCURVE",
"73 -343 OFFCURVE",
"76 -343 CURVE",
"78 -343 OFFCURVE",
"93 -349 OFFCURVE",
"108 -357 CURVE",
"123 -364 OFFCURVE",
"136 -369 OFFCURVE",
"137 -369 CURVE",
"138 -369 OFFCURVE",
"145 -365 OFFCURVE",
"152 -362 CURVE",
"163 -353 LINE",
"150 -338 LINE",
"126 -315 OFFCURVE",
"122 -303 OFFCURVE",
"131 -284 CURVE",
"136 -272 OFFCURVE",
"156 -254 OFFCURVE",
"175 -244 CURVE",
"195 -233 OFFCURVE",
"227 -223 OFFCURVE",
"246 -220 CURVE",
"261 -218 OFFCURVE",
"293 -219 OFFCURVE",
"298 -223 CURVE",
"300 -224 OFFCURVE",
"312 -214 OFFCURVE",
"331 -195 CURVE",
"366 -162 OFFCURVE",
"395 -137 OFFCURVE",
"401 -137 CURVE",
"406 -137 OFFCURVE",
"427 -157 OFFCURVE",
"430 -163 CURVE",
"431 -170 OFFCURVE",
"422 -179 OFFCURVE",
"382 -209 CURVE",
"363 -224 OFFCURVE",
"346 -237 OFFCURVE",
"345 -238 CURVE",
"343 -239 OFFCURVE",
"348 -245 OFFCURVE",
"355 -254 CURVE",
"363 -267 OFFCURVE",
"366 -270 OFFCURVE",
"366 -279 CURVE",
"366 -305 OFFCURVE",
"351 -324 OFFCURVE",
"322 -338 CURVE",
"287 -355 OFFCURVE",
"261 -360 OFFCURVE",
"215 -360 CURVE",
"200 -360 OFFCURVE",
"200 -360 OFFCURVE",
"187 -372 CURVE",
"181 -379 OFFCURVE",
"176 -384 OFFCURVE",
"176 -385 CURVE",
"176 -387 OFFCURVE",
"183 -389 OFFCURVE",
"193 -393 CURVE",
"220 -402 OFFCURVE",
"232 -408 OFFCURVE",
"233 -413 CURVE",
"235 -419 OFFCURVE",
"221 -430 OFFCURVE",
"212 -430 CURVE",
"207 -430 OFFCURVE",
"196 -427 OFFCURVE",
"186 -422 CURVE",
"155 -408 OFFCURVE",
"158 -408 OFFCURVE",
"143 -424 CURVE",
"128 -440 OFFCURVE",
"115 -450 OFFCURVE",
"107 -450 CURVE",
"105 -450 OFFCURVE",
"98 -449 OFFCURVE",
"93 -447 CURVE"
);
},
{
closed = 1;
nodes = (
"272 -320 OFFCURVE",
"282 -312 OFFCURVE",
"287 -302 CURVE",
"295 -284 OFFCURVE",
"290 -272 OFFCURVE",
"272 -260 CURVE",
"257 -250 OFFCURVE",
"247 -250 OFFCURVE",
"230 -262 CURVE",
"195 -285 OFFCURVE",
"191 -307 OFFCURVE",
"222 -325 CURVE",
"230 -330 OFFCURVE",
"237 -334 OFFCURVE",
"238 -334 CURVE",
"240 -334 OFFCURVE",
"246 -332 OFFCURVE",
"252 -329 CURVE"
);
}
);
width = 623;
},
{
layerId = "14C6E355-B074-4D1E-9097-146622FBF431";
paths = (
{
closed = 1;
nodes = (
"82 -444 OFFCURVE",
"70 -435 OFFCURVE",
"70 -432 CURVE",
"70 -429 OFFCURVE",
"80 -419 OFFCURVE",
"92 -408 CURVE",
"115 -389 LINE",
"101 -380 LINE",
"95 -375 OFFCURVE",
"83 -370 OFFCURVE",
"77 -368 CURVE",
"65 -363 OFFCURVE",
"60 -354 OFFCURVE",
"67 -348 CURVE",
"70 -345 OFFCURVE",
"73 -343 OFFCURVE",
"76 -343 CURVE",
"78 -343 OFFCURVE",
"93 -349 OFFCURVE",
"108 -357 CURVE",
"123 -364 OFFCURVE",
"136 -369 OFFCURVE",
"137 -369 CURVE",
"138 -369 OFFCURVE",
"145 -365 OFFCURVE",
"152 -362 CURVE",
"163 -353 LINE",
"150 -338 LINE",
"126 -315 OFFCURVE",
"122 -303 OFFCURVE",
"131 -284 CURVE",
"136 -272 OFFCURVE",
"156 -254 OFFCURVE",
"175 -244 CURVE",
"195 -233 OFFCURVE",
"227 -223 OFFCURVE",
"246 -220 CURVE",
"261 -218 OFFCURVE",
"293 -219 OFFCURVE",
"298 -223 CURVE",
"300 -224 OFFCURVE",
"312 -214 OFFCURVE",
"331 -195 CURVE",
"366 -162 OFFCURVE",
"395 -137 OFFCURVE",
"401 -137 CURVE",
"406 -137 OFFCURVE",
"427 -157 OFFCURVE",
"430 -163 CURVE",
"431 -170 OFFCURVE",
"422 -179 OFFCURVE",
"382 -209 CURVE",
"363 -224 OFFCURVE",
"346 -237 OFFCURVE",
"345 -238 CURVE",
"343 -239 OFFCURVE",
"348 -245 OFFCURVE",
"355 -254 CURVE",
"363 -267 OFFCURVE",
"366 -270 OFFCURVE",
"366 -279 CURVE",
"366 -305 OFFCURVE",
"351 -324 OFFCURVE",
"322 -338 CURVE",
"287 -355 OFFCURVE",
"261 -360 OFFCURVE",
"215 -360 CURVE",
"200 -360 OFFCURVE",
"200 -360 OFFCURVE",
"187 -372 CURVE",
"181 -379 OFFCURVE",
"176 -384 OFFCURVE",
"176 -385 CURVE",
"176 -387 OFFCURVE",
"183 -389 OFFCURVE",
"193 -393 CURVE",
"220 -402 OFFCURVE",
"232 -408 OFFCURVE",
"233 -413 CURVE",
"235 -419 OFFCURVE",
"221 -430 OFFCURVE",
"212 -430 CURVE",
"207 -430 OFFCURVE",
"196 -427 OFFCURVE",
"186 -422 CURVE",
"155 -408 OFFCURVE",
"158 -408 OFFCURVE",
"143 -424 CURVE",
"128 -440 OFFCURVE",
"115 -450 OFFCURVE",
"107 -450 CURVE",
"105 -450 OFFCURVE",
"98 -449 OFFCURVE",
"93 -447 CURVE"
);
},
{
closed = 1;
nodes = (
"272 -320 OFFCURVE",
"282 -312 OFFCURVE",
"287 -302 CURVE",
"295 -284 OFFCURVE",
"290 -272 OFFCURVE",
"272 -260 CURVE",
"257 -250 OFFCURVE",
"247 -250 OFFCURVE",
"230 -262 CURVE",
"195 -285 OFFCURVE",
"191 -307 OFFCURVE",
"222 -325 CURVE",
"230 -330 OFFCURVE",
"237 -334 OFFCURVE",
"238 -334 CURVE",
"240 -334 OFFCURVE",
"246 -332 OFFCURVE",
"252 -329 CURVE"
);
}
);
width = 623;
}
);
unicode = 0067;
},
{
glyphname = h;
lastChange = "2019-02-24 22:46:33 +0000";
layers = (
{
layerId = "74DDE396-3882-446A-A041-640634B78C39";
paths = (
{
closed = 1;
nodes = (
"95 -432 OFFCURVE",
"64 -396 OFFCURVE",
"64 -379 CURVE",
"64 -359 OFFCURVE",
"77 -339 OFFCURVE",
"90 -339 CURVE",
"98 -339 OFFCURVE",
"110 -352 OFFCURVE",
"119 -371 CURVE",
"133 -397 OFFCURVE",
"147 -396 OFFCURVE",
"178 -363 CURVE",
"192 -348 OFFCURVE",
"204 -333 OFFCURVE",
"204 -331 CURVE",
"204 -329 OFFCURVE",
"202 -323 OFFCURVE",
"198 -317 CURVE",
"185 -294 OFFCURVE",
"180 -263 OFFCURVE",
"187 -242 CURVE",
"190 -232 OFFCURVE",
"204 -216 OFFCURVE",
"218 -208 CURVE",
"228 -204 OFFCURVE",
"232 -203 OFFCURVE",
"252 -203 CURVE",
"278 -203 OFFCURVE",
"288 -207 OFFCURVE",
"303 -221 CURVE",
"313 -229 LINE",
"355 -186 LINE",
"378 -162 OFFCURVE",
"398 -143 OFFCURVE",
"399 -143 CURVE",
"403 -143 OFFCURVE",
"418 -157 OFFCURVE",
"420 -164 CURVE",
"427 -179 OFFCURVE",
"425 -186 OFFCURVE",
"410 -199 CURVE",
"404 -206 OFFCURVE",
"385 -221 OFFCURVE",
"370 -232 CURVE",
"354 -244 OFFCURVE",
"340 -254 OFFCURVE",
"339 -257 CURVE",
"338 -259 OFFCURVE",
"340 -264 OFFCURVE",
"348 -279 CURVE",
"357 -298 OFFCURVE",
"358 -301 OFFCURVE",
"358 -319 CURVE",
"359 -337 OFFCURVE",
"359 -341 OFFCURVE",
"354 -349 CURVE",
"345 -367 OFFCURVE",
"320 -382 OFFCURVE",
"298 -382 CURVE",
"284 -382 OFFCURVE",
"255 -376 OFFCURVE",
"242 -371 CURVE",
"230 -366 LINE",
"227 -371 LINE",
"210 -396 OFFCURVE",
"183 -421 OFFCURVE",
"157 -434 CURVE",
"138 -443 OFFCURVE",
"129 -444 OFFCURVE",
"117 -439 CURVE"
);
},
{
closed = 1;
nodes = (
"294 -314 OFFCURVE",
"300 -299 OFFCURVE",
"300 -281 CURVE",
"300 -263 OFFCURVE",
"298 -261 OFFCURVE",
"278 -261 CURVE",
"262 -261 OFFCURVE",
"255 -264 OFFCURVE",
"248 -279 CURVE",
"240 -297 OFFCURVE",
"240 -311 OFFCURVE",
"249 -319 CURVE",
"255 -326 OFFCURVE",
"257 -327 OFFCURVE",
"267 -326 CURVE",
"273 -324 OFFCURVE",
"280 -322 OFFCURVE",
"284 -319 CURVE"
);
}
);
width = 618;
},
{
layerId = "14C6E355-B074-4D1E-9097-146622FBF431";
paths = (
{
closed = 1;
nodes = (
"95 -432 OFFCURVE",
"64 -396 OFFCURVE",
"64 -379 CURVE",
"64 -359 OFFCURVE",
"77 -339 OFFCURVE",
"90 -339 CURVE",
"98 -339 OFFCURVE",
"110 -352 OFFCURVE",
"119 -371 CURVE",
"133 -397 OFFCURVE",
"147 -396 OFFCURVE",
"178 -363 CURVE",
"192 -348 OFFCURVE",
"204 -333 OFFCURVE",
"204 -331 CURVE",
"204 -329 OFFCURVE",
"202 -323 OFFCURVE",
"198 -317 CURVE",
"185 -294 OFFCURVE",
"180 -263 OFFCURVE",
"187 -242 CURVE",
"190 -232 OFFCURVE",
"204 -216 OFFCURVE",
"218 -208 CURVE",
"228 -204 OFFCURVE",
"232 -203 OFFCURVE",
"252 -203 CURVE",
"278 -203 OFFCURVE",
"288 -207 OFFCURVE",
"303 -221 CURVE",
"313 -229 LINE",
"355 -186 LINE",
"378 -162 OFFCURVE",
"398 -143 OFFCURVE",
"399 -143 CURVE",
"403 -143 OFFCURVE",
"418 -157 OFFCURVE",
"420 -164 CURVE",
"427 -179 OFFCURVE",
"425 -186 OFFCURVE",
"410 -199 CURVE",
"404 -206 OFFCURVE",
"385 -221 OFFCURVE",
"370 -232 CURVE",
"354 -244 OFFCURVE",
"340 -254 OFFCURVE",
"339 -257 CURVE",
"338 -259 OFFCURVE",
"340 -264 OFFCURVE",
"348 -279 CURVE",
"357 -298 OFFCURVE",
"358 -301 OFFCURVE",
"358 -319 CURVE",
"359 -337 OFFCURVE",
"359 -341 OFFCURVE",
"354 -349 CURVE",
"345 -367 OFFCURVE",
"320 -382 OFFCURVE",
"298 -382 CURVE",
"284 -382 OFFCURVE",
"255 -376 OFFCURVE",
"242 -371 CURVE",
"230 -366 LINE",
"227 -371 LINE",
"210 -396 OFFCURVE",
"183 -421 OFFCURVE",
"157 -434 CURVE",
"138 -443 OFFCURVE",
"129 -444 OFFCURVE",
"117 -439 CURVE"
);
},
{
closed = 1;
nodes = (
"294 -314 OFFCURVE",
"300 -299 OFFCURVE",
"300 -281 CURVE",
"300 -263 OFFCURVE",
"298 -261 OFFCURVE",
"278 -261 CURVE",
"262 -261 OFFCURVE",
"255 -264 OFFCURVE",
"248 -279 CURVE",
"240 -297 OFFCURVE",
"240 -311 OFFCURVE",
"249 -319 CURVE",
"255 -326 OFFCURVE",
"257 -327 OFFCURVE",
"267 -326 CURVE",
"273 -324 OFFCURVE",
"280 -322 OFFCURVE",
"284 -319 CURVE"
);
}
);
width = 618;
}
);
unicode = 0068;
},
{
glyphname = i;
lastChange = "2019-02-24 22:46:33 +0000";
layers = (
{
layerId = "74DDE396-3882-446A-A041-640634B78C39";
paths = (
{
closed = 1;
nodes = (
"403 531 OFFCURVE",
"314 549 OFFCURVE",
"287 552 CURVE",
"264 556 OFFCURVE",
"222 562 OFFCURVE",
"218 562 CURVE",
"218 562 OFFCURVE",
"222 565 OFFCURVE",
"229 568 CURVE",
"236 573 OFFCURVE",
"241 575 OFFCURVE",
"249 575 CURVE",
"266 579 OFFCURVE",
"295 588 OFFCURVE",
"316 596 CURVE",
"338 604 OFFCURVE",
"373 622 OFFCURVE",
"385 630 CURVE",
"401 640 OFFCURVE",
"428 671 OFFCURVE",
"448 701 CURVE",
"462 722 OFFCURVE",
"470 736 OFFCURVE",
"478 758 CURVE",
"493 794 OFFCURVE",
"508 821 OFFCURVE",
"517 829 CURVE",
"519 831 OFFCURVE",
"524 833 OFFCURVE",
"534 835 CURVE",
"547 838 OFFCURVE",
"550 838 OFFCURVE",
"567 838 CURVE",
"581 838 OFFCURVE",
"586 838 OFFCURVE",
"588 836 CURVE",
"593 833 OFFCURVE",
"604 825 OFFCURVE",
"604 824 CURVE",
"604 823 OFFCURVE",
"600 818 OFFCURVE",
"596 812 CURVE",
"588 799 OFFCURVE",
"573 769 OFFCURVE",
"564 748 CURVE",
"548 709 OFFCURVE",
"533 684 OFFCURVE",
"504 655 CURVE",
"492 643 OFFCURVE",
"487 639 OFFCURVE",
"463 624 CURVE",
"439 607 OFFCURVE",
"433 605 OFFCURVE",
"392 587 CURVE",
"362 573 OFFCURVE",
"347 567 OFFCURVE",
"344 567 CURVE",
"339 567 OFFCURVE",
"341 566 OFFCURVE",
"351 562 CURVE",
"367 556 OFFCURVE",
"383 550 OFFCURVE",
"395 542 CURVE",
"400 538 OFFCURVE",
"404 536 OFFCURVE",
"405 536 CURVE",
"407 536 OFFCURVE",
"418 527 OFFCURVE",
"419 525 CURVE",
"420 524 OFFCURVE",
"419 524 OFFCURVE",
"413 526 CURVE"
);
},
{
closed = 1;
nodes = (
"443 -299 OFFCURVE",
"435 -295 OFFCURVE",
"435 -288 CURVE",
"435 -286 OFFCURVE",
"440 -268 OFFCURVE",
"446 -251 CURVE",
"456 -221 OFFCURVE",
"457 -220 OFFCURVE",
"455 -211 CURVE",
"452 -195 OFFCURVE",
"436 -174 OFFCURVE",
"409 -147 CURVE",
"356 -93 OFFCURVE",
"331 -53 OFFCURVE",
"322 -9 CURVE",
"318 15 OFFCURVE",
"319 61 OFFCURVE",
"326 104 CURVE",
"328 110 OFFCURVE",
"326 110 OFFCURVE",
"304 88 CURVE",
"270 55 OFFCURVE",
"251 44 OFFCURVE",
"219 42 CURVE",
"205 41 OFFCURVE",
"199 41 OFFCURVE",
"191 43 CURVE",
"143 58 OFFCURVE",
"133 105 OFFCURVE",
"166 161 CURVE",
"185 193 OFFCURVE",
"224 231 OFFCURVE",
"252 244 CURVE",
"270 253 OFFCURVE",
"291 260 OFFCURVE",
"301 260 CURVE",
"312 260 OFFCURVE",
"325 251 OFFCURVE",
"337 237 CURVE",
"344 228 LINE",
"348 245 LINE",
"351 255 OFFCURVE",
"355 264 OFFCURVE",
"357 267 CURVE",
"362 272 OFFCURVE",
"363 272 OFFCURVE",
"369 270 CURVE",
"384 264 OFFCURVE",
"406 253 OFFCURVE",
"410 248 CURVE",
"416 242 LINE",
"405 208 LINE",
"376 116 OFFCURVE",
"361 49 OFFCURVE",
"361 18 CURVE",
"361 8 OFFCURVE",
"363 -3 OFFCURVE",
"367 -19 CURVE",
"378 -59 OFFCURVE",
"385 -73 OFFCURVE",
"396 -85 CURVE",
"408 -99 OFFCURVE",
"434 -117 OFFCURVE",
"463 -133 CURVE",
"497 -150 OFFCURVE",
"513 -176 OFFCURVE",
"518 -220 CURVE",
"520 -237 OFFCURVE",
"520 -238 OFFCURVE",
"513 -266 CURVE",
"509 -282 OFFCURVE",
"505 -295 OFFCURVE",
"502 -298 CURVE",
"498 -302 OFFCURVE",
"482 -303 OFFCURVE",
"462 -301 CURVE"
);
},
{
closed = 1;
nodes = (
"270 93 OFFCURVE",
"291 130 OFFCURVE",
"302 176 CURVE",
"307 192 OFFCURVE",
"310 207 OFFCURVE",
"310 213 CURVE",
"312 220 OFFCURVE",
"311 222 OFFCURVE",
"308 224 CURVE",
"297 227 OFFCURVE",
"267 198 OFFCURVE",
"249 169 CURVE",
"226 129 OFFCURVE",
"220 101 OFFCURVE",
"230 85 CURVE",
"233 80 OFFCURVE",
"241 80 OFFCURVE",
"252 84 CURVE"
);
},
{
closed = 1;
nodes = (
"381 312 OFFCURVE",
"373 313 OFFCURVE",
"372 314 CURVE",
"368 316 OFFCURVE",
"369 324 OFFCURVE",
"374 327 CURVE",
"376 328 OFFCURVE",
"378 333 OFFCURVE",
"379 338 CURVE",
"381 356 OFFCURVE",
"364 379 OFFCURVE",
"326 405 CURVE",
"306 420 OFFCURVE",
"304 424 OFFCURVE",
"321 424 CURVE",
"343 424 OFFCURVE",
"374 410 OFFCURVE",
"407 387 CURVE",
"433 368 OFFCURVE",
"446 333 OFFCURVE",
"434 314 CURVE",
"431 310 OFFCURVE",
"430 308 OFFCURVE",
"419 310 CURVE",
"412 310 OFFCURVE",
"399 310 OFFCURVE",
"390 311 CURVE"
);
},
{
closed = 1;
nodes = (
"278 327 OFFCURVE",
"271 329 OFFCURVE",
"268 333 CURVE",
"266 336 OFFCURVE",
"266 338 OFFCURVE",
"271 346 CURVE",
"279 358 OFFCURVE",
"278 361 OFFCURVE",
"266 374 CURVE",
"255 387 OFFCURVE",
"244 393 OFFCURVE",
"222 405 CURVE",
"213 411 OFFCURVE",
"205 415 OFFCURVE",
"205 416 CURVE",
"205 418 OFFCURVE",
"208 421 OFFCURVE",
"211 423 CURVE",
"215 425 OFFCURVE",
"218 425 OFFCURVE",
"242 418 CURVE",
"273 410 OFFCURVE",
"303 396 OFFCURVE",
"317 384 CURVE",
"330 372 OFFCURVE",
"336 359 OFFCURVE",
"336 344 CURVE",
"336 326 OFFCURVE",
"332 323 OFFCURVE",
"313 323 CURVE",
"306 323 OFFCURVE",
"296 324 OFFCURVE",
"290 325 CURVE"
);
}
);
width = 700;
},
{
layerId = "14C6E355-B074-4D1E-9097-146622FBF431";
paths = (
{
closed = 1;
nodes = (
"403 531 OFFCURVE",
"314 549 OFFCURVE",
"287 552 CURVE",
"264 556 OFFCURVE",
"222 562 OFFCURVE",
"218 562 CURVE",
"218 562 OFFCURVE",
"222 565 OFFCURVE",
"229 568 CURVE",
"236 573 OFFCURVE",
"241 575 OFFCURVE",
"249 575 CURVE",
"266 579 OFFCURVE",
"295 588 OFFCURVE",
"316 596 CURVE",
"338 604 OFFCURVE",
"373 622 OFFCURVE",
"385 630 CURVE",
"401 640 OFFCURVE",
"428 671 OFFCURVE",
"448 701 CURVE",
"462 722 OFFCURVE",
"470 736 OFFCURVE",
"478 758 CURVE",
"493 794 OFFCURVE",
"508 821 OFFCURVE",
"517 829 CURVE",
"519 831 OFFCURVE",
"524 833 OFFCURVE",
"534 835 CURVE",
"547 838 OFFCURVE",
"550 838 OFFCURVE",
"567 838 CURVE",
"581 838 OFFCURVE",
"586 838 OFFCURVE",
"588 836 CURVE",
"593 833 OFFCURVE",
"604 825 OFFCURVE",
"604 824 CURVE",
"604 823 OFFCURVE",
"600 818 OFFCURVE",
"596 812 CURVE",
"588 799 OFFCURVE",
"573 769 OFFCURVE",
"564 748 CURVE",
"548 709 OFFCURVE",
"533 684 OFFCURVE",
"504 655 CURVE",
"492 643 OFFCURVE",
"487 639 OFFCURVE",
"463 624 CURVE",
"439 607 OFFCURVE",
"433 605 OFFCURVE",
"392 587 CURVE",
"362 573 OFFCURVE",
"347 567 OFFCURVE",
"344 567 CURVE",
"339 567 OFFCURVE",
"341 566 OFFCURVE",
"351 562 CURVE",
"367 556 OFFCURVE",
"383 550 OFFCURVE",
"395 542 CURVE",
"400 538 OFFCURVE",
"404 536 OFFCURVE",
"405 536 CURVE",
"407 536 OFFCURVE",
"418 527 OFFCURVE",
"419 525 CURVE",
"420 524 OFFCURVE",
"419 524 OFFCURVE",
"413 526 CURVE"
);
},
{
closed = 1;
nodes = (
"443 -299 OFFCURVE",
"435 -295 OFFCURVE",
"435 -288 CURVE",
"435 -286 OFFCURVE",
"440 -268 OFFCURVE",
"446 -251 CURVE",
"456 -221 OFFCURVE",
"457 -220 OFFCURVE",
"455 -211 CURVE",
"452 -195 OFFCURVE",
"436 -174 OFFCURVE",
"409 -147 CURVE",
"356 -93 OFFCURVE",
"331 -53 OFFCURVE",
"322 -9 CURVE",
"318 15 OFFCURVE",
"319 61 OFFCURVE",
"326 104 CURVE",
"328 110 OFFCURVE",
"326 110 OFFCURVE",
"304 88 CURVE",
"270 55 OFFCURVE",
"251 44 OFFCURVE",
"219 42 CURVE",
"205 41 OFFCURVE",
"199 41 OFFCURVE",
"191 43 CURVE",
"143 58 OFFCURVE",
"133 105 OFFCURVE",
"166 161 CURVE",
"185 193 OFFCURVE",
"224 231 OFFCURVE",
"252 244 CURVE",
"270 253 OFFCURVE",
"291 260 OFFCURVE",
"301 260 CURVE",
"312 260 OFFCURVE",
"325 251 OFFCURVE",
"337 237 CURVE",
"344 228 LINE",
"348 245 LINE",
"351 255 OFFCURVE",
"355 264 OFFCURVE",
"357 267 CURVE",
"362 272 OFFCURVE",
"363 272 OFFCURVE",
"369 270 CURVE",
"384 264 OFFCURVE",
"406 253 OFFCURVE",
"410 248 CURVE",
"416 242 LINE",
"405 208 LINE",
"376 116 OFFCURVE",
"361 49 OFFCURVE",
"361 18 CURVE",
"361 8 OFFCURVE",
"363 -3 OFFCURVE",
"367 -19 CURVE",
"378 -59 OFFCURVE",
"385 -73 OFFCURVE",
"396 -85 CURVE",
"408 -99 OFFCURVE",
"434 -117 OFFCURVE",
"463 -133 CURVE",
"497 -150 OFFCURVE",
"513 -176 OFFCURVE",
"518 -220 CURVE",
"520 -237 OFFCURVE",
"520 -238 OFFCURVE",
"513 -266 CURVE",
"509 -282 OFFCURVE",
"505 -295 OFFCURVE",
"502 -298 CURVE",
"498 -302 OFFCURVE",
"482 -303 OFFCURVE",
"462 -301 CURVE"
);
},
{
closed = 1;
nodes = (
"270 93 OFFCURVE",
"291 130 OFFCURVE",
"302 176 CURVE",
"307 192 OFFCURVE",
"310 207 OFFCURVE",
"310 213 CURVE",
"312 220 OFFCURVE",
"311 222 OFFCURVE",
"308 224 CURVE",
"297 227 OFFCURVE",
"267 198 OFFCURVE",
"249 169 CURVE",
"226 129 OFFCURVE",
"220 101 OFFCURVE",
"230 85 CURVE",
"233 80 OFFCURVE",
"241 80 OFFCURVE",
"252 84 CURVE"
);
},
{
closed = 1;
nodes = (
"381 312 OFFCURVE",
"373 313 OFFCURVE",
"372 314 CURVE",
"368 316 OFFCURVE",
"369 324 OFFCURVE",
"374 327 CURVE",
"376 328 OFFCURVE",
"378 333 OFFCURVE",
"379 338 CURVE",
"381 356 OFFCURVE",
"364 379 OFFCURVE",
"326 405 CURVE",
"306 420 OFFCURVE",
"304 424 OFFCURVE",
"321 424 CURVE",
"343 424 OFFCURVE",
"374 410 OFFCURVE",
"407 387 CURVE",
"433 368 OFFCURVE",
"446 333 OFFCURVE",
"434 314 CURVE",
"431 310 OFFCURVE",
"430 308 OFFCURVE",
"419 310 CURVE",
"412 310 OFFCURVE",
"399 310 OFFCURVE",
"390 311 CURVE"
);
},
{
closed = 1;
nodes = (
"278 327 OFFCURVE",
"271 329 OFFCURVE",
"268 333 CURVE",
"266 336 OFFCURVE",
"266 338 OFFCURVE",
"271 346 CURVE",
"279 358 OFFCURVE",
"278 361 OFFCURVE",
"266 374 CURVE",
"255 387 OFFCURVE",
"244 393 OFFCURVE",
"222 405 CURVE",
"213 411 OFFCURVE",
"205 415 OFFCURVE",
"205 416 CURVE",
"205 418 OFFCURVE",
"208 421 OFFCURVE",
"211 423 CURVE",
"215 425 OFFCURVE",
"218 425 OFFCURVE",
"242 418 CURVE",
"273 410 OFFCURVE",
"303 396 OFFCURVE",
"317 384 CURVE",
"330 372 OFFCURVE",
"336 359 OFFCURVE",
"336 344 CURVE",
"336 326 OFFCURVE",
"332 323 OFFCURVE",
"313 323 CURVE",
"306 323 OFFCURVE",
"296 324 OFFCURVE",
"290 325 CURVE"
);
}
);
width = 700;
}
);
unicode = 0069;
},
{
glyphname = j;
lastChange = "2019-02-24 22:46:33 +0000";
layers = (
{
layerId = "74DDE396-3882-446A-A041-640634B78C39";
paths = (
{
closed = 1;
nodes = (
"673 -390 OFFCURVE",
"669 -387 OFFCURVE",
"667 -386 CURVE",
"665 -383 OFFCURVE",
"665 -382 OFFCURVE",
"669 -372 CURVE",
"674 -359 OFFCURVE",
"674 -354 OFFCURVE",
"671 -343 CURVE",
"667 -334 OFFCURVE",
"659 -326 OFFCURVE",
"647 -320 CURVE",
"638 -316 OFFCURVE",
"606 -310 OFFCURVE",
"592 -310 CURVE",
"582 -310 LINE",
"582 -316 LINE",
"582 -330 OFFCURVE",
"575 -342 OFFCURVE",
"561 -348 CURVE",
"547 -356 OFFCURVE",
"530 -351 OFFCURVE",
"530 -340 CURVE",
"530 -338 OFFCURVE",
"532 -330 OFFCURVE",
"535 -321 CURVE",
"538 -313 OFFCURVE",
"540 -306 OFFCURVE",
"539 -306 CURVE",
"538 -305 OFFCURVE",
"475 -299 OFFCURVE",
"473 -300 CURVE",
"471 -301 OFFCURVE",
"469 -306 OFFCURVE",
"467 -312 CURVE",
"454 -347 OFFCURVE",
"432 -377 OFFCURVE",
"412 -386 CURVE",
"395 -395 OFFCURVE",
"374 -389 OFFCURVE",
"357 -373 CURVE",
"344 -360 OFFCURVE",
"340 -349 OFFCURVE",
"339 -328 CURVE",
"339 -318 OFFCURVE",
"337 -310 OFFCURVE",
"335 -306 CURVE",
"333 -300 LINE",
"318 -300 LINE",
"310 -300 OFFCURVE",
"258 -301 OFFCURVE",
"203 -303 CURVE",
"60 -308 OFFCURVE",
"65 -308 OFFCURVE",
"62 -305 CURVE",
"59 -301 OFFCURVE",
"61 -294 OFFCURVE",
"68 -291 CURVE",
"79 -285 OFFCURVE",
"94 -284 OFFCURVE",
"162 -282 CURVE",
"204 -281 OFFCURVE",
"235 -279 OFFCURVE",
"248 -279 CURVE",
"260 -277 OFFCURVE",
"284 -275 OFFCURVE",
"302 -274 CURVE",
"333 -273 LINE",
"340 -269 LINE",
"344 -265 OFFCURVE",
"348 -259 OFFCURVE",
"354 -247 CURVE",
"362 -232 OFFCURVE",
"365 -228 OFFCURVE",
"375 -217 CURVE",
"382 -211 OFFCURVE",
"392 -202 OFFCURVE",
"396 -200 CURVE",
"403 -194 OFFCURVE",
"406 -194 OFFCURVE",
"416 -193 CURVE",
"425 -192 OFFCURVE",
"431 -193 OFFCURVE",
"435 -195 CURVE",
"444 -199 OFFCURVE",
"455 -210 OFFCURVE",
"460 -221 CURVE",
"466 -229 OFFCURVE",
"472 -251 OFFCURVE",
"474 -264 CURVE",
"475 -272 LINE",
"497 -272 LINE",
"509 -272 OFFCURVE",
"524 -273 OFFCURVE",
"531 -274 CURVE",
"544 -275 LINE",
"542 -260 LINE",
"541 -246 OFFCURVE",
"541 -246 OFFCURVE",
"546 -241 CURVE",
"552 -235 OFFCURVE",
"557 -233 OFFCURVE",
"565 -233 CURVE",
"571 -233 OFFCURVE",
"573 -234 OFFCURVE",
"577 -240 CURVE",
"584 -246 LINE",
"584 -260 LINE",
"584 -276 LINE",
"589 -279 LINE",
"596 -281 OFFCURVE",
"629 -288 OFFCURVE",
"653 -291 CURVE",
"668 -293 OFFCURVE",
"677 -296 OFFCURVE",
"697 -304 CURVE",
"724 -314 OFFCURVE",
"732 -318 OFFCURVE",
"743 -327 CURVE",
"755 -338 OFFCURVE",
"759 -344 OFFCURVE",
"759 -357 CURVE",
"759 -367 OFFCURVE",
"759 -367 OFFCURVE",
"751 -378 CURVE",
"737 -395 OFFCURVE",
"737 -395 OFFCURVE",
"707 -395 CURVE",
"686 -395 OFFCURVE",
"679 -394 OFFCURVE",
"675 -392 CURVE"
);
},
{
closed = 1;
nodes = (
"414 -331 OFFCURVE",
"423 -314 OFFCURVE",
"424 -304 CURVE",
"425 -297 LINE",
"402 -297 LINE",
"380 -297 LINE",
"379 -303 LINE",
"377 -310 OFFCURVE",
"378 -324 OFFCURVE",
"379 -329 CURVE",
"381 -335 OFFCURVE",
"390 -341 OFFCURVE",
"397 -341 CURVE",
"401 -341 OFFCURVE",
"405 -339 OFFCURVE",
"408 -337 CURVE"
);
},
{
closed = 1;
nodes = (
"431 -256 OFFCURVE",
"427 -241 OFFCURVE",
"419 -236 CURVE",
"412 -232 OFFCURVE",
"407 -232 OFFCURVE",
"397 -238 CURVE",
"388 -242 OFFCURVE",
"382 -250 OFFCURVE",
"382 -260 CURVE",
"380 -273 OFFCURVE",
"380 -272 OFFCURVE",
"404 -272 CURVE",
"426 -272 LINE",
"428 -267 LINE"
);
}
);
width = 779;
},
{
layerId = "14C6E355-B074-4D1E-9097-146622FBF431";
paths = (
{
closed = 1;
nodes = (
"673 -390 OFFCURVE",
"669 -387 OFFCURVE",
"667 -386 CURVE",
"665 -383 OFFCURVE",
"665 -382 OFFCURVE",
"669 -372 CURVE",
"674 -359 OFFCURVE",
"674 -354 OFFCURVE",
"671 -343 CURVE",
"667 -334 OFFCURVE",
"659 -326 OFFCURVE",
"647 -320 CURVE",
"638 -316 OFFCURVE",
"606 -310 OFFCURVE",
"592 -310 CURVE",
"582 -310 LINE",
"582 -316 LINE",
"582 -330 OFFCURVE",
"575 -342 OFFCURVE",
"561 -348 CURVE",
"547 -356 OFFCURVE",
"530 -351 OFFCURVE",
"530 -340 CURVE",
"530 -338 OFFCURVE",
"532 -330 OFFCURVE",
"535 -321 CURVE",
"538 -313 OFFCURVE",
"540 -306 OFFCURVE",
"539 -306 CURVE",
"538 -305 OFFCURVE",
"475 -299 OFFCURVE",
"473 -300 CURVE",
"471 -301 OFFCURVE",
"469 -306 OFFCURVE",
"467 -312 CURVE",
"454 -347 OFFCURVE",
"432 -377 OFFCURVE",
"412 -386 CURVE",
"395 -395 OFFCURVE",
"374 -389 OFFCURVE",
"357 -373 CURVE",
"344 -360 OFFCURVE",
"340 -349 OFFCURVE",
"339 -328 CURVE",
"339 -318 OFFCURVE",
"337 -310 OFFCURVE",
"335 -306 CURVE",
"333 -300 LINE",
"318 -300 LINE",
"310 -300 OFFCURVE",
"258 -301 OFFCURVE",
"203 -303 CURVE",
"60 -308 OFFCURVE",
"65 -308 OFFCURVE",
"62 -305 CURVE",
"59 -301 OFFCURVE",
"61 -294 OFFCURVE",
"68 -291 CURVE",
"79 -285 OFFCURVE",
"94 -284 OFFCURVE",
"162 -282 CURVE",
"204 -281 OFFCURVE",
"235 -279 OFFCURVE",
"248 -279 CURVE",
"260 -277 OFFCURVE",
"284 -275 OFFCURVE",
"302 -274 CURVE",
"333 -273 LINE",
"340 -269 LINE",
"344 -265 OFFCURVE",
"348 -259 OFFCURVE",
"354 -247 CURVE",
"362 -232 OFFCURVE",
"365 -228 OFFCURVE",
"375 -217 CURVE",
"382 -211 OFFCURVE",
"392 -202 OFFCURVE",
"396 -200 CURVE",
"403 -194 OFFCURVE",
"406 -194 OFFCURVE",
"416 -193 CURVE",
"425 -192 OFFCURVE",
"431 -193 OFFCURVE",
"435 -195 CURVE",
"444 -199 OFFCURVE",
"455 -210 OFFCURVE",
"460 -221 CURVE",
"466 -229 OFFCURVE",
"472 -251 OFFCURVE",
"474 -264 CURVE",
"475 -272 LINE",
"497 -272 LINE",
"509 -272 OFFCURVE",
"524 -273 OFFCURVE",
"531 -274 CURVE",
"544 -275 LINE",
"542 -260 LINE",
"541 -246 OFFCURVE",
"541 -246 OFFCURVE",
"546 -241 CURVE",
"552 -235 OFFCURVE",
"557 -233 OFFCURVE",
"565 -233 CURVE",
"571 -233 OFFCURVE",
"573 -234 OFFCURVE",
"577 -240 CURVE",
"584 -246 LINE",
"584 -260 LINE",
"584 -276 LINE",
"589 -279 LINE",
"596 -281 OFFCURVE",
"629 -288 OFFCURVE",
"653 -291 CURVE",
"668 -293 OFFCURVE",
"677 -296 OFFCURVE",
"697 -304 CURVE",
"724 -314 OFFCURVE",
"732 -318 OFFCURVE",
"743 -327 CURVE",
"755 -338 OFFCURVE",
"759 -344 OFFCURVE",
"759 -357 CURVE",
"759 -367 OFFCURVE",
"759 -367 OFFCURVE",
"751 -378 CURVE",
"737 -395 OFFCURVE",
"737 -395 OFFCURVE",
"707 -395 CURVE",
"686 -395 OFFCURVE",
"679 -394 OFFCURVE",
"675 -392 CURVE"
);
},
{
closed = 1;
nodes = (
"414 -331 OFFCURVE",
"423 -314 OFFCURVE",
"424 -304 CURVE",
"425 -297 LINE",
"402 -297 LINE",
"380 -297 LINE",
"379 -303 LINE",
"377 -310 OFFCURVE",
"378 -324 OFFCURVE",
"379 -329 CURVE",
"381 -335 OFFCURVE",
"390 -341 OFFCURVE",
"397 -341 CURVE",
"401 -341 OFFCURVE",
"405 -339 OFFCURVE",
"408 -337 CURVE"
);
},
{
closed = 1;
nodes = (
"431 -256 OFFCURVE",
"427 -241 OFFCURVE",
"419 -236 CURVE",
"412 -232 OFFCURVE",
"407 -232 OFFCURVE",
"397 -238 CURVE",
"388 -242 OFFCURVE",
"382 -250 OFFCURVE",
"382 -260 CURVE",
"380 -273 OFFCURVE",
"380 -272 OFFCURVE",
"404 -272 CURVE",
"426 -272 LINE",
"428 -267 LINE"
);
}
);
width = 779;
}
);
unicode = 006A;
},
{
glyphname = m;
lastChange = "2019-02-24 22:46:33 +0000";
layers = (
{
layerId = "74DDE396-3882-446A-A041-640634B78C39";
paths = (
{
closed = 1;
nodes = (
"123 -247 OFFCURVE",
"122 -245 OFFCURVE",
"122 -242 CURVE",
"122 -239 OFFCURVE",
"144 -178 OFFCURVE",
"171 -107 CURVE",
"219 24 LINE",
"212 37 LINE",
"201 58 OFFCURVE",
"175 96 OFFCURVE",
"164 108 CURVE",
"151 121 OFFCURVE",
"140 128 OFFCURVE",
"130 130 CURVE",
"122 131 OFFCURVE",
"120 135 OFFCURVE",
"120 148 CURVE",
"120 162 OFFCURVE",
"123 170 OFFCURVE",
"133 179 CURVE",
"141 188 OFFCURVE",
"156 194 OFFCURVE",
"168 195 CURVE",
"175 196 LINE",
"208 155 LINE",
"238 120 OFFCURVE",
"243 115 OFFCURVE",
"248 115 CURVE",
"253 114 OFFCURVE",
"254 115 OFFCURVE",
"259 126 CURVE",
"262 133 OFFCURVE",
"271 152 OFFCURVE",
"279 168 CURVE",
"294 198 OFFCURVE",
"307 218 OFFCURVE",
"314 222 CURVE",
"316 223 OFFCURVE",
"323 223 OFFCURVE",
"331 223 CURVE",
"345 222 LINE",
"347 215 LINE",
"350 208 LINE",
"328 179 LINE",
"309 153 OFFCURVE",
"305 147 OFFCURVE",
"295 124 CURVE",
"281 93 OFFCURVE",
"279 86 OFFCURVE",
"280 68 CURVE",
"280 56 OFFCURVE",
"282 52 OFFCURVE",
"290 35 CURVE",
"295 24 OFFCURVE",
"303 8 OFFCURVE",
"308 0 CURVE",
"317 -17 OFFCURVE",
"344 -81 OFFCURVE",
"356 -118 CURVE",
"368 -154 OFFCURVE",
"373 -172 OFFCURVE",
"374 -190 CURVE",
"375 -210 OFFCURVE",
"373 -215 OFFCURVE",
"359 -223 CURVE",
"348 -230 OFFCURVE",
"338 -231 OFFCURVE",
"335 -226 CURVE",
"334 -224 OFFCURVE",
"322 -194 OFFCURVE",
"309 -159 CURVE",
"289 -107 OFFCURVE",
"281 -89 OFFCURVE",
"264 -55 CURVE",
"252 -33 OFFCURVE",
"242 -14 OFFCURVE",
"241 -14 CURVE",
"241 -14 OFFCURVE",
"222 -65 OFFCURVE",
"201 -128 CURVE",
"162 -243 LINE",
"150 -244 LINE",
"143 -244 OFFCURVE",
"135 -246 OFFCURVE",
"132 -247 CURVE",
"126 -249 OFFCURVE",
"125 -250 OFFCURVE",
"123 -248 CURVE"
);
},
{
closed = 1;
nodes = (
"192 264 OFFCURVE",
"187 279 OFFCURVE",
"185 321 CURVE",
"183 361 OFFCURVE",
"179 381 OFFCURVE",
"168 397 CURVE",
"163 405 OFFCURVE",
"163 411 OFFCURVE",
"168 420 CURVE",
"172 425 LINE",
"260 424 LINE",
"348 423 LINE",
"347 447 LINE",
"345 484 OFFCURVE",
"341 502 OFFCURVE",
"333 518 CURVE",
"327 533 OFFCURVE",
"326 542 OFFCURVE",
"330 549 CURVE",
"334 553 LINE",
"453 553 LINE",
"571 552 LINE",
"579 545 LINE",
"584 540 OFFCURVE",
"586 535 OFFCURVE",
"589 524 CURVE",
"590 501 OFFCURVE",
"593 501 OFFCURVE",
"498 502 CURVE",
"418 504 LINE",
"420 493 LINE",
"420 486 OFFCURVE",
"422 460 OFFCURVE",
"424 433 CURVE",
"427 390 OFFCURVE",
"427 386 OFFCURVE",
"424 381 CURVE",
"420 372 OFFCURVE",
"409 372 OFFCURVE",
"358 374 CURVE",
"333 375 OFFCURVE",
"301 376 OFFCURVE",
"284 376 CURVE",
"256 376 LINE",
"256 371 LINE",
"256 366 OFFCURVE",
"260 342 OFFCURVE",
"261 314 CURVE",
"266 256 OFFCURVE",
"266 258 OFFCURVE",
"242 250 CURVE",
"226 242 OFFCURVE",
"220 243 OFFCURVE",
"210 252 CURVE"
);
}
);
width = 709;
},
{
layerId = "14C6E355-B074-4D1E-9097-146622FBF431";
paths = (
{
closed = 1;
nodes = (
"123 -247 OFFCURVE",
"122 -245 OFFCURVE",
"122 -242 CURVE",
"122 -239 OFFCURVE",
"144 -178 OFFCURVE",
"171 -107 CURVE",
"219 24 LINE",
"212 37 LINE",
"201 58 OFFCURVE",
"175 96 OFFCURVE",
"164 108 CURVE",
"151 121 OFFCURVE",
"140 128 OFFCURVE",
"130 130 CURVE",
"122 131 OFFCURVE",
"120 135 OFFCURVE",
"120 148 CURVE",
"120 162 OFFCURVE",
"123 170 OFFCURVE",
"133 179 CURVE",
"141 188 OFFCURVE",
"156 194 OFFCURVE",
"168 195 CURVE",
"175 196 LINE",
"208 155 LINE",
"238 120 OFFCURVE",
"243 115 OFFCURVE",
"248 115 CURVE",
"253 114 OFFCURVE",
"254 115 OFFCURVE",
"259 126 CURVE",
"262 133 OFFCURVE",
"271 152 OFFCURVE",
"279 168 CURVE",
"294 198 OFFCURVE",
"307 218 OFFCURVE",
"314 222 CURVE",
"316 223 OFFCURVE",
"323 223 OFFCURVE",
"331 223 CURVE",
"345 222 LINE",
"347 215 LINE",
"350 208 LINE",
"328 179 LINE",
"309 153 OFFCURVE",
"305 147 OFFCURVE",
"295 124 CURVE",
"281 93 OFFCURVE",
"279 86 OFFCURVE",
"280 68 CURVE",
"280 56 OFFCURVE",
"282 52 OFFCURVE",
"290 35 CURVE",
"295 24 OFFCURVE",
"303 8 OFFCURVE",
"308 0 CURVE",
"317 -17 OFFCURVE",
"344 -81 OFFCURVE",
"356 -118 CURVE",
"368 -154 OFFCURVE",
"373 -172 OFFCURVE",
"374 -190 CURVE",
"375 -210 OFFCURVE",
"373 -215 OFFCURVE",
"359 -223 CURVE",
"348 -230 OFFCURVE",
"338 -231 OFFCURVE",
"335 -226 CURVE",
"334 -224 OFFCURVE",
"322 -194 OFFCURVE",
"309 -159 CURVE",
"289 -107 OFFCURVE",
"281 -89 OFFCURVE",
"264 -55 CURVE",
"252 -33 OFFCURVE",
"242 -14 OFFCURVE",
"241 -14 CURVE",
"241 -14 OFFCURVE",
"222 -65 OFFCURVE",
"201 -128 CURVE",
"162 -243 LINE",
"150 -244 LINE",
"143 -244 OFFCURVE",
"135 -246 OFFCURVE",
"132 -247 CURVE",
"126 -249 OFFCURVE",
"125 -250 OFFCURVE",
"123 -248 CURVE"
);
},
{
closed = 1;
nodes = (
"192 264 OFFCURVE",
"187 279 OFFCURVE",
"185 321 CURVE",
"183 361 OFFCURVE",
"179 381 OFFCURVE",
"168 397 CURVE",
"163 405 OFFCURVE",
"163 411 OFFCURVE",
"168 420 CURVE",
"172 425 LINE",
"260 424 LINE",
"348 423 LINE",
"347 447 LINE",
"345 484 OFFCURVE",
"341 502 OFFCURVE",
"333 518 CURVE",
"327 533 OFFCURVE",
"326 542 OFFCURVE",
"330 549 CURVE",
"334 553 LINE",
"453 553 LINE",
"571 552 LINE",
"579 545 LINE",
"584 540 OFFCURVE",
"586 535 OFFCURVE",
"589 524 CURVE",
"590 501 OFFCURVE",
"593 501 OFFCURVE",
"498 502 CURVE",
"418 504 LINE",
"420 493 LINE",
"420 486 OFFCURVE",
"422 460 OFFCURVE",
"424 433 CURVE",
"427 390 OFFCURVE",
"427 386 OFFCURVE",
"424 381 CURVE",
"420 372 OFFCURVE",
"409 372 OFFCURVE",
"358 374 CURVE",
"333 375 OFFCURVE",
"301 376 OFFCURVE",
"284 376 CURVE",
"256 376 LINE",
"256 371 LINE",
"256 366 OFFCURVE",
"260 342 OFFCURVE",
"261 314 CURVE",
"266 256 OFFCURVE",
"266 258 OFFCURVE",
"242 250 CURVE",
"226 242 OFFCURVE",
"220 243 OFFCURVE",
"210 252 CURVE"
);
}
);
width = 709;
}
);
unicode = 006D;
},
{
glyphname = n;
lastChange = "2019-02-24 22:46:33 +0000";
layers = (
{
layerId = "74DDE396-3882-446A-A041-640634B78C39";
paths = (
{
closed = 1;
nodes = (
"123 -247 OFFCURVE",
"122 -245 OFFCURVE",
"122 -242 CURVE",
"122 -239 OFFCURVE",
"144 -178 OFFCURVE",
"171 -107 CURVE",
"219 24 LINE",
"212 37 LINE",
"201 58 OFFCURVE",
"175 96 OFFCURVE",
"164 108 CURVE",
"151 121 OFFCURVE",
"140 128 OFFCURVE",
"130 130 CURVE",
"122 131 OFFCURVE",
"120 135 OFFCURVE",
"120 148 CURVE",
"120 162 OFFCURVE",
"123 170 OFFCURVE",
"133 179 CURVE",
"141 188 OFFCURVE",
"156 194 OFFCURVE",
"168 195 CURVE",
"175 196 LINE",
"208 155 LINE",
"238 120 OFFCURVE",
"243 115 OFFCURVE",
"248 115 CURVE",
"253 114 OFFCURVE",
"254 115 OFFCURVE",
"259 126 CURVE",
"262 133 OFFCURVE",
"271 152 OFFCURVE",
"279 168 CURVE",
"294 198 OFFCURVE",
"307 218 OFFCURVE",
"314 222 CURVE",
"316 223 OFFCURVE",
"323 223 OFFCURVE",
"331 223 CURVE",
"345 222 LINE",
"347 215 LINE",
"350 208 LINE",
"328 179 LINE",
"309 153 OFFCURVE",
"305 147 OFFCURVE",
"295 124 CURVE",
"281 93 OFFCURVE",
"279 86 OFFCURVE",
"280 68 CURVE",
"280 56 OFFCURVE",
"282 52 OFFCURVE",
"290 35 CURVE",
"295 24 OFFCURVE",
"303 8 OFFCURVE",
"308 0 CURVE",
"317 -17 OFFCURVE",
"344 -81 OFFCURVE",
"356 -118 CURVE",
"368 -154 OFFCURVE",
"373 -172 OFFCURVE",
"374 -190 CURVE",
"375 -210 OFFCURVE",
"373 -215 OFFCURVE",
"359 -223 CURVE",
"348 -230 OFFCURVE",
"338 -231 OFFCURVE",
"335 -226 CURVE",
"334 -224 OFFCURVE",
"322 -194 OFFCURVE",
"309 -159 CURVE",
"289 -107 OFFCURVE",
"281 -89 OFFCURVE",
"264 -55 CURVE",
"252 -33 OFFCURVE",
"242 -14 OFFCURVE",
"241 -14 CURVE",
"241 -14 OFFCURVE",
"222 -65 OFFCURVE",
"201 -128 CURVE",
"162 -243 LINE",
"150 -244 LINE",
"143 -244 OFFCURVE",
"135 -246 OFFCURVE",
"132 -247 CURVE",
"126 -249 OFFCURVE",
"125 -250 OFFCURVE",
"123 -248 CURVE"
);
},
{
closed = 1;
nodes = (
"226 233 OFFCURVE",
"220 233 OFFCURVE",
"209 240 CURVE",
"189 254 OFFCURVE",
"184 267 OFFCURVE",
"182 311 CURVE",
"180 347 OFFCURVE",
"175 370 OFFCURVE",
"168 387 CURVE",
"161 400 OFFCURVE",
"160 412 OFFCURVE",
"165 418 CURVE",
"168 423 LINE",
"224 421 LINE",
"280 419 OFFCURVE",
"372 419 OFFCURVE",
"401 420 CURVE",
"414 421 OFFCURVE",
"417 421 OFFCURVE",
"421 417 CURVE",
"429 412 OFFCURVE",
"432 404 OFFCURVE",
"434 391 CURVE",
"435 380 OFFCURVE",
"434 379 OFFCURVE",
"430 375 CURVE",
"421 366 OFFCURVE",
"409 365 OFFCURVE",
"360 370 CURVE",
"351 371 OFFCURVE",
"324 372 OFFCURVE",
"299 372 CURVE",
"258 372 OFFCURVE",
"255 372 OFFCURVE",
"255 369 CURVE",
"255 367 OFFCURVE",
"257 340 OFFCURVE",
"260 309 CURVE",
"264 253 LINE",
"259 248 LINE",
"256 245 OFFCURVE",
"249 241 OFFCURVE",
"242 239 CURVE"
);
}
);
width = 554;
},
{
layerId = "14C6E355-B074-4D1E-9097-146622FBF431";
paths = (
{
closed = 1;
nodes = (
"123 -247 OFFCURVE",
"122 -245 OFFCURVE",
"122 -242 CURVE",
"122 -239 OFFCURVE",
"144 -178 OFFCURVE",
"171 -107 CURVE",
"219 24 LINE",
"212 37 LINE",
"201 58 OFFCURVE",
"175 96 OFFCURVE",
"164 108 CURVE",
"151 121 OFFCURVE",
"140 128 OFFCURVE",
"130 130 CURVE",
"122 131 OFFCURVE",
"120 135 OFFCURVE",
"120 148 CURVE",
"120 162 OFFCURVE",
"123 170 OFFCURVE",
"133 179 CURVE",
"141 188 OFFCURVE",
"156 194 OFFCURVE",
"168 195 CURVE",
"175 196 LINE",
"208 155 LINE",
"238 120 OFFCURVE",
"243 115 OFFCURVE",
"248 115 CURVE",
"253 114 OFFCURVE",
"254 115 OFFCURVE",
"259 126 CURVE",
"262 133 OFFCURVE",
"271 152 OFFCURVE",
"279 168 CURVE",
"294 198 OFFCURVE",
"307 218 OFFCURVE",
"314 222 CURVE",
"316 223 OFFCURVE",
"323 223 OFFCURVE",
"331 223 CURVE",
"345 222 LINE",
"347 215 LINE",
"350 208 LINE",
"328 179 LINE",
"309 153 OFFCURVE",
"305 147 OFFCURVE",
"295 124 CURVE",
"281 93 OFFCURVE",
"279 86 OFFCURVE",
"280 68 CURVE",
"280 56 OFFCURVE",
"282 52 OFFCURVE",
"290 35 CURVE",
"295 24 OFFCURVE",
"303 8 OFFCURVE",
"308 0 CURVE",
"317 -17 OFFCURVE",
"344 -81 OFFCURVE",
"356 -118 CURVE",
"368 -154 OFFCURVE",
"373 -172 OFFCURVE",
"374 -190 CURVE",
"375 -210 OFFCURVE",
"373 -215 OFFCURVE",
"359 -223 CURVE",
"348 -230 OFFCURVE",
"338 -231 OFFCURVE",
"335 -226 CURVE",
"334 -224 OFFCURVE",
"322 -194 OFFCURVE",
"309 -159 CURVE",
"289 -107 OFFCURVE",
"281 -89 OFFCURVE",
"264 -55 CURVE",
"252 -33 OFFCURVE",
"242 -14 OFFCURVE",
"241 -14 CURVE",
"241 -14 OFFCURVE",
"222 -65 OFFCURVE",
"201 -128 CURVE",
"162 -243 LINE",
"150 -244 LINE",
"143 -244 OFFCURVE",
"135 -246 OFFCURVE",
"132 -247 CURVE",
"126 -249 OFFCURVE",
"125 -250 OFFCURVE",
"123 -248 CURVE"
);
},
{
closed = 1;
nodes = (
"226 233 OFFCURVE",
"220 233 OFFCURVE",
"209 240 CURVE",
"189 254 OFFCURVE",
"184 267 OFFCURVE",
"182 311 CURVE",
"180 347 OFFCURVE",
"175 370 OFFCURVE",
"168 387 CURVE",
"161 400 OFFCURVE",
"160 412 OFFCURVE",
"165 418 CURVE",
"168 423 LINE",
"224 421 LINE",
"280 419 OFFCURVE",
"372 419 OFFCURVE",
"401 420 CURVE",
"414 421 OFFCURVE",
"417 421 OFFCURVE",
"421 417 CURVE",
"429 412 OFFCURVE",
"432 404 OFFCURVE",
"434 391 CURVE",
"435 380 OFFCURVE",
"434 379 OFFCURVE",
"430 375 CURVE",
"421 366 OFFCURVE",
"409 365 OFFCURVE",
"360 370 CURVE",
"351 371 OFFCURVE",
"324 372 OFFCURVE",
"299 372 CURVE",
"258 372 OFFCURVE",
"255 372 OFFCURVE",
"255 369 CURVE",
"255 367 OFFCURVE",
"257 340 OFFCURVE",
"260 309 CURVE",
"264 253 LINE",
"259 248 LINE",
"256 245 OFFCURVE",
"249 241 OFFCURVE",
"242 239 CURVE"
);
}
);
width = 554;
}
);
unicode = 006E;
},
{
glyphname = o;
lastChange = "2019-02-24 22:46:33 +0000";
layers = (
{
layerId = "74DDE396-3882-446A-A041-640634B78C39";
paths = (
{
closed = 1;
nodes = (
"202 -129 OFFCURVE",
"178 -118 OFFCURVE",
"160 -99 CURVE",
"150 -88 OFFCURVE",
"150 -87 OFFCURVE",
"150 -73 CURVE",
"150 -55 OFFCURVE",
"157 -40 OFFCURVE",
"171 -27 CURVE",
"190 -12 OFFCURVE",
"208 -6 OFFCURVE",
"294 3 CURVE",
"315 6 OFFCURVE",
"322 6 OFFCURVE",
"331 3 CURVE",
"345 0 OFFCURVE",
"360 -13 OFFCURVE",
"358 -19 CURVE",
"357 -22 OFFCURVE",
"342 -36 OFFCURVE",
"324 -51 CURVE",
"300 -70 OFFCURVE",
"292 -79 OFFCURVE",
"294 -81 CURVE",
"295 -82 OFFCURVE",
"315 -84 OFFCURVE",
"349 -84 CURVE",
"417 -84 OFFCURVE",
"468 -76 OFFCURVE",
"636 -48 CURVE",
"688 -39 OFFCURVE",
"739 -33 OFFCURVE",
"825 -27 CURVE",
"876 -24 OFFCURVE",
"886 -24 OFFCURVE",
"910 -27 CURVE",
"973 -37 OFFCURVE",
"1003 -54 OFFCURVE",
"999 -81 CURVE",
"999 -91 OFFCURVE",
"970 -115 OFFCURVE",
"945 -129 CURVE",
"927 -136 OFFCURVE",
"925 -138 OFFCURVE",
"892 -138 CURVE",
"873 -139 OFFCURVE",
"853 -138 OFFCURVE",
"849 -138 CURVE",
"840 -136 OFFCURVE",
"814 -117 OFFCURVE",
"814 -111 CURVE",
"814 -109 OFFCURVE",
"825 -100 OFFCURVE",
"838 -91 CURVE",
"862 -73 LINE",
"834 -75 LINE",
"781 -78 OFFCURVE",
"666 -94 OFFCURVE",
"534 -117 CURVE",
"436 -135 OFFCURVE",
"420 -136 OFFCURVE",
"337 -138 CURVE",
"280 -138 OFFCURVE",
"255 -138 OFFCURVE",
"240 -135 CURVE"
);
},
{
closed = 1;
nodes = (
"636 32 OFFCURVE",
"634 32 OFFCURVE",
"633 38 CURVE",
"633 42 OFFCURVE",
"634 47 OFFCURVE",
"640 54 CURVE",
"645 59 OFFCURVE",
"648 65 OFFCURVE",
"648 68 CURVE",
"648 77 OFFCURVE",
"609 108 OFFCURVE",
"559 138 CURVE",
"550 144 OFFCURVE",
"546 147 OFFCURVE",
"546 152 CURVE",
"546 168 OFFCURVE",
"556 168 OFFCURVE",
"607 152 CURVE",
"660 134 OFFCURVE",
"691 119 OFFCURVE",
"711 101 CURVE",
"730 83 OFFCURVE",
"735 74 OFFCURVE",
"735 51 CURVE",
"735 35 OFFCURVE",
"733 33 OFFCURVE",
"727 29 CURVE",
"718 21 OFFCURVE",
"703 21 OFFCURVE",
"661 27 CURVE"
);
},
{
closed = 1;
nodes = (
"507 47 OFFCURVE",
"492 51 OFFCURVE",
"490 53 CURVE",
"486 56 OFFCURVE",
"487 62 OFFCURVE",
"493 71 CURVE",
"498 75 OFFCURVE",
"501 81 OFFCURVE",
"501 83 CURVE",
"501 92 OFFCURVE",
"448 125 OFFCURVE",
"423 132 CURVE",
"406 138 OFFCURVE",
"402 144 OFFCURVE",
"412 156 CURVE",
"420 164 OFFCURVE",
"424 164 OFFCURVE",
"457 155 CURVE",
"526 138 OFFCURVE",
"562 123 OFFCURVE",
"579 102 CURVE",
"600 80 OFFCURVE",
"603 57 OFFCURVE",
"586 42 CURVE",
"574 32 OFFCURVE",
"558 32 OFFCURVE",
"522 42 CURVE"
);
},
{
closed = 1;
nodes = (
"978 74 OFFCURVE",
"966 86 OFFCURVE",
"966 95 CURVE",
"966 102 OFFCURVE",
"994 134 OFFCURVE",
"1014 146 CURVE",
"1027 155 LINE",
"1044 149 LINE",
"1063 143 OFFCURVE",
"1077 134 OFFCURVE",
"1081 126 CURVE",
"1086 120 OFFCURVE",
"1078 107 OFFCURVE",
"1060 89 CURVE",
"1038 66 OFFCURVE",
"1020 60 OFFCURVE",
"993 69 CURVE"
);
},
{
closed = 1;
nodes = (
"879 114 OFFCURVE",
"871 120 OFFCURVE",
"868 131 CURVE",
"865 140 OFFCURVE",
"867 141 OFFCURVE",
"876 152 CURVE",
"897 176 OFFCURVE",
"919 192 OFFCURVE",
"934 192 CURVE",
"943 192 OFFCURVE",
"975 171 OFFCURVE",
"979 164 CURVE",
"984 156 OFFCURVE",
"979 146 OFFCURVE",
"958 126 CURVE",
"937 105 LINE",
"919 105 LINE",
"910 105 OFFCURVE",
"897 108 OFFCURVE",
"892 110 CURVE"
);
},
{
closed = 1;
nodes = (
"1002 209 OFFCURVE",
"988 210 OFFCURVE",
"958 207 CURVE",
"937 204 OFFCURVE",
"865 204 OFFCURVE",
"774 204 CURVE",
"568 204 OFFCURVE",
"559 206 OFFCURVE",
"511 251 CURVE",
"501 261 OFFCURVE",
"498 266 OFFCURVE",
"498 272 CURVE",
"498 282 OFFCURVE",
"501 284 OFFCURVE",
"522 281 CURVE",
"567 272 OFFCURVE",
"609 272 OFFCURVE",
"813 272 CURVE",
"1023 270 LINE",
"1045 264 LINE",
"1057 261 OFFCURVE",
"1084 249 OFFCURVE",
"1104 240 CURVE",
"1141 221 OFFCURVE",
"1146 216 OFFCURVE",
"1135 204 CURVE",
"1129 198 OFFCURVE",
"1129 198 OFFCURVE",
"1051 206 CURVE"
);
}
);
width = 1290;
},
{
layerId = "14C6E355-B074-4D1E-9097-146622FBF431";
paths = (
{
closed = 1;
nodes = (
"202 -129 OFFCURVE",
"178 -118 OFFCURVE",
"160 -99 CURVE",
"150 -88 OFFCURVE",
"150 -87 OFFCURVE",
"150 -73 CURVE",
"150 -55 OFFCURVE",
"157 -40 OFFCURVE",
"171 -27 CURVE",
"190 -12 OFFCURVE",
"208 -6 OFFCURVE",
"294 3 CURVE",
"315 6 OFFCURVE",
"322 6 OFFCURVE",
"331 3 CURVE",
"345 0 OFFCURVE",
"360 -13 OFFCURVE",
"358 -19 CURVE",
"357 -22 OFFCURVE",
"342 -36 OFFCURVE",
"324 -51 CURVE",
"300 -70 OFFCURVE",
"292 -79 OFFCURVE",
"294 -81 CURVE",
"295 -82 OFFCURVE",
"315 -84 OFFCURVE",
"349 -84 CURVE",
"417 -84 OFFCURVE",
"468 -76 OFFCURVE",
"636 -48 CURVE",
"688 -39 OFFCURVE",
"739 -33 OFFCURVE",
"825 -27 CURVE",
"876 -24 OFFCURVE",
"886 -24 OFFCURVE",
"910 -27 CURVE",
"973 -37 OFFCURVE",
"1003 -54 OFFCURVE",
"999 -81 CURVE",
"999 -91 OFFCURVE",
"970 -115 OFFCURVE",
"945 -129 CURVE",
"927 -136 OFFCURVE",
"925 -138 OFFCURVE",
"892 -138 CURVE",
"873 -139 OFFCURVE",
"853 -138 OFFCURVE",
"849 -138 CURVE",
"840 -136 OFFCURVE",
"814 -117 OFFCURVE",
"814 -111 CURVE",
"814 -109 OFFCURVE",
"825 -100 OFFCURVE",
"838 -91 CURVE",
"862 -73 LINE",
"834 -75 LINE",
"781 -78 OFFCURVE",
"666 -94 OFFCURVE",
"534 -117 CURVE",
"436 -135 OFFCURVE",
"420 -136 OFFCURVE",
"337 -138 CURVE",
"280 -138 OFFCURVE",
"255 -138 OFFCURVE",
"240 -135 CURVE"
);
},
{
closed = 1;
nodes = (
"636 32 OFFCURVE",
"634 32 OFFCURVE",
"633 38 CURVE",
"633 42 OFFCURVE",
"634 47 OFFCURVE",
"640 54 CURVE",
"645 59 OFFCURVE",
"648 65 OFFCURVE",
"648 68 CURVE",
"648 77 OFFCURVE",
"609 108 OFFCURVE",
"559 138 CURVE",
"550 144 OFFCURVE",
"546 147 OFFCURVE",
"546 152 CURVE",
"546 168 OFFCURVE",
"556 168 OFFCURVE",
"607 152 CURVE",
"660 134 OFFCURVE",
"691 119 OFFCURVE",
"711 101 CURVE",
"730 83 OFFCURVE",
"735 74 OFFCURVE",
"735 51 CURVE",
"735 35 OFFCURVE",
"733 33 OFFCURVE",
"727 29 CURVE",
"718 21 OFFCURVE",
"703 21 OFFCURVE",
"661 27 CURVE"
);
},
{
closed = 1;
nodes = (
"507 47 OFFCURVE",
"492 51 OFFCURVE",
"490 53 CURVE",
"486 56 OFFCURVE",
"487 62 OFFCURVE",
"493 71 CURVE",
"498 75 OFFCURVE",
"501 81 OFFCURVE",
"501 83 CURVE",
"501 92 OFFCURVE",
"448 125 OFFCURVE",
"423 132 CURVE",
"406 138 OFFCURVE",
"402 144 OFFCURVE",
"412 156 CURVE",
"420 164 OFFCURVE",
"424 164 OFFCURVE",
"457 155 CURVE",
"526 138 OFFCURVE",
"562 123 OFFCURVE",
"579 102 CURVE",
"600 80 OFFCURVE",
"603 57 OFFCURVE",
"586 42 CURVE",
"574 32 OFFCURVE",
"558 32 OFFCURVE",
"522 42 CURVE"
);
},
{
closed = 1;
nodes = (
"978 74 OFFCURVE",
"966 86 OFFCURVE",
"966 95 CURVE",
"966 102 OFFCURVE",
"994 134 OFFCURVE",
"1014 146 CURVE",
"1027 155 LINE",
"1044 149 LINE",
"1063 143 OFFCURVE",
"1077 134 OFFCURVE",
"1081 126 CURVE",
"1086 120 OFFCURVE",
"1078 107 OFFCURVE",
"1060 89 CURVE",
"1038 66 OFFCURVE",
"1020 60 OFFCURVE",
"993 69 CURVE"
);
},
{
closed = 1;
nodes = (
"879 114 OFFCURVE",
"871 120 OFFCURVE",
"868 131 CURVE",
"865 140 OFFCURVE",
"867 141 OFFCURVE",
"876 152 CURVE",
"897 176 OFFCURVE",
"919 192 OFFCURVE",
"934 192 CURVE",
"943 192 OFFCURVE",
"975 171 OFFCURVE",
"979 164 CURVE",
"984 156 OFFCURVE",
"979 146 OFFCURVE",
"958 126 CURVE",
"937 105 LINE",
"919 105 LINE",
"910 105 OFFCURVE",
"897 108 OFFCURVE",
"892 110 CURVE"
);
},
{
closed = 1;
nodes = (
"1002 209 OFFCURVE",
"988 210 OFFCURVE",
"958 207 CURVE",
"937 204 OFFCURVE",
"865 204 OFFCURVE",
"774 204 CURVE",
"568 204 OFFCURVE",
"559 206 OFFCURVE",
"511 251 CURVE",
"501 261 OFFCURVE",
"498 266 OFFCURVE",
"498 272 CURVE",
"498 282 OFFCURVE",
"501 284 OFFCURVE",
"522 281 CURVE",
"567 272 OFFCURVE",
"609 272 OFFCURVE",
"813 272 CURVE",
"1023 270 LINE",
"1045 264 LINE",
"1057 261 OFFCURVE",
"1084 249 OFFCURVE",
"1104 240 CURVE",
"1141 221 OFFCURVE",
"1146 216 OFFCURVE",
"1135 204 CURVE",
"1129 198 OFFCURVE",
"1129 198 OFFCURVE",
"1051 206 CURVE"
);
}
);
width = 1290;
}
);
unicode = 006F;
},
{
glyphname = p;
lastChange = "2019-02-24 22:53:57 +0000";
layers = (
{
layerId = "74DDE396-3882-446A-A041-640634B78C39";
paths = (
{
closed = 1;
nodes = (
"232 26 OFFCURVE",
"195 63 OFFCURVE",
"190 108 CURVE",
"187 124 OFFCURVE",
"195 151 OFFCURVE",
"209 189 CURVE",
"220 218 OFFCURVE",
"224 229 OFFCURVE",
"231 257 CURVE",
"240 284 OFFCURVE",
"241 291 OFFCURVE",
"237 296 CURVE",
"232 301 OFFCURVE",
"232 301 OFFCURVE",
"221 294 CURVE",
"216 292 OFFCURVE",
"210 288 OFFCURVE",
"210 287 CURVE",
"209 286 OFFCURVE",
"204 283 OFFCURVE",
"199 279 CURVE",
"189 273 OFFCURVE",
"171 278 OFFCURVE",
"161 288 CURVE",
"152 298 OFFCURVE",
"152 299 OFFCURVE",
"150 322 CURVE",
"150 343 OFFCURVE",
"150 347 OFFCURVE",
"156 354 CURVE",
"167 369 OFFCURVE",
"175 373 OFFCURVE",
"199 377 CURVE",
"241 382 OFFCURVE",
"265 376 OFFCURVE",
"286 351 CURVE",
"299 336 OFFCURVE",
"307 314 OFFCURVE",
"311 277 CURVE",
"316 231 OFFCURVE",
"309 196 OFFCURVE",
"277 138 CURVE",
"260 102 OFFCURVE",
"277 87 OFFCURVE",
"311 108 CURVE",
"325 117 OFFCURVE",
"339 118 OFFCURVE",
"352 112 CURVE",
"367 107 OFFCURVE",
"374 97 OFFCURVE",
"375 81 CURVE",
"376 59 OFFCURVE",
"375 53 OFFCURVE",
"361 39 CURVE",
"345 21 OFFCURVE",
"316 13 OFFCURVE",
"280 18 CURVE"
);
},
{
closed = 1;
nodes = (
"472 38 OFFCURVE",
"435 77 OFFCURVE",
"430 116 CURVE",
"429 122 OFFCURVE",
"429 137 OFFCURVE",
"430 147 CURVE",
"432 167 OFFCURVE",
"437 184 OFFCURVE",
"464 256 CURVE",
"472 283 OFFCURVE",
"475 308 OFFCURVE",
"467 309 CURVE",
"466 312 OFFCURVE",
"459 307 OFFCURVE",
"451 301 CURVE",
"429 284 OFFCURVE",
"402 287 OFFCURVE",
"392 309 CURVE",
"386 326 OFFCURVE",
"386 349 OFFCURVE",
"392 364 CURVE",
"397 378 OFFCURVE",
"407 383 OFFCURVE",
"431 387 CURVE",
"489 398 OFFCURVE",
"530 371 OFFCURVE",
"542 314 CURVE",
"545 294 OFFCURVE",
"545 251 OFFCURVE",
"541 229 CURVE",
"536 209 OFFCURVE",
"526 174 OFFCURVE",
"514 147 CURVE",
"499 109 OFFCURVE",
"512 97 OFFCURVE",
"545 119 CURVE",
"557 128 OFFCURVE",
"561 128 OFFCURVE",
"572 126 CURVE",
"597 123 OFFCURVE",
"611 108 OFFCURVE",
"611 81 CURVE",
"611 59 OFFCURVE",
"600 46 OFFCURVE",
"577 34 CURVE",
"562 29 OFFCURVE",
"530 26 OFFCURVE",
"512 29 CURVE"
);
},
{
closed = 1;
nodes = (
"199 433 OFFCURVE",
"199 443 OFFCURVE",
"211 449 CURVE",
"224 456 OFFCURVE",
"252 484 OFFCURVE",
"249 488 CURVE",
"249 489 OFFCURVE",
"241 491 OFFCURVE",
"234 491 CURVE",
"219 491 OFFCURVE",
"205 498 OFFCURVE",
"205 506 CURVE",
"205 512 OFFCURVE",
"221 539 OFFCURVE",
"231 547 CURVE",
"242 558 OFFCURVE",
"260 562 OFFCURVE",
"274 559 CURVE",
"286 554 OFFCURVE",
"299 541 OFFCURVE",
"302 527 CURVE",
"307 513 OFFCURVE",
"307 509 OFFCURVE",
"301 489 CURVE",
"296 472 OFFCURVE",
"295 469 OFFCURVE",
"276 453 CURVE",
"239 419 OFFCURVE",
"225 413 OFFCURVE",
"210 426 CURVE"
);
},
{
closed = 1;
nodes = (
"417 443 OFFCURVE",
"415 448 OFFCURVE",
"415 449 CURVE",
"415 451 OFFCURVE",
"425 462 OFFCURVE",
"439 474 CURVE",
"452 488 OFFCURVE",
"465 498 OFFCURVE",
"465 498 CURVE",
"465 499 OFFCURVE",
"457 502 OFFCURVE",
"449 502 CURVE",
"429 503 OFFCURVE",
"419 509 OFFCURVE",
"419 519 CURVE",
"419 523 OFFCURVE",
"422 527 OFFCURVE",
"424 528 CURVE",
"425 531 OFFCURVE",
"429 533 OFFCURVE",
"429 534 CURVE",
"429 541 OFFCURVE",
"449 562 OFFCURVE",
"457 566 CURVE",
"470 571 OFFCURVE",
"487 569 OFFCURVE",
"499 563 CURVE",
"512 556 OFFCURVE",
"519 544 OFFCURVE",
"519 524 CURVE",
"519 498 OFFCURVE",
"514 489 OFFCURVE",
"492 467 CURVE",
"457 429 OFFCURVE",
"437 422 OFFCURVE",
"422 439 CURVE"
);
}
);
width = 761;
},
{
components = (
{
alignment = -1;
name = e;
transform = "{1, 0, 0, 1, 0, 528}";
},
{
name = apostrophoi;
transform = "{1, 0, 0, 1, 57, 60}";
}
);
layerId = "14C6E355-B074-4D1E-9097-146622FBF431";
width = 721;
}
);
unicode = 0070;
},
{
glyphname = q;
lastChange = "2019-02-24 22:46:33 +0000";
layers = (
{
layerId = "74DDE396-3882-446A-A041-640634B78C39";
paths = (
{
closed = 1;
nodes = (
"370 -651 OFFCURVE",
"363 -648 OFFCURVE",
"363 -641 CURVE",
"363 -639 OFFCURVE",
"367 -623 OFFCURVE",
"373 -608 CURVE",
"382 -580 OFFCURVE",
"383 -579 OFFCURVE",
"381 -571 CURVE",
"378 -557 OFFCURVE",
"364 -538 OFFCURVE",
"339 -513 CURVE",
"291 -464 OFFCURVE",
"268 -428 OFFCURVE",
"260 -388 CURVE",
"256 -366 OFFCURVE",
"257 -324 OFFCURVE",
"264 -285 CURVE",
"265 -279 OFFCURVE",
"264 -279 OFFCURVE",
"244 -299 CURVE",
"213 -329 OFFCURVE",
"195 -339 OFFCURVE",
"166 -341 CURVE",
"154 -342 OFFCURVE",
"148 -342 OFFCURVE",
"141 -340 CURVE",
"97 -327 OFFCURVE",
"88 -284 OFFCURVE",
"118 -233 CURVE",
"135 -204 OFFCURVE",
"171 -169 OFFCURVE",
"196 -158 CURVE",
"213 -149 OFFCURVE",
"232 -143 OFFCURVE",
"241 -143 CURVE",
"251 -143 OFFCURVE",
"263 -151 OFFCURVE",
"274 -164 CURVE",
"280 -172 LINE",
"284 -157 LINE",
"286 -148 OFFCURVE",
"290 -139 OFFCURVE",
"292 -137 CURVE",
"296 -132 OFFCURVE",
"297 -132 OFFCURVE",
"303 -134 CURVE",
"316 -139 OFFCURVE",
"336 -149 OFFCURVE",
"340 -154 CURVE",
"345 -159 LINE",
"335 -190 LINE",
"309 -274 OFFCURVE",
"295 -335 OFFCURVE",
"295 -363 CURVE",
"295 -372 OFFCURVE",
"297 -382 OFFCURVE",
"301 -397 CURVE",
"311 -433 OFFCURVE",
"317 -446 OFFCURVE",
"327 -457 CURVE",
"338 -469 OFFCURVE",
"362 -486 OFFCURVE",
"388 -500 CURVE",
"419 -516 OFFCURVE",
"434 -539 OFFCURVE",
"438 -579 CURVE",
"440 -595 OFFCURVE",
"440 -596 OFFCURVE",
"434 -621 CURVE",
"430 -636 OFFCURVE",
"426 -648 OFFCURVE",
"424 -650 CURVE",
"420 -654 OFFCURVE",
"405 -655 OFFCURVE",
"387 -653 CURVE"
);
},
{
closed = 1;
nodes = (
"213 -295 OFFCURVE",
"232 -261 OFFCURVE",
"242 -219 CURVE",
"246 -205 OFFCURVE",
"249 -191 OFFCURVE",
"249 -186 CURVE",
"251 -179 OFFCURVE",
"250 -178 OFFCURVE",
"247 -176 CURVE",
"237 -173 OFFCURVE",
"210 -199 OFFCURVE",
"194 -226 CURVE",
"173 -262 OFFCURVE",
"167 -288 OFFCURVE",
"176 -302 CURVE",
"179 -307 OFFCURVE",
"186 -307 OFFCURVE",
"196 -303 CURVE"
);
}
);
width = 629;
},
{
layerId = "14C6E355-B074-4D1E-9097-146622FBF431";
paths = (
{
closed = 1;
nodes = (
"370 -651 OFFCURVE",
"363 -648 OFFCURVE",
"363 -641 CURVE",
"363 -639 OFFCURVE",
"367 -623 OFFCURVE",
"373 -608 CURVE",
"382 -580 OFFCURVE",
"383 -579 OFFCURVE",
"381 -571 CURVE",
"378 -557 OFFCURVE",
"364 -538 OFFCURVE",
"339 -513 CURVE",
"291 -464 OFFCURVE",
"268 -428 OFFCURVE",
"260 -388 CURVE",
"256 -366 OFFCURVE",
"257 -324 OFFCURVE",
"264 -285 CURVE",
"265 -279 OFFCURVE",
"264 -279 OFFCURVE",
"244 -299 CURVE",
"213 -329 OFFCURVE",
"195 -339 OFFCURVE",
"166 -341 CURVE",
"154 -342 OFFCURVE",
"148 -342 OFFCURVE",
"141 -340 CURVE",
"97 -327 OFFCURVE",
"88 -284 OFFCURVE",
"118 -233 CURVE",
"135 -204 OFFCURVE",
"171 -169 OFFCURVE",
"196 -158 CURVE",
"213 -149 OFFCURVE",
"232 -143 OFFCURVE",
"241 -143 CURVE",
"251 -143 OFFCURVE",
"263 -151 OFFCURVE",
"274 -164 CURVE",
"280 -172 LINE",
"284 -157 LINE",
"286 -148 OFFCURVE",
"290 -139 OFFCURVE",
"292 -137 CURVE",
"296 -132 OFFCURVE",
"297 -132 OFFCURVE",
"303 -134 CURVE",
"316 -139 OFFCURVE",
"336 -149 OFFCURVE",
"340 -154 CURVE",
"345 -159 LINE",
"335 -190 LINE",
"309 -274 OFFCURVE",
"295 -335 OFFCURVE",
"295 -363 CURVE",
"295 -372 OFFCURVE",
"297 -382 OFFCURVE",
"301 -397 CURVE",
"311 -433 OFFCURVE",
"317 -446 OFFCURVE",
"327 -457 CURVE",
"338 -469 OFFCURVE",
"362 -486 OFFCURVE",
"388 -500 CURVE",
"419 -516 OFFCURVE",
"434 -539 OFFCURVE",
"438 -579 CURVE",
"440 -595 OFFCURVE",
"440 -596 OFFCURVE",
"434 -621 CURVE",
"430 -636 OFFCURVE",
"426 -648 OFFCURVE",
"424 -650 CURVE",
"420 -654 OFFCURVE",
"405 -655 OFFCURVE",
"387 -653 CURVE"
);
},
{
closed = 1;
nodes = (
"213 -295 OFFCURVE",
"232 -261 OFFCURVE",
"242 -219 CURVE",
"246 -205 OFFCURVE",
"249 -191 OFFCURVE",
"249 -186 CURVE",
"251 -179 OFFCURVE",
"250 -178 OFFCURVE",
"247 -176 CURVE",
"237 -173 OFFCURVE",
"210 -199 OFFCURVE",
"194 -226 CURVE",
"173 -262 OFFCURVE",
"167 -288 OFFCURVE",
"176 -302 CURVE",
"179 -307 OFFCURVE",
"186 -307 OFFCURVE",
"196 -303 CURVE"
);
}
);
width = 629;
}
);
unicode = 0071;
},
{
glyphname = r;
lastChange = "2019-02-24 22:46:33 +0000";
layers = (
{
layerId = "74DDE396-3882-446A-A041-640634B78C39";
paths = (
{
closed = 1;
nodes = (
"406 -606 OFFCURVE",
"416 -573 OFFCURVE",
"435 -540 CURVE SMOOTH",
"452 -508 OFFCURVE",
"462 -482 OFFCURVE",
"459 -482 CURVE SMOOTH",
"456 -482 OFFCURVE",
"435 -482 OFFCURVE",
"416 -483 CURVE SMOOTH",
"363 -485 OFFCURVE",
"359 -475 OFFCURVE",
"372 -375 CURVE SMOOTH",
"385 -279 OFFCURVE",
"385 -258 OFFCURVE",
"373 -240 CURVE",
"365 -230 OFFCURVE",
"357 -228 OFFCURVE",
"337 -232 CURVE SMOOTH",
"284 -242 OFFCURVE",
"272 -299 OFFCURVE",
"305 -394 CURVE SMOOTH",
"343 -502 OFFCURVE",
"312 -565 OFFCURVE",
"221 -565 CURVE SMOOTH",
"127 -565 OFFCURVE",
"74 -490 OFFCURVE",
"112 -411 CURVE SMOOTH",
"127 -377 OFFCURVE",
"160 -361 OFFCURVE",
"201 -366 CURVE",
"232 -372 LINE",
"225 -351 LINE SMOOTH",
"221 -339 OFFCURVE",
"217 -311 OFFCURVE",
"216 -287 CURVE",
"216 -239 OFFCURVE",
"230 -213 OFFCURVE",
"269 -189 CURVE SMOOTH",
"300 -171 OFFCURVE",
"377 -170 OFFCURVE",
"409 -187 CURVE SMOOTH",
"454 -209 OFFCURVE",
"458 -248 OFFCURVE",
"433 -376 CURVE SMOOTH",
"423 -430 LINE",
"468 -426 LINE SMOOTH",
"493 -424 OFFCURVE",
"518 -426 OFFCURVE",
"523 -430 CURVE",
"542 -443 OFFCURVE",
"534 -480 OFFCURVE",
"504 -532 CURVE SMOOTH",
"473 -582 OFFCURVE",
"459 -624 OFFCURVE",
"469 -638 CURVE",
"472 -644 OFFCURVE",
"461 -648 OFFCURVE",
"440 -648 CURVE SMOOTH",
"406 -648 OFFCURVE",
"406 -648 OFFCURVE",
"406 -620 CURVE SMOOTH"
);
},
{
closed = 1;
nodes = (
"295 -469 OFFCURVE",
"269 -408 OFFCURVE",
"224 -408 CURVE SMOOTH",
"193 -408 OFFCURVE",
"177 -419 OFFCURVE",
"168 -446 CURVE SMOOTH",
"146 -507 OFFCURVE",
"223 -553 OFFCURVE",
"266 -504 CURVE SMOOTH"
);
},
{
closed = 1;
nodes = (
"212 -123 OFFCURVE",
"216 -111 OFFCURVE",
"240 -107 CURVE SMOOTH",
"253 -105 OFFCURVE",
"264 -97 OFFCURVE",
"264 -87 CURVE SMOOTH",
"264 -71 OFFCURVE",
"247 -62 OFFCURVE",
"195 -54 CURVE SMOOTH",
"154 -48 OFFCURVE",
"143 -28 OFFCURVE",
"180 -28 CURVE SMOOTH",
"215 -28 OFFCURVE",
"290 -46 OFFCURVE",
"311 -60 CURVE SMOOTH",
"333 -74 OFFCURVE",
"337 -101 OFFCURVE",
"319 -117 CURVE SMOOTH",
"308 -127 OFFCURVE",
"253 -134 OFFCURVE",
"231 -128 CURVE SMOOTH"
);
},
{
closed = 1;
nodes = (
"389 -123 OFFCURVE",
"393 -111 OFFCURVE",
"417 -107 CURVE SMOOTH",
"430 -105 OFFCURVE",
"441 -97 OFFCURVE",
"441 -87 CURVE SMOOTH",
"441 -71 OFFCURVE",
"424 -62 OFFCURVE",
"372 -54 CURVE SMOOTH",
"331 -48 OFFCURVE",
"320 -28 OFFCURVE",
"357 -28 CURVE SMOOTH",
"392 -28 OFFCURVE",
"467 -46 OFFCURVE",
"488 -60 CURVE SMOOTH",
"510 -74 OFFCURVE",
"514 -101 OFFCURVE",
"496 -117 CURVE SMOOTH",
"485 -127 OFFCURVE",
"430 -134 OFFCURVE",
"408 -128 CURVE SMOOTH"
);
}
);
width = 672;
},
{
layerId = "14C6E355-B074-4D1E-9097-146622FBF431";
paths = (
{
closed = 1;
nodes = (
"406 -606 OFFCURVE",
"416 -573 OFFCURVE",
"435 -540 CURVE SMOOTH",
"452 -508 OFFCURVE",
"462 -482 OFFCURVE",
"459 -482 CURVE SMOOTH",
"456 -482 OFFCURVE",
"435 -482 OFFCURVE",
"416 -483 CURVE SMOOTH",
"363 -485 OFFCURVE",
"359 -475 OFFCURVE",
"372 -375 CURVE SMOOTH",
"385 -279 OFFCURVE",
"385 -258 OFFCURVE",
"373 -240 CURVE",
"365 -230 OFFCURVE",
"357 -228 OFFCURVE",
"337 -232 CURVE SMOOTH",
"284 -242 OFFCURVE",
"272 -299 OFFCURVE",
"305 -394 CURVE SMOOTH",
"343 -502 OFFCURVE",
"312 -565 OFFCURVE",
"221 -565 CURVE SMOOTH",
"127 -565 OFFCURVE",
"74 -490 OFFCURVE",
"112 -411 CURVE SMOOTH",
"127 -377 OFFCURVE",
"160 -361 OFFCURVE",
"201 -366 CURVE",
"232 -372 LINE",
"225 -351 LINE SMOOTH",
"221 -339 OFFCURVE",
"217 -311 OFFCURVE",
"216 -287 CURVE",
"216 -239 OFFCURVE",
"230 -213 OFFCURVE",
"269 -189 CURVE SMOOTH",
"300 -171 OFFCURVE",
"377 -170 OFFCURVE",
"409 -187 CURVE SMOOTH",
"454 -209 OFFCURVE",
"458 -248 OFFCURVE",
"433 -376 CURVE SMOOTH",
"423 -430 LINE",
"468 -426 LINE SMOOTH",
"493 -424 OFFCURVE",
"518 -426 OFFCURVE",
"523 -430 CURVE",
"542 -443 OFFCURVE",
"534 -480 OFFCURVE",
"504 -532 CURVE SMOOTH",
"473 -582 OFFCURVE",
"459 -624 OFFCURVE",
"469 -638 CURVE",
"472 -644 OFFCURVE",
"461 -648 OFFCURVE",
"440 -648 CURVE SMOOTH",
"406 -648 OFFCURVE",
"406 -648 OFFCURVE",
"406 -620 CURVE SMOOTH"
);
},
{
closed = 1;
nodes = (
"295 -469 OFFCURVE",
"269 -408 OFFCURVE",
"224 -408 CURVE SMOOTH",
"193 -408 OFFCURVE",
"177 -419 OFFCURVE",
"168 -446 CURVE SMOOTH",
"146 -507 OFFCURVE",
"223 -553 OFFCURVE",
"266 -504 CURVE SMOOTH"
);
},
{
closed = 1;
nodes = (
"212 -123 OFFCURVE",
"216 -111 OFFCURVE",
"240 -107 CURVE SMOOTH",
"253 -105 OFFCURVE",
"264 -97 OFFCURVE",
"264 -87 CURVE SMOOTH",
"264 -71 OFFCURVE",
"247 -62 OFFCURVE",
"195 -54 CURVE SMOOTH",
"154 -48 OFFCURVE",
"143 -28 OFFCURVE",
"180 -28 CURVE SMOOTH",
"215 -28 OFFCURVE",
"290 -46 OFFCURVE",
"311 -60 CURVE SMOOTH",
"333 -74 OFFCURVE",
"337 -101 OFFCURVE",
"319 -117 CURVE SMOOTH",
"308 -127 OFFCURVE",
"253 -134 OFFCURVE",
"231 -128 CURVE SMOOTH"
);
},
{
closed = 1;
nodes = (
"389 -123 OFFCURVE",
"393 -111 OFFCURVE",
"417 -107 CURVE SMOOTH",
"430 -105 OFFCURVE",
"441 -97 OFFCURVE",
"441 -87 CURVE SMOOTH",
"441 -71 OFFCURVE",
"424 -62 OFFCURVE",
"372 -54 CURVE SMOOTH",
"331 -48 OFFCURVE",
"320 -28 OFFCURVE",
"357 -28 CURVE SMOOTH",
"392 -28 OFFCURVE",
"467 -46 OFFCURVE",
"488 -60 CURVE SMOOTH",
"510 -74 OFFCURVE",
"514 -101 OFFCURVE",
"496 -117 CURVE SMOOTH",
"485 -127 OFFCURVE",
"430 -134 OFFCURVE",
"408 -128 CURVE SMOOTH"
);
}
);
width = 672;
}
);
unicode = 0072;
},
{
glyphname = s;
lastChange = "2019-02-24 22:46:33 +0000";
layers = (
{
layerId = "74DDE396-3882-446A-A041-640634B78C39";
paths = (
{
closed = 1;
nodes = (
"95 -415 OFFCURVE",
"96 -407 OFFCURVE",
"117 -394 CURVE",
"138 -376 OFFCURVE",
"157 -365 OFFCURVE",
"224 -338 CURVE SMOOTH",
"277 -315 LINE",
"278 -283 LINE SMOOTH",
"278 -247 OFFCURVE",
"291 -223 OFFCURVE",
"317 -208 CURVE",
"329 -199 OFFCURVE",
"344 -198 OFFCURVE",
"387 -198 CURVE SMOOTH",
"416 -198 OFFCURVE",
"453 -199 OFFCURVE",
"467 -201 CURVE",
"487 -203 OFFCURVE",
"500 -199 OFFCURVE",
"518 -190 CURVE",
"540 -180 OFFCURVE",
"609 -134 OFFCURVE",
"642 -111 CURVE SMOOTH",
"663 -96 OFFCURVE",
"693 -114 OFFCURVE",
"687 -142 CURVE",
"685 -154 OFFCURVE",
"632 -184 OFFCURVE",
"565 -212 CURVE SMOOTH",
"507 -235 LINE",
"507 -262 LINE SMOOTH",
"507 -295 OFFCURVE",
"494 -320 OFFCURVE",
"466 -337 CURVE SMOOTH",
"443 -350 OFFCURVE",
"381 -356 OFFCURVE",
"338 -350 CURVE SMOOTH",
"307 -345 OFFCURVE",
"303 -346 OFFCURVE",
"269 -362 CURVE",
"233 -377 OFFCURVE",
"181 -413 OFFCURVE",
"150 -436 CURVE SMOOTH",
"130 -451 OFFCURVE",
"123 -451 OFFCURVE",
"109 -434 CURVE"
);
},
{
closed = 1;
nodes = (
"434 -287 OFFCURVE",
"441 -278 OFFCURVE",
"441 -267 CURVE",
"443 -244 OFFCURVE",
"423 -231 OFFCURVE",
"388 -231 CURVE SMOOTH",
"365 -231 OFFCURVE",
"359 -233 OFFCURVE",
"346 -248 CURVE SMOOTH",
"328 -268 OFFCURVE",
"327 -285 OFFCURVE",
"338 -299 CURVE",
"352 -313 OFFCURVE",
"404 -310 OFFCURVE",
"425 -294 CURVE SMOOTH"
);
}
);
width = 724;
},
{
layerId = "14C6E355-B074-4D1E-9097-146622FBF431";
paths = (
{
closed = 1;
nodes = (
"95 -415 OFFCURVE",
"96 -407 OFFCURVE",
"117 -394 CURVE",
"138 -376 OFFCURVE",
"157 -365 OFFCURVE",
"224 -338 CURVE SMOOTH",
"277 -315 LINE",
"278 -283 LINE SMOOTH",
"278 -247 OFFCURVE",
"291 -223 OFFCURVE",
"317 -208 CURVE",
"329 -199 OFFCURVE",
"344 -198 OFFCURVE",
"387 -198 CURVE SMOOTH",
"416 -198 OFFCURVE",
"453 -199 OFFCURVE",
"467 -201 CURVE",
"487 -203 OFFCURVE",
"500 -199 OFFCURVE",
"518 -190 CURVE",
"540 -180 OFFCURVE",
"609 -134 OFFCURVE",
"642 -111 CURVE SMOOTH",
"663 -96 OFFCURVE",
"693 -114 OFFCURVE",
"687 -142 CURVE",
"685 -154 OFFCURVE",
"632 -184 OFFCURVE",
"565 -212 CURVE SMOOTH",
"507 -235 LINE",
"507 -262 LINE SMOOTH",
"507 -295 OFFCURVE",
"494 -320 OFFCURVE",
"466 -337 CURVE SMOOTH",
"443 -350 OFFCURVE",
"381 -356 OFFCURVE",
"338 -350 CURVE SMOOTH",
"307 -345 OFFCURVE",
"303 -346 OFFCURVE",
"269 -362 CURVE",
"233 -377 OFFCURVE",
"181 -413 OFFCURVE",
"150 -436 CURVE SMOOTH",
"130 -451 OFFCURVE",
"123 -451 OFFCURVE",
"109 -434 CURVE"
);
},
{
closed = 1;
nodes = (
"434 -287 OFFCURVE",
"441 -278 OFFCURVE",
"441 -267 CURVE",
"443 -244 OFFCURVE",
"423 -231 OFFCURVE",
"388 -231 CURVE SMOOTH",
"365 -231 OFFCURVE",
"359 -233 OFFCURVE",
"346 -248 CURVE SMOOTH",
"328 -268 OFFCURVE",
"327 -285 OFFCURVE",
"338 -299 CURVE",
"352 -313 OFFCURVE",
"404 -310 OFFCURVE",
"425 -294 CURVE SMOOTH"
);
}
);
width = 724;
}
);
unicode = 0073;
},
